<svg preserveAspectRatio="none" width="100%" height="100%" overflow="visible" style="display: block;" viewBox="0 0 430.672 290.366" fill="none" xmlns="http://www.w3.org/2000/svg">
<path id="Vector 512" d="M414.672 68.5606C414.672 72.9789 418.253 76.5606 422.672 76.5606C427.09 76.5606 430.672 72.9789 430.672 68.5606C430.672 64.1423 427.09 60.5606 422.672 60.5606C418.253 60.5606 414.672 64.1423 414.672 68.5606ZM191.672 143.865L192.802 142.879V142.879L191.672 143.865ZM264.672 55.8662L265.851 54.9394L264.672 55.8662ZM24.0542 290.233C24.8092 290.574 25.6977 290.238 26.0386 289.483L31.595 277.179C31.936 276.424 31.6004 275.536 30.8454 275.195C30.0904 274.854 29.2019 275.19 28.8609 275.945L23.9219 286.881L12.9855 281.942C12.2304 281.601 11.342 281.937 11.001 282.692C10.66 283.447 10.9957 284.335 11.7507 284.676L24.0542 290.233ZM24.6716 288.865L26.0748 288.335C25.7129 287.377 25.3556 286.422 25.0028 285.468L23.596 285.988L22.1891 286.509C22.5443 287.469 22.904 288.431 23.2684 289.396L24.6716 288.865ZM21.5274 280.274L22.9414 279.773C22.2724 277.884 21.6216 276.003 20.9888 274.131L19.5678 274.612L18.1469 275.092C18.7843 276.978 19.4397 278.871 20.1134 280.774L21.5274 280.274ZM17.7163 269.003L19.144 268.543C18.5367 266.658 17.9477 264.782 17.3769 262.915L15.9425 263.353L14.508 263.792C15.0832 265.673 15.6766 267.564 16.2885 269.463L17.7163 269.003ZM14.2074 257.514L15.6486 257.098C15.0922 255.17 14.5553 253.251 14.0377 251.343L12.59 251.736L11.1423 252.128C11.6641 254.052 12.2053 255.986 12.7662 257.93L14.2074 257.514ZM11.0889 246.018L12.5428 245.649C12.0549 243.726 11.5869 241.815 11.1383 239.913L9.6784 240.258L8.21848 240.602C8.67091 242.52 9.14301 244.448 9.63501 246.387L11.0889 246.018ZM8.33429 234.326L9.80013 234.007C9.37509 232.05 8.97099 230.104 8.58754 228.17L7.11618 228.462L5.64482 228.754C6.03182 230.706 6.43961 232.669 6.86846 234.644L8.33429 234.326ZM6.02241 222.668L7.49889 222.403C7.1453 220.43 6.81344 218.469 6.503 216.521L5.02169 216.757L3.54037 216.993C3.85388 218.961 4.18897 220.94 4.54593 222.932L6.02241 222.668ZM4.12932 210.772L5.61508 210.566C5.34141 208.594 5.08994 206.636 4.86032 204.69L3.37066 204.866L1.881 205.042C2.11303 207.008 2.36711 208.987 2.64356 210.979L4.12932 210.772ZM2.74334 199.034L4.23633 198.889C4.03953 196.861 3.86678 194.847 3.71768 192.848L2.22183 192.96L0.72599 193.071C0.876756 195.093 1.05142 197.128 1.25035 199.179L2.74334 199.034ZM1.84297 186.974L3.34096 186.896C3.23877 184.927 3.15985 182.973 3.1038 181.034L1.60442 181.077L0.105049 181.12C0.161772 183.083 0.241625 185.06 0.344987 187.052L1.84297 186.974ZM1.50278 175.061L3.00277 175.054C2.99318 173.042 3.00855 171.047 3.04843 169.068L1.54873 169.038L0.0490388 169.008C0.00865424 171.012 -0.0069077 173.032 0.00280046 175.069L1.50278 175.061ZM1.74266 163.115L3.24112 163.183C3.33175 161.189 3.44763 159.213 3.58828 157.255L2.09213 157.147L0.595984 157.04C0.453444 159.024 0.336026 161.027 0.244212 163.046L1.74266 163.115ZM2.60597 151.136L4.09863 151.285C4.29444 149.313 4.51575 147.36 4.76205 145.426L3.27406 145.237L1.78608 145.047C1.53627 147.009 1.31184 148.989 1.11332 150.988L2.60597 151.136ZM4.11304 139.323L5.59499 139.555C5.9059 137.569 6.24363 135.603 6.60756 133.659L5.13315 133.383L3.65875 133.107C3.28933 135.081 2.94657 137.075 2.63109 139.091L4.11304 139.323ZM6.31187 127.566L7.77733 127.887C8.20355 125.935 8.65668 124.005 9.13604 122.098L7.68126 121.732L6.22648 121.367C5.73949 123.305 5.27926 125.265 4.84642 127.246L6.31187 127.566ZM9.23832 115.928L10.6807 116.34C11.2223 114.444 11.7903 112.57 12.3842 110.719L10.9559 110.261L9.52767 109.802C8.92387 111.684 8.34641 113.589 7.79599 115.516L9.23832 115.928ZM12.8927 104.555L14.3047 105.061C14.9765 103.186 15.6755 101.336 16.4007 99.5113L15.0067 98.9574L13.6127 98.4035C12.8749 100.26 12.1639 102.142 11.4806 104.049L12.8927 104.555ZM17.2933 93.4796L18.6673 94.0813C19.4719 92.2442 20.3037 90.4337 21.1621 88.65L19.8105 87.9995L18.4589 87.3491C17.5849 89.1651 16.7381 91.0081 15.9193 92.8779L17.2933 93.4796ZM22.4886 82.6806L23.816 83.3792C24.7428 81.6182 25.6962 79.885 26.6753 78.1797L25.3745 77.4328L24.0736 76.6859C23.0762 78.4231 22.1051 80.1885 21.1612 81.982L22.4886 82.6806ZM28.4549 72.2915L29.727 73.0864C30.7725 71.4133 31.8434 69.7691 32.939 68.1538L31.6976 67.3118L30.4562 66.4699C29.3396 68.1162 28.2481 69.7918 27.1828 71.4967L28.4549 72.2915ZM35.1718 62.3952L36.3799 63.2843C37.5519 61.6916 38.7488 60.1293 39.9693 58.5977L38.7963 57.6629L37.6232 56.728C36.3787 58.2897 35.1585 59.8825 33.9636 61.5062L35.1718 62.3952ZM42.6215 53.05L43.7572 54.0299C45.0531 52.5279 46.3727 51.058 47.7151 49.6203L46.6187 48.5966L45.5223 47.573C44.1532 49.0393 42.8073 50.5384 41.4858 52.0702L42.6215 53.05ZM50.7759 44.3164L51.8311 45.3825C53.2437 43.9843 54.6787 42.6197 56.135 41.2889L55.1232 40.1816L54.1113 39.0743C52.6256 40.432 51.1617 41.824 49.7207 43.2503L50.7759 44.3164ZM59.5997 36.2512L60.5668 37.3978C62.0864 36.1162 63.6267 34.8695 65.1866 33.6578L64.2665 32.4732L63.3463 31.2886C61.7547 32.5249 60.183 33.7969 58.6326 35.1045L59.5997 36.2512ZM69.0556 28.9048L69.9275 30.1254C71.5397 28.9738 73.1705 27.858 74.8189 26.7782L73.997 25.5235L73.175 24.2687C71.493 25.3706 69.8288 26.5092 68.1838 27.6842L69.0556 28.9048ZM79.0666 22.347L79.8372 23.6339C81.5333 22.6183 83.2459 21.6394 84.9739 20.6974L84.256 19.3804L83.538 18.0634C81.7746 19.0247 80.0268 20.0236 78.296 21.06L79.0666 22.347ZM89.5714 16.621L90.2354 17.9661C92.0057 17.0922 93.7903 16.2559 95.588 15.4574L94.979 14.0866L94.3701 12.7157C92.5355 13.5307 90.7142 14.3841 88.9074 15.276L89.5714 16.621ZM100.504 11.7658L101.057 13.1603C102.892 12.4331 104.739 11.7443 106.596 11.0942L106.101 9.67838L105.605 8.26258C103.71 8.92611 101.824 9.6291 99.9514 10.3713L100.504 11.7658ZM111.794 7.81544L112.232 9.25029C114.121 8.67454 116.02 8.13811 117.926 7.64119L117.548 6.18967L117.17 4.73816C115.223 5.24538 113.285 5.79292 111.357 6.38059L111.794 7.81544ZM123.369 4.79931L123.688 6.26512C125.618 5.8457 127.555 5.46634 129.498 5.12722L129.24 3.64956L128.982 2.17191C126.999 2.51811 125.021 2.90537 123.051 3.33351L123.369 4.79931ZM135.153 2.74253L135.349 4.22957C137.308 3.97041 139.27 3.75192 141.235 3.57428L141.1 2.08037L140.965 0.586465C138.958 0.767844 136.955 0.990919 134.956 1.2555L135.153 2.74253ZM147.066 1.66572L147.139 3.16395C149.111 3.06807 151.085 3.01333 153.058 2.99993L153.048 1.49997L153.038 0C151.022 0.0136877 149.007 0.0695803 146.994 0.167485L147.066 1.66572ZM159.03 1.58481L158.977 3.08388C160.948 3.15329 162.919 3.26418 164.886 3.41674L165.002 1.92123L165.118 0.425715C163.108 0.269889 161.096 0.156628 159.082 0.0857379L159.03 1.58481ZM170.958 2.51032L170.779 3.99957C172.735 4.23512 174.688 4.51234 176.635 4.8314L176.877 3.35115L177.12 1.87089C175.131 1.54492 173.136 1.26171 171.137 1.02108L170.958 2.51032ZM182.762 4.44548L182.457 5.91398C184.384 6.31543 186.306 6.75859 188.219 7.24365L188.587 5.78966L188.956 4.33566C187.001 3.84 185.038 3.38717 183.068 2.97698L182.762 4.44548ZM194.355 7.38541L193.924 8.82211C195.81 9.38803 197.687 9.99559 199.553 10.645L200.046 9.22829L200.539 7.81162C198.631 7.14796 196.714 6.52705 194.786 5.9487L194.355 7.38541ZM205.649 11.3157L205.095 12.7097C206.926 13.4374 208.745 14.2067 210.551 15.0175L211.166 13.649L211.78 12.2805C209.934 11.4518 208.074 10.6657 206.203 9.92182L205.649 11.3157ZM216.558 16.2115L215.884 17.552C217.649 18.4378 219.399 19.3647 221.134 20.3329L221.865 19.023L222.596 17.7132C220.822 16.7237 219.034 15.7764 217.231 14.871L216.558 16.2115ZM227.001 22.0364L226.214 23.3135C227.891 24.347 229.553 25.4207 231.198 26.5348L232.039 25.2929L232.88 24.0511C231.2 22.9127 229.502 21.8155 227.787 20.7593L227.001 22.0364ZM236.905 28.7438L236.012 29.9486C237.589 31.1188 239.15 32.328 240.691 33.5763L241.635 32.4106L242.579 31.2449C241.005 29.9698 239.411 28.7346 237.799 27.539L236.905 28.7438ZM246.21 36.2782L245.218 37.4031C246.684 38.6965 248.131 40.0273 249.559 41.3956L250.597 40.3127L251.635 39.2299C250.178 37.8329 248.7 36.4741 247.202 35.1533L246.21 36.2782ZM254.863 44.5744L253.781 45.6135C255.128 47.0157 256.455 48.4534 257.761 49.927L258.884 48.9318L260.006 47.9367C258.673 46.4334 257.319 44.9663 255.944 43.5352L254.863 44.5744ZM262.775 53.5007L261.614 54.4505C262.246 55.2223 262.872 56.0031 263.492 56.7929L264.672 55.8662L265.851 54.9394C265.218 54.1342 264.58 53.338 263.936 52.5508L262.775 53.5007ZM264.672 55.8662L263.492 56.7929C264.108 57.5761 264.707 58.3585 265.29 59.1401L266.492 58.2431L267.694 57.3461C267.096 56.5443 266.482 55.742 265.851 54.9394L264.672 55.8662ZM269.854 62.9967L268.607 63.8305C269.709 65.4788 270.741 67.1218 271.706 68.758L272.998 67.9962L274.29 67.2344C273.296 65.5484 272.234 63.8574 271.101 62.1629L269.854 62.9967ZM275.832 73.1514L274.495 73.8328C275.387 75.5811 276.202 77.3199 276.944 79.0476L278.323 78.4555L279.701 77.8635C278.932 76.0743 278.089 74.2759 277.168 72.47L275.832 73.1514ZM280.443 83.9086L279.026 84.4017C279.669 86.2484 280.229 88.0798 280.709 89.8939L282.159 89.5098L283.609 89.1256C283.109 87.2371 282.527 85.3329 281.859 83.4155L280.443 83.9086ZM283.436 95.2539L281.959 95.5188C282.304 97.4406 282.56 99.3397 282.732 101.213L284.226 101.076L285.719 100.939C285.54 98.9792 285.272 96.9948 284.912 94.989L283.436 95.2539ZM284.499 106.941L282.999 106.943C283.001 108.883 282.912 110.792 282.737 112.665L284.231 112.804L285.724 112.944C285.908 110.977 286.001 108.974 285.999 106.94L284.499 106.941ZM283.404 118.614L281.931 118.331C281.566 120.226 281.111 122.079 280.573 123.886L282.011 124.314L283.448 124.743C284.015 122.841 284.493 120.891 284.877 118.898L283.404 118.614ZM280.054 129.846L278.667 129.275C277.934 131.053 277.118 132.776 276.224 134.44L277.545 135.15L278.866 135.86C279.809 134.106 280.669 132.29 281.441 130.417L280.054 129.846ZM274.504 140.17L273.263 139.328C272.185 140.916 271.032 142.436 269.81 143.884L270.957 144.851L272.103 145.819C273.392 144.291 274.609 142.687 275.745 141.013L274.504 140.17ZM266.939 149.134L265.901 148.051C264.519 149.376 263.074 150.62 261.574 151.777L262.49 152.965L263.406 154.153C264.992 152.929 266.518 151.616 267.977 150.217L266.939 149.134ZM257.653 156.291L256.872 155.01C255.243 156.003 253.565 156.902 251.846 157.701L252.479 159.061L253.111 160.421C254.933 159.575 256.71 158.623 258.434 157.572L257.653 156.291ZM247.023 161.225L246.552 159.801C244.749 160.397 242.913 160.887 241.052 161.265L241.351 162.735L241.65 164.205C243.628 163.803 245.58 163.282 247.494 162.649L247.023 161.225ZM235.54 163.553L235.423 162.058C233.543 162.206 231.647 162.239 229.743 162.153L229.675 163.651L229.607 165.15C231.637 165.242 233.657 165.206 235.658 165.048L235.54 163.553ZM223.843 163.023L224.096 161.544C222.251 161.228 220.405 160.796 218.564 160.243L218.132 161.68L217.701 163.116C219.659 163.705 221.625 164.165 223.59 164.501L223.843 163.023ZM212.624 159.659L213.222 158.283C211.514 157.54 209.816 156.686 208.134 155.716L207.385 157.015L206.636 158.315C208.414 159.34 210.213 160.245 212.025 161.034L212.624 159.659ZM202.465 153.82L203.346 152.606C201.841 151.514 200.353 150.321 198.887 149.025L197.893 150.149L196.9 151.272C198.436 152.631 199.999 153.884 201.584 155.034L202.465 153.82ZM193.68 146.073L194.768 145.041C194.107 144.344 193.451 143.623 192.802 142.879L191.672 143.865L190.541 144.852C191.218 145.627 191.901 146.378 192.591 147.105L193.68 146.073ZM191.672 143.865L192.802 142.879C192.154 142.137 191.539 141.379 190.956 140.605L189.758 141.508L188.56 142.411C189.186 143.242 189.847 144.056 190.541 144.852L191.672 143.865ZM186.503 136.471L187.819 135.75C186.888 134.051 186.086 132.294 185.41 130.487L184.005 131.012L182.6 131.538C183.325 133.477 184.187 135.365 185.188 137.192L186.503 136.471ZM182.292 125.248L183.756 124.919C183.334 123.042 183.031 121.121 182.844 119.163L181.351 119.306L179.858 119.448C180.056 121.526 180.378 123.572 180.829 125.577L182.292 125.248ZM181.128 113.309L182.628 113.337C182.664 111.417 182.803 109.47 183.043 107.503L181.554 107.322L180.065 107.141C179.813 109.205 179.667 111.254 179.629 113.28L181.128 113.309ZM182.557 101.396L184.024 101.713C184.433 99.8209 184.929 97.9161 185.512 96.0044L184.077 95.5672L182.642 95.1299C182.036 97.1181 181.518 99.1032 181.091 101.079L182.557 101.396ZM186.057 89.8615L187.455 90.4057C188.157 88.6034 188.932 86.8 189.779 85.0001L188.422 84.3614L187.064 83.7227C186.189 85.583 185.387 87.4494 184.66 89.3174L186.057 89.8615ZM191.154 79.0103L192.468 79.7341C193.412 78.0201 194.421 76.3137 195.491 74.6188L194.223 73.8176L192.955 73.0164C191.853 74.7609 190.814 76.519 189.84 78.2864L191.154 79.0103ZM197.579 68.8262L198.8 69.6977C199.935 68.1078 201.125 66.5322 202.369 64.9741L201.196 64.0384L200.024 63.1027C198.747 64.7022 197.525 66.3207 196.359 67.9548L197.579 68.8262ZM205.079 59.4262L206.201 60.4214C207.503 58.9525 208.854 57.5035 210.253 56.0774L209.182 55.0272L208.111 53.977C206.677 55.4387 205.292 56.9244 203.956 58.431L205.079 59.4262ZM213.488 50.8447L214.507 51.9458C215.955 50.6065 217.446 49.2918 218.979 48.0045L218.014 46.8558L217.05 45.707C215.48 47.0252 213.953 48.3716 212.47 49.7436L213.488 50.8447ZM222.701 43.1053L223.611 44.2982C225.176 43.105 226.779 41.9402 228.42 40.8066L227.567 39.5725L226.715 38.3385C225.035 39.4987 223.394 40.6909 221.792 41.9124L222.701 43.1053ZM232.608 36.2601L233.402 37.5325C235.068 36.4925 236.768 35.4844 238.5 34.5106L237.765 33.203L237.03 31.8954C235.257 32.8919 233.518 33.9235 231.814 34.9877L232.608 36.2601ZM243.087 30.3713L243.761 31.7114C245.519 30.8277 247.307 29.979 249.124 29.1675L248.513 27.7978L247.901 26.4281C246.041 27.2584 244.212 28.1269 242.413 29.0311L243.087 30.3713ZM254.059 25.4732L254.607 26.8696C256.444 26.149 258.308 25.4662 260.199 24.8234L259.716 23.4033L259.233 21.9831C257.298 22.6408 255.391 23.3395 253.511 24.0768L254.059 25.4732ZM265.438 21.6032L265.856 23.044C267.756 22.4939 269.681 21.984 271.629 21.5163L271.279 20.0578L270.929 18.5992C268.935 19.0777 266.966 19.5994 265.021 20.1623L265.438 21.6032ZM277.128 18.7944L277.411 20.2674C279.352 19.8943 281.315 19.563 283.298 19.2754L283.083 17.7909L282.867 16.3064C280.838 16.6007 278.831 16.9396 276.845 17.3214L277.128 18.7944ZM289.026 17.0659L289.174 18.5585C291.138 18.3639 293.121 18.212 295.121 18.1046L295.041 16.6067L294.961 15.1089C292.915 15.2187 290.887 15.3741 288.878 15.5732L289.026 17.0659ZM301.032 16.4186L301.046 17.9185C303.017 17.9003 305.005 17.9253 307.008 17.995L307.06 16.4959L307.112 14.9968C305.065 14.9256 303.033 14.9 301.018 14.9186L301.032 16.4186ZM313.046 16.8339L312.929 18.3294C314.895 18.4828 316.874 18.6794 318.867 18.9206L319.048 17.4314L319.228 15.9423C317.193 15.696 315.171 15.4952 313.163 15.3385L313.046 16.8339ZM324.977 18.2741L324.736 19.7545C326.685 20.0726 328.647 20.4335 330.62 20.8384L330.922 19.3691L331.223 17.8997C329.21 17.4866 327.209 17.1183 325.219 16.7936L324.977 18.2741ZM336.749 20.6849L336.39 22.1414C338.317 22.6162 340.254 23.1332 342.201 23.6935L342.616 22.2521L343.031 20.8106C341.047 20.2396 339.072 19.7126 337.108 19.2285L336.749 20.6849ZM348.299 24.0017L347.831 25.427C349.717 26.0454 351.611 26.7047 353.513 27.4059L354.032 25.9984L354.551 24.591C352.615 23.8773 350.686 23.2061 348.766 22.5764L348.299 24.0017ZM359.585 28.1549L359.018 29.5437C360.844 30.2888 362.677 31.0728 364.517 31.8966L365.13 30.5276L365.743 29.1585C363.873 28.3212 362.009 27.524 360.152 26.7661L359.585 28.1549ZM370.585 33.0773L369.928 34.4258C371.685 35.2816 373.448 36.174 375.216 37.1035L375.914 35.7758L376.612 34.4481C374.817 33.5043 373.027 32.5981 371.242 31.7287L370.585 33.0773ZM381.275 38.6987L380.537 40.0048C382.225 40.9581 383.917 41.9456 385.614 42.968L386.388 41.6833L387.162 40.3985C385.442 39.3617 383.725 38.36 382.013 37.3927L381.275 38.6987ZM391.508 44.8662L390.699 46.1292C392.37 47.1998 394.044 48.3044 395.723 49.4437L396.565 48.2027L397.408 46.9616C395.707 45.8076 394.011 44.6883 392.317 43.6033L391.508 44.8662ZM401.434 51.5981L400.561 52.8178C402.177 53.9746 403.796 55.1639 405.418 56.3862L406.32 55.1882L407.223 53.9903C405.582 52.7535 403.943 51.5497 402.307 50.3784L401.434 51.5981ZM411.083 58.8652L410.153 60.0418C411.684 61.2526 413.218 62.493 414.753 63.7635L415.71 62.6077L416.666 61.4519C415.113 60.1675 413.562 58.9132 412.013 57.6885L411.083 58.8652ZM420.348 66.5306L419.367 67.6654C420.137 68.331 420.908 69.0041 421.679 69.685L422.672 68.5606L423.665 67.4362C422.886 66.7484 422.107 66.0682 421.329 65.3957L420.348 66.5306Z" fill="var(--stroke-0, #C2461E)"/>
</svg>
