<svg width="149" height="99" viewBox="0 0 149.442 99.3485" fill="none" xmlns="http://www.w3.org/2000/svg">
<path id="Vector 512" d="M138.776 23.6736C138.776 26.6191 141.163 29.0069 144.109 29.0069C147.054 29.0069 149.442 26.6191 149.442 23.6736C149.442 20.728 147.054 18.3402 144.109 18.3402C141.163 18.3402 138.776 20.728 138.776 23.6736ZM65.809 49.1989L66.5624 48.5414V48.5414L65.809 49.1989ZM90.5532 19.3706L91.3395 18.7528L90.5532 19.3706ZM8.791 99.2596C9.29433 99.4869 9.88664 99.2632 10.114 98.7599L13.8182 90.5575C14.0455 90.0542 13.8218 89.4619 13.3184 89.2346C12.8151 89.0072 12.2228 89.231 11.9955 89.7343L8.7028 97.0253L1.41183 93.7326C0.908496 93.5053 0.316188 93.7291 0.0888753 94.2324C-0.138437 94.7357 0.0853238 95.3281 0.58866 95.5554L8.791 99.2596ZM9.20258 98.3483L10.1381 97.9949C9.77122 97.0238 9.41844 96.0596 9.07948 95.1022L8.13682 95.436L7.19415 95.7697C7.53782 96.7404 7.8954 97.7177 8.26711 98.7017L9.20258 98.3483ZM6.24376 89.7006L7.20007 89.4082C6.59643 87.4338 6.05309 85.4905 5.56787 83.5786L4.59859 83.8246L3.62932 84.0706C4.12263 86.0143 4.67465 87.9886 5.28746 89.993L6.24376 89.7006ZM3.25199 77.8739L4.2329 77.6794C3.83286 75.6617 3.49954 73.6819 3.23007 71.7403L2.23956 71.8778L1.24906 72.0153C1.52395 73.9959 1.86373 76.0138 2.27109 78.0684L3.25199 77.8739ZM1.593 65.84L2.59023 65.7656C2.43763 63.7198 2.35857 61.7206 2.34926 59.7684L1.34927 59.7732L0.349284 59.7779C0.358815 61.7776 0.439789 63.8233 0.595773 65.9144L1.593 65.84ZM1.54904 53.7009L2.54647 53.7725C2.69327 51.7284 2.92014 49.7419 3.22201 47.8138L2.23405 47.6591L1.24608 47.5044C0.935424 49.4887 0.702327 51.5306 0.551607 53.6292L1.54904 53.7009ZM3.44354 41.6966L4.41339 41.9403C4.91099 39.9599 5.49252 38.0501 6.15137 36.2116L5.21 35.8743L4.26862 35.5369C3.58744 37.4377 2.98699 39.4101 2.47369 41.4529L3.44354 41.6966ZM7.55488 30.2626L8.45597 30.6962C9.33514 28.8693 10.2969 27.1263 11.333 25.4681L10.485 24.9382L9.63695 24.4083C8.56173 26.129 7.56459 27.9363 6.65379 29.8289L7.55488 30.2626ZM13.9903 19.9796L14.7724 20.6029C16.0282 19.027 17.3588 17.5478 18.7544 16.1664L18.0509 15.4557L17.3475 14.745C15.8962 16.1814 14.5131 17.7191 13.2083 19.3564L13.9903 19.9796ZM22.6237 11.4413L23.2372 12.2311C24.8198 11.0017 26.4624 9.87985 28.1541 8.86689L27.6404 8.00894L27.1266 7.15099C25.3661 8.20517 23.6569 9.37257 22.0103 10.6516L22.6237 11.4413ZM33.0341 5.20899L33.44 6.12288C35.2659 5.31185 37.1316 4.61699 39.0253 4.03989L38.7338 3.08332L38.4423 2.12676C36.4707 2.72757 34.5286 3.45092 32.6281 4.29509L33.0341 5.20899ZM44.6472 1.67126L44.8192 2.65636C46.7799 2.31407 48.7571 2.09396 50.7382 1.99764L50.6897 0.99882L50.6411 0C48.5768 0.100362 46.5173 0.32968 44.4752 0.68616L44.6472 1.67126ZM56.7691 1.08543L56.6918 2.08244C58.6687 2.23573 60.6373 2.51441 62.5853 2.92006L62.7892 1.94106L62.9931 0.962063C60.9607 0.538859 58.9076 0.248252 56.8464 0.0884277L56.7691 1.08543ZM68.6475 3.56226L68.3188 4.5067C70.1796 5.15426 72.0091 5.92581 73.7957 6.82294L74.2444 5.92928L74.6932 5.03562C72.8282 4.09912 70.9184 3.29372 68.9762 2.61781L68.6475 3.56226ZM79.492 9.00754L78.9311 9.83545C80.5515 10.9331 82.1225 12.1478 83.6339 13.481L84.2954 12.7311L84.9569 11.9812C83.3818 10.5917 81.7435 9.32494 80.0528 8.17963L79.492 9.00754ZM88.5913 17.0202L87.8431 17.6836C88.5002 18.4248 89.1418 19.193 89.7669 19.9885L90.5532 19.3706L91.3395 18.7528C90.6901 17.9264 90.0231 17.1277 89.3396 16.3568L88.5913 17.0202ZM90.5532 19.3706L89.7669 19.9885C90.4299 20.8323 91.0362 21.673 91.5883 22.5088L92.4227 21.9575L93.257 21.4063C92.6737 20.5234 92.0353 19.6384 91.3395 18.7528L90.5532 19.3706ZM95.4111 27.5806L94.4843 27.9561C95.3038 29.979 95.821 31.9496 96.0781 33.8429L97.069 33.7084L98.0599 33.5738C97.7795 31.5085 97.2175 29.3763 96.338 27.2052L95.4111 27.5806ZM97.0067 40.053L96.0196 39.8929C95.6846 41.9581 95.03 43.877 94.1238 45.6057L95.0095 46.07L95.8952 46.5343C96.9003 44.6167 97.624 42.4925 97.9938 40.2132L97.0067 40.053ZM91.177 51.122L90.4927 50.3928C89.0072 51.7869 87.3086 52.8983 85.4848 53.6711L85.8749 54.5919L86.2651 55.5126C88.3118 54.6454 90.2085 53.4024 91.8614 51.8512L91.177 51.122ZM79.6847 55.9197L79.6679 54.9199C77.7391 54.9523 75.7678 54.6146 73.8295 53.8507L73.4628 54.781L73.0961 55.7114C75.2813 56.5726 77.5134 56.9564 79.7015 56.9196L79.6847 55.9197ZM68.0686 51.4607L68.7241 50.7054C67.9867 50.0655 67.2643 49.3456 66.5624 48.5414L65.809 49.1989L65.0556 49.8565C65.8158 50.7276 66.6034 51.5131 67.4131 52.2159L68.0686 51.4607ZM65.809 49.1989L66.5624 48.5414C65.9673 47.8595 65.4566 47.1362 65.0266 46.3779L64.1567 46.8712L63.2868 47.3644C63.7833 48.2399 64.372 49.0732 65.0556 49.8565L65.809 49.1989ZM62.3804 41.4865L63.3718 41.355C63.1446 39.6426 63.1959 37.8302 63.5138 35.9629L62.528 35.7951L61.5422 35.6272C61.1946 37.6692 61.1326 39.6846 61.3891 41.618L62.3804 41.4865ZM64.131 30.3335L65.055 30.7157C65.7332 29.0764 66.5936 27.4354 67.6246 25.824L66.7823 25.2851L65.94 24.7461C64.8494 26.4505 63.933 28.196 63.2069 29.9512L64.131 30.3335ZM70.2198 20.7288L70.9713 21.3885C72.1678 20.0255 73.4894 18.7117 74.9267 17.4695L74.2727 16.713L73.6188 15.9564C72.1129 17.2579 70.7259 18.6364 69.4683 20.0691L70.2198 20.7288ZM78.8214 13.2782L79.3706 14.1139C80.8988 13.1095 82.5175 12.1853 84.219 11.3589L83.7821 10.4594L83.3452 9.5599C81.5652 10.4245 79.8714 11.3914 78.2721 12.4425L78.8214 13.2782ZM89.0681 8.30128L89.3856 9.24955C91.1165 8.67003 92.9129 8.1904 94.7685 7.82487L94.5752 6.84373L94.3819 5.86258C92.4409 6.24494 90.5616 6.74669 88.7506 7.35302L89.0681 8.30128ZM100.242 6.09978L100.309 7.09754C102.12 6.97602 103.977 6.96314 105.876 7.07021L105.932 6.0718L105.988 5.07338C104.008 4.96167 102.068 4.97502 100.175 5.10202L100.242 6.09978ZM111.602 6.73145L111.429 7.71633C113.218 8.03102 115.038 8.45346 116.885 8.99234L117.165 8.03238L117.445 7.07241C115.529 6.51327 113.638 6.07409 111.776 5.74657L111.602 6.73145ZM122.538 9.9016L122.163 10.8287C123.844 11.5081 125.544 12.2858 127.26 13.1679L127.717 12.2785L128.174 11.3891C126.406 10.48 124.651 9.67704 122.913 8.97446L122.538 9.9016ZM132.677 15.0938L132.149 15.943C133.695 16.9042 135.252 17.952 136.818 19.0908L137.407 18.282L137.995 17.4733C136.391 16.3068 134.793 15.2319 133.205 14.2445L132.677 15.0938ZM141.906 21.786L141.267 22.5551C141.992 23.1577 142.719 23.7802 143.447 24.4231L144.109 23.6736L144.771 22.924C144.028 22.268 143.286 21.6324 142.545 21.0168L141.906 21.786Z" fill="#C2461E"/>
</svg>
