<svg preserveAspectRatio="none" width="100%" height="100%" overflow="visible" style="display: block;" viewBox="0 0 50 50" fill="none" xmlns="http://www.w3.org/2000/svg">
<g id="Group 2322">
<g id="Ellipse 2">
<circle cx="25" cy="25" r="24.5" fill="var(--fill-0, white)"/>
<circle cx="25" cy="25" r="24.5" fill="url(#paint0_linear_0_4)"/>
<circle cx="25" cy="25" r="24.5" stroke="url(#paint1_linear_0_4)"/>
</g>
<g id="uis:calendar">
<path id="Vector" d="M15 32C15 33.7 16.3 35 18 35H32C33.7 35 35 33.7 35 32V24H15V32ZM32 17H30V16C30 15.4 29.6 15 29 15C28.4 15 28 15.4 28 16V17H22V16C22 15.4 21.6 15 21 15C20.4 15 20 15.4 20 16V17H18C16.3 17 15 18.3 15 20V22H35V20C35 18.3 33.7 17 32 17Z" fill="var(--fill-0, white)"/>
<g id="90">
<path d="M23.289 30.1873C23.1817 30.2387 23.0907 30.2737 23.016 30.2923C22.9414 30.3063 22.8527 30.3133 22.75 30.3133C22.526 30.3133 22.3184 30.269 22.127 30.1803C21.9357 30.0917 21.77 29.9703 21.63 29.8163C21.49 29.6577 21.378 29.4733 21.294 29.2633C21.2147 29.0487 21.175 28.82 21.175 28.5773C21.175 28.3113 21.217 28.0663 21.301 27.8423C21.3897 27.6137 21.511 27.4177 21.665 27.2543C21.8237 27.091 22.0104 26.965 22.225 26.8763C22.4397 26.783 22.673 26.7363 22.925 26.7363C23.1817 26.7363 23.4197 26.783 23.639 26.8763C23.8584 26.965 24.0474 27.091 24.206 27.2543C24.3647 27.413 24.4884 27.602 24.577 27.8213C24.6704 28.0407 24.717 28.2787 24.717 28.5353C24.717 28.6613 24.7077 28.7803 24.689 28.8923C24.6704 29.0043 24.6377 29.1187 24.591 29.2353C24.549 29.3473 24.4907 29.471 24.416 29.6063C24.3414 29.737 24.248 29.8863 24.136 30.0543L22.834 32.0003H22.064L23.289 30.1873ZM22.946 29.7253C23.1047 29.7253 23.2517 29.695 23.387 29.6343C23.5224 29.5737 23.639 29.492 23.737 29.3893C23.8397 29.282 23.919 29.156 23.975 29.0113C24.031 28.8667 24.059 28.708 24.059 28.5353C24.059 28.358 24.031 28.197 23.975 28.0523C23.919 27.903 23.8397 27.777 23.737 27.6743C23.6344 27.567 23.513 27.483 23.373 27.4223C23.233 27.3617 23.079 27.3313 22.911 27.3313C22.7524 27.3313 22.6077 27.3617 22.477 27.4223C22.3464 27.483 22.232 27.567 22.134 27.6743C22.0407 27.777 21.966 27.903 21.91 28.0523C21.8587 28.197 21.833 28.358 21.833 28.5353C21.833 28.708 21.861 28.869 21.917 29.0183C21.973 29.163 22.05 29.289 22.148 29.3963C22.246 29.499 22.3627 29.5807 22.498 29.6413C22.6334 29.6973 22.7827 29.7253 22.946 29.7253Z" fill="var(--fill-0, #DB0C25)"/>
<path d="M25.1137 28.6053C25.1137 28.008 25.263 27.5483 25.5617 27.2263C25.865 26.8997 26.292 26.7363 26.8427 26.7363C27.3934 26.7363 27.8204 26.8997 28.1237 27.2263C28.427 27.5483 28.5787 28.001 28.5787 28.5843V30.1663C28.5787 30.7963 28.434 31.2747 28.1447 31.6013C27.86 31.928 27.44 32.0913 26.8847 32.0913C26.3154 32.0913 25.8767 31.928 25.5687 31.6013C25.2654 31.27 25.1137 30.7917 25.1137 30.1663V28.6053ZM25.7647 30.1033C25.7647 31.032 26.131 31.4963 26.8637 31.4963C27.2277 31.4963 27.496 31.3843 27.6687 31.1603C27.8414 30.9363 27.9277 30.5863 27.9277 30.1103V28.6823C27.9277 27.7817 27.5684 27.3313 26.8497 27.3313C26.1264 27.3313 25.7647 27.7817 25.7647 28.6823V30.1033Z" fill="var(--fill-0, #DB0C25)"/>
</g>
</g>
</g>
<defs>
<linearGradient id="paint0_linear_0_4" x1="-0.278023" y1="5.35468" x2="61.931" y2="29.5779" gradientUnits="userSpaceOnUse">
<stop stop-color="#DB0C25"/>
<stop offset="0.33" stop-color="#E04C29"/>
<stop offset="1" stop-color="#EFB991"/>
</linearGradient>
<linearGradient id="paint1_linear_0_4" x1="25" y1="0" x2="25" y2="50" gradientUnits="userSpaceOnUse">
<stop stop-color="white"/>
<stop offset="1" stop-color="white" stop-opacity="0"/>
</linearGradient>
</defs>
</svg>
