<svg preserveAspectRatio="none" width="100%" height="100%" overflow="visible" style="display: block;" viewBox="0 0 60 60" fill="none" xmlns="http://www.w3.org/2000/svg">
<g id="Group 2317">
<circle id="Ellipse 6" cx="30" cy="30" r="29.5" fill="url(#paint0_linear_0_4)" fill-opacity="0.3" stroke="url(#paint1_linear_0_4)"/>
<path id="Vector" fill-rule="evenodd" clip-rule="evenodd" d="M18.8571 23.1071C18.8571 22.0179 19.3087 20.9732 20.1124 20.203C20.9161 19.4327 22.0062 19 23.1429 19C24.2795 19 25.3696 19.4327 26.1733 20.203C26.977 20.9732 27.4286 22.0179 27.4286 23.1071C27.4286 24.1964 26.977 25.2411 26.1733 26.0113C25.3696 26.7816 24.2795 27.2143 23.1429 27.2143C22.0062 27.2143 20.9161 26.7816 20.1124 26.0113C19.3087 25.2411 18.8571 24.1964 18.8571 23.1071ZM36.8571 19C35.7205 19 34.6304 19.4327 33.8267 20.203C33.023 20.9732 32.5714 22.0179 32.5714 23.1071C32.5714 24.1964 33.023 25.2411 33.8267 26.0113C34.6304 26.7816 35.7205 27.2143 36.8571 27.2143C37.9938 27.2143 39.0839 26.7816 39.8876 26.0113C40.6913 25.2411 41.1429 24.1964 41.1429 23.1071C41.1429 22.0179 40.6913 20.9732 39.8876 20.203C39.0839 19.4327 37.9938 19 36.8571 19ZM33.624 31.0881C34.2806 29.9119 35.3109 28.8571 36.8571 28.8571C38.4034 28.8571 39.4337 29.9119 40.0903 31.0881C40.7571 32.2792 41.1771 33.8169 41.4514 35.284C41.7257 36.7642 41.8629 38.2362 41.9314 39.332C41.9672 39.901 41.99 40.4706 42 41.0406V41.1769L41.1429 41.1786H42C42 41.3964 41.9097 41.6054 41.7489 41.7594C41.5882 41.9135 41.3702 42 41.1429 42H32.5714C32.3441 42 32.1261 41.9135 31.9653 41.7594C31.8046 41.6054 31.7143 41.3964 31.7143 41.1786V41.0389L31.7229 40.6644C31.7742 38.8612 31.9546 37.0635 32.2629 35.284C32.5371 33.8169 32.9571 32.2792 33.624 31.0881ZM18 29.6786C18 29.4607 18.0903 29.2518 18.2511 29.0977C18.4118 28.9437 18.6298 28.8571 18.8571 28.8571H27.4286C27.6559 28.8571 27.8739 28.9437 28.0347 29.0977C28.1954 29.2518 28.2857 29.4607 28.2857 29.6786V29.8182L28.2771 30.1944C28.265 30.6383 28.245 31.0819 28.2171 31.5251C28.1486 32.6209 28.0114 34.0929 27.7371 35.5731C27.4629 37.0402 27.0429 38.5779 26.376 39.769C25.7194 40.9453 24.6891 42 23.1429 42C21.5966 42 20.5663 40.9453 19.9097 39.769C19.2429 38.5779 18.8229 37.0402 18.5486 35.5731C18.2743 34.0929 18.1371 32.6193 18.0686 31.5235C18.0329 30.9556 18.01 30.3871 18 29.8182V29.6786Z" fill="url(#paint2_linear_0_4)"/>
</g>
<defs>
<linearGradient id="paint0_linear_0_4" x1="6" y1="11" x2="50" y2="51" gradientUnits="userSpaceOnUse">
<stop offset="0.168269" stop-color="white"/>
<stop offset="1" stop-color="#D9D9D9" stop-opacity="0"/>
</linearGradient>
<linearGradient id="paint1_linear_0_4" x1="30" y1="0" x2="30" y2="60" gradientUnits="userSpaceOnUse">
<stop stop-color="white"/>
<stop offset="1" stop-color="white" stop-opacity="0"/>
</linearGradient>
<linearGradient id="paint2_linear_0_4" x1="30" y1="19" x2="30" y2="42" gradientUnits="userSpaceOnUse">
<stop stop-color="#9D161F"/>
<stop offset="1" stop-color="#4D0D32"/>
</linearGradient>
</defs>
</svg>
