<svg width="50" height="50" viewBox="0 0 50 50" fill="none" xmlns="http://www.w3.org/2000/svg">
  <g>
    <circle cx="25" cy="25" r="24.5" fill="white"/>
    <circle cx="25" cy="25" r="24.5" fill="url(#paint0_qchip)"/>
    <circle cx="25" cy="25" r="24.5" stroke="url(#paint1_qchip)"/>
  </g>
  <!-- Figma mingcute:question-fill 20.69×20.69 at 14.66,14.66 -->
  <g transform="translate(14.66 14.66)">
    <g transform="translate(1.436 1.436)">
      <path d="M8.62069 0C13.3819 0 17.2414 3.85948 17.2414 8.62069C17.2414 13.3819 13.3819 17.2414 8.62069 17.2414C3.85948 17.2414 0 13.3819 0 8.62069C0 3.85948 3.85948 0 8.62069 0ZM8.62069 12.069C8.39205 12.069 8.17278 12.1598 8.01111 12.3215C7.84945 12.4831 7.75862 12.7024 7.75862 12.931C7.75862 13.1597 7.84945 13.3789 8.01111 13.5406C8.17278 13.7023 8.39205 13.7931 8.62069 13.7931C8.84932 13.7931 9.06859 13.7023 9.23026 13.5406C9.39193 13.3789 9.48276 13.1597 9.48276 12.931C9.48276 12.7024 9.39193 12.4831 9.23026 12.3215C9.06859 12.1598 8.84932 12.069 8.62069 12.069ZM8.62069 3.87931C7.79189 3.87931 6.99703 4.20855 6.41098 4.7946C5.82493 5.38065 5.49569 6.17551 5.49569 7.00431C5.49569 7.23295 5.58651 7.45222 5.74818 7.61388C5.90985 7.77555 6.12912 7.86638 6.35776 7.86638C6.58639 7.86638 6.80566 7.77555 6.96733 7.61388C7.129 7.45222 7.21983 7.23295 7.21983 7.00431C7.22011 6.75003 7.2896 6.50062 7.42085 6.28283C7.55209 6.06504 7.74014 5.88708 7.96483 5.76803C8.18952 5.64899 8.44238 5.59334 8.69628 5.60706C8.95019 5.62078 9.19558 5.70336 9.40613 5.84593C9.61668 5.9885 9.78445 6.18569 9.89146 6.41635C9.99847 6.64702 10.0407 6.90246 10.0136 7.15529C9.98644 7.40812 9.89102 7.6488 9.73752 7.85152C9.58402 8.05424 9.37824 8.21136 9.14224 8.30603C8.55948 8.53879 7.75862 9.13534 7.75862 10.1293V10.3448C7.75862 10.5735 7.84945 10.7927 8.01111 10.9544C8.17278 11.1161 8.39205 11.2069 8.62069 11.2069C8.84932 11.2069 9.06859 11.1161 9.23026 10.9544C9.39193 10.7927 9.48276 10.5735 9.48276 10.3448C9.48276 10.1345 9.52586 10.0293 9.70776 9.93965L9.78276 9.90517C10.4559 9.63439 11.0138 9.13789 11.361 8.50079C11.7081 7.86369 11.8228 7.12567 11.6855 6.41326C11.5481 5.70085 11.1671 5.05842 10.608 4.5961C10.0488 4.13378 9.34623 3.88037 8.62069 3.87931Z" fill="white"/>
    </g>
  </g>
  <defs>
    <linearGradient id="paint0_qchip" x1="-0.278023" y1="5.35468" x2="61.931" y2="29.5779" gradientUnits="userSpaceOnUse">
      <stop stop-color="#DB0C25"/>
      <stop offset="0.33" stop-color="#E04C29"/>
      <stop offset="1" stop-color="#EFB991"/>
    </linearGradient>
    <linearGradient id="paint1_qchip" x1="25" y1="0" x2="25" y2="50" gradientUnits="userSpaceOnUse">
      <stop stop-color="white"/>
      <stop offset="1" stop-color="white" stop-opacity="0"/>
    </linearGradient>
  </defs>
</svg>
