<svg preserveAspectRatio="none" width="100%" height="100%" overflow="visible" style="display: block;" viewBox="0 0 35 35" fill="none" xmlns="http://www.w3.org/2000/svg">
<g id="Group 2322">
<g id="Ellipse 2">
<circle cx="17.5" cy="17.5" r="17" fill="var(--fill-0, white)"/>
<circle cx="17.5" cy="17.5" r="17" fill="url(#paint0_linear_0_4)"/>
<circle cx="17.5" cy="17.5" r="17" stroke="url(#paint1_linear_0_4)"/>
</g>
<g id="uis:calendar">
<path id="Vector" d="M10.4999 22.4004C10.4999 23.5904 11.4099 24.5004 12.5999 24.5004H22.3999C23.5899 24.5004 24.4999 23.5904 24.4999 22.4004V16.8004H10.4999V22.4004ZM22.3999 11.9004H20.9999V11.2004C20.9999 10.7804 20.7199 10.5004 20.2999 10.5004C19.8799 10.5004 19.5999 10.7804 19.5999 11.2004V11.9004H15.3999V11.2004C15.3999 10.7804 15.1199 10.5004 14.6999 10.5004C14.2799 10.5004 13.9999 10.7804 13.9999 11.2004V11.9004H12.5999C11.4099 11.9004 10.4999 12.8104 10.4999 14.0004V15.4004H24.4999V14.0004C24.4999 12.8104 23.5899 11.9004 22.3999 11.9004Z" fill="var(--fill-0, white)"/>
<g id="90">
<path d="M16.3023 21.1311C16.2272 21.1671 16.1635 21.1916 16.1112 21.2046C16.059 21.2144 15.9969 21.2193 15.925 21.2193C15.7682 21.2193 15.6229 21.1883 15.4889 21.1262C15.355 21.0642 15.239 20.9792 15.141 20.8714C15.043 20.7604 14.9646 20.6313 14.9058 20.4843C14.8503 20.3341 14.8225 20.174 14.8225 20.0041C14.8225 19.8179 14.8519 19.6464 14.9107 19.4896C14.9728 19.3296 15.0577 19.1924 15.1655 19.078C15.2766 18.9637 15.4073 18.8755 15.5575 18.8134C15.7078 18.7481 15.8711 18.7154 16.0475 18.7154C16.2272 18.7154 16.3938 18.7481 16.5473 18.8134C16.7009 18.8755 16.8332 18.9637 16.9442 19.078C17.0553 19.1891 17.1419 19.3214 17.2039 19.4749C17.2693 19.6285 17.3019 19.7951 17.3019 19.9747C17.3019 20.0629 17.2954 20.1462 17.2823 20.2246C17.2693 20.303 17.2464 20.3831 17.2137 20.4647C17.1843 20.5431 17.1435 20.6297 17.0912 20.7244C17.039 20.8159 16.9736 20.9204 16.8952 21.038L15.9838 22.4002H15.4448L16.3023 21.1311ZM16.0622 20.8077C16.1733 20.8077 16.2762 20.7865 16.3709 20.744C16.4657 20.7016 16.5473 20.6444 16.6159 20.5725C16.6878 20.4974 16.7433 20.4092 16.7825 20.3079C16.8217 20.2067 16.8413 20.0956 16.8413 19.9747C16.8413 19.8506 16.8217 19.7379 16.7825 19.6366C16.7433 19.5321 16.6878 19.4439 16.6159 19.372C16.5441 19.2969 16.4591 19.2381 16.3611 19.1956C16.2631 19.1532 16.1553 19.1319 16.0377 19.1319C15.9267 19.1319 15.8254 19.1532 15.7339 19.1956C15.6425 19.2381 15.5624 19.2969 15.4938 19.372C15.4285 19.4439 15.3762 19.5321 15.337 19.6366C15.3011 19.7379 15.2831 19.8506 15.2831 19.9747C15.2831 20.0956 15.3027 20.2083 15.3419 20.3128C15.3811 20.4141 15.435 20.5023 15.5036 20.5774C15.5722 20.6493 15.6539 20.7065 15.7486 20.7489C15.8434 20.7881 15.9479 20.8077 16.0622 20.8077Z" fill="var(--fill-0, #DB0C25)"/>
<path d="M17.5796 20.0237C17.5796 19.6056 17.6841 19.2838 17.8932 19.0584C18.1055 18.8298 18.4044 18.7154 18.7899 18.7154C19.1754 18.7154 19.4743 18.8298 19.6866 19.0584C19.8989 19.2838 20.0051 19.6007 20.0051 20.009V21.1164C20.0051 21.5574 19.9038 21.8923 19.7013 22.1209C19.502 22.3496 19.208 22.4639 18.8193 22.4639C18.4208 22.4639 18.1137 22.3496 17.8981 22.1209C17.6858 21.889 17.5796 21.5542 17.5796 21.1164V20.0237ZM18.0353 21.0723C18.0353 21.7224 18.2917 22.0474 18.8046 22.0474C19.0594 22.0474 19.2472 21.969 19.3681 21.8122C19.489 21.6554 19.5494 21.4104 19.5494 21.0772V20.0776C19.5494 19.4472 19.2979 19.1319 18.7948 19.1319C18.2885 19.1319 18.0353 19.4472 18.0353 20.0776V21.0723Z" fill="var(--fill-0, #DB0C25)"/>
</g>
</g>
</g>
<defs>
<linearGradient id="paint0_linear_0_4" x1="-0.194616" y1="3.74828" x2="43.3517" y2="20.7045" gradientUnits="userSpaceOnUse">
<stop stop-color="#DB0C25"/>
<stop offset="0.33" stop-color="#E04C29"/>
<stop offset="1" stop-color="#EFB991"/>
</linearGradient>
<linearGradient id="paint1_linear_0_4" x1="17.5" y1="0" x2="17.5" y2="35" gradientUnits="userSpaceOnUse">
<stop stop-color="white"/>
<stop offset="1" stop-color="white" stop-opacity="0"/>
</linearGradient>
</defs>
</svg>
