<svg preserveAspectRatio="none" width="100%" height="100%" overflow="visible" style="display: block;" viewBox="0 0 60 60" fill="none" xmlns="http://www.w3.org/2000/svg">
<g id="Group 2314">
<circle id="Ellipse 3" cx="30" cy="30" r="29.5" fill="url(#paint0_linear_0_4)" fill-opacity="0.3" stroke="url(#paint1_linear_0_4)"/>
<path id="Vector" d="M27.089 19.7931C27.8491 19.7931 28.5547 20.0334 29.1356 20.4419V41.2069C28.4616 41.7233 27.6404 42.0017 26.7966 42H26.5549C25.7242 41.9999 24.9152 41.7299 24.2459 41.2292C23.5767 40.7286 23.0821 40.0236 22.8344 39.217L22.7026 38.7855C21.6767 38.6417 20.7365 38.125 20.056 37.3309C19.3754 36.5368 19.0003 35.519 19 34.4655V34.069C18.9999 33.2558 19.2047 32.4562 19.5948 31.7464C19.9849 31.0367 20.5473 30.4404 21.2283 30.0146C20.6125 29.5079 20.163 28.8224 19.9397 28.0494C19.7165 27.2763 19.73 26.4525 19.9785 25.6874C20.2269 24.9224 20.6986 24.2525 21.3307 23.767C21.9628 23.2814 22.7252 23.0032 23.5166 22.9695C23.6334 22.0899 24.0598 21.2833 24.7167 20.6992C25.3736 20.1151 26.2165 19.7932 27.089 19.7931ZM30.6949 24.7738C30.8041 24.8452 30.921 24.9033 31.0458 24.9483L32.379 25.3924C32.6051 25.4662 32.8109 25.5939 32.9793 25.7652C32.9793 25.7937 33.0105 25.8223 33.0448 25.8524C33.0668 25.8713 33.0867 25.8926 33.1041 25.9159C33.2117 26.0528 33.2936 26.2087 33.3458 26.3759L33.7746 27.7241C33.8576 27.9782 33.998 28.209 34.1846 28.3979C34.3712 28.5868 34.5987 28.7286 34.8488 28.8119C35.099 28.8952 35.3649 28.9176 35.6252 28.8775C35.8854 28.8373 36.1328 28.7357 36.3474 28.5807C36.2251 28.7984 36.1581 29.0438 36.1525 29.2945C36.1525 29.5982 36.2445 29.8949 36.4176 30.1431C36.5923 30.3913 36.8371 30.5793 37.1193 30.6824L37.899 30.9283C37.9406 30.9463 37.9778 30.9734 38.0081 31.0076C38.0426 31.0393 38.067 31.0807 38.0783 31.1265L38.3122 31.8483C38.4143 32.1449 38.6022 32.405 38.8502 32.5938C39.0972 32.7688 39.3911 32.8626 39.6922 32.8626C39.9933 32.8626 40.2871 32.7688 40.5342 32.5938L40.5865 32.5502C40.7483 33.0396 40.8307 33.5526 40.8305 34.069V34.4655C40.8302 35.519 40.4551 36.5368 39.7745 37.3309C39.094 38.125 38.1538 38.6417 37.1279 38.7855L36.9961 39.217C36.7484 40.0236 36.2538 40.7286 35.5846 41.2292C34.9153 41.7299 34.1063 41.9999 33.2756 42H33.0339C32.1901 42.0015 31.3688 41.7227 30.6949 41.2061V24.7738ZM39.6462 26.931C39.7049 26.9306 39.7623 26.9488 39.8103 26.9832C39.8582 27.0177 39.8944 27.0665 39.9136 27.123L40.146 27.851C40.219 28.0721 40.3416 28.273 40.5039 28.4377C40.6663 28.6024 40.864 28.7266 41.0815 28.8004L41.7965 29.0383L41.8113 29.0407C41.8525 29.0556 41.8898 29.08 41.9202 29.112C41.9506 29.1439 41.9733 29.1826 41.9866 29.225C41.9999 29.2674 42.0034 29.3123 41.9967 29.3563C41.9901 29.4002 41.9736 29.4421 41.9485 29.4785C41.9147 29.5271 41.8667 29.5637 41.8113 29.5832L41.094 29.8203C40.8769 29.8944 40.6796 30.0187 40.5177 30.1834C40.3558 30.3481 40.2336 30.5488 40.1608 30.7697L39.9269 31.4977C39.9071 31.5534 39.871 31.6016 39.8233 31.6357C39.7757 31.6697 39.7189 31.688 39.6606 31.688C39.6024 31.688 39.5456 31.6697 39.4979 31.6357C39.4503 31.6016 39.4141 31.5534 39.3944 31.4977L39.1612 30.7697C39.0888 30.5479 38.9666 30.3463 38.8043 30.1809C38.6421 30.0154 38.4442 29.8906 38.2264 29.8163L37.5107 29.58C37.4695 29.5651 37.4322 29.5407 37.4018 29.5087C37.3714 29.4768 37.3487 29.4381 37.3354 29.3957C37.3221 29.3533 37.3187 29.3084 37.3253 29.2644C37.3319 29.2204 37.3484 29.1786 37.3735 29.1422C37.4074 29.0936 37.4553 29.057 37.5107 29.0375L38.2264 28.8004C38.4411 28.7245 38.6357 28.5994 38.7952 28.4348C38.9548 28.2702 39.0749 28.0705 39.1464 27.851L39.3803 27.123C39.3994 27.0669 39.4352 27.0183 39.4827 26.9839C39.5302 26.9495 39.5871 26.9311 39.6454 26.931M35.3471 19C35.4542 19.0005 35.5585 19.0345 35.6459 19.0974C35.7334 19.1602 35.7997 19.2489 35.836 19.3513L36.2625 20.6861C36.3954 21.0919 36.6195 21.4606 36.917 21.763C37.2145 22.0653 37.5771 22.2929 37.9762 22.4278L39.2891 22.8616L39.3148 22.868C39.4157 22.9047 39.503 22.9722 39.565 23.0611C39.6269 23.1501 39.6604 23.2562 39.661 23.3652C39.661 23.4744 39.6277 23.5808 39.5657 23.6699C39.5037 23.7589 39.416 23.8262 39.3148 23.8625L38.0019 24.2963C37.603 24.4313 37.2405 24.659 36.9431 24.9613C36.6458 25.2636 36.4218 25.6323 36.289 26.038L35.8617 27.3728C35.8264 27.4759 35.7603 27.5652 35.6727 27.6282C35.585 27.6912 35.4802 27.7247 35.3729 27.7241C35.2657 27.7242 35.1611 27.6904 35.0736 27.6275C34.986 27.5645 34.9198 27.4756 34.884 27.3728L34.4568 26.038C34.3247 25.6311 34.1011 25.2612 33.8037 24.9577C33.5064 24.6542 33.1434 24.4256 32.7439 24.29L31.4309 23.8562C31.33 23.8194 31.2427 23.752 31.1808 23.663C31.1189 23.5741 31.0853 23.4679 31.0847 23.3589C31.0848 23.2498 31.1181 23.1433 31.1801 23.0543C31.2421 22.9652 31.3297 22.8979 31.4309 22.8616L32.7439 22.4278C33.1325 22.2913 33.4855 22.0665 33.7759 21.7705C34.0664 21.4745 34.2867 21.1151 34.4201 20.7194L34.431 20.6861L34.8575 19.3513C34.8933 19.2484 34.9597 19.1594 35.0474 19.0964C35.1351 19.0335 35.2398 18.9998 35.3471 19Z" fill="url(#paint2_linear_0_4)"/>
</g>
<defs>
<linearGradient id="paint0_linear_0_4" x1="6" y1="11" x2="50" y2="51" gradientUnits="userSpaceOnUse">
<stop offset="0.168269" stop-color="white"/>
<stop offset="1" stop-color="#D9D9D9" stop-opacity="0"/>
</linearGradient>
<linearGradient id="paint1_linear_0_4" x1="30" y1="0" x2="30" y2="60" gradientUnits="userSpaceOnUse">
<stop stop-color="white"/>
<stop offset="1" stop-color="white" stop-opacity="0"/>
</linearGradient>
<linearGradient id="paint2_linear_0_4" x1="30.5" y1="19" x2="30.5" y2="42" gradientUnits="userSpaceOnUse">
<stop stop-color="#9D161F"/>
<stop offset="1" stop-color="#4D0D32"/>
</linearGradient>
</defs>
</svg>
