<svg preserveAspectRatio="none" width="100%" height="100%" overflow="visible" style="display: block;" viewBox="0 0 27.6846 23.334" fill="none" xmlns="http://www.w3.org/2000/svg">
<g id="Group 2310">
<g id="Union">
<path d="M19.6113 0.00390625C19.826 0.0212142 20.0321 0.0975846 20.2061 0.224609L26.751 5.13477C27.0184 5.33529 27.2403 5.59033 27.4004 5.88379C27.5605 6.17736 27.655 6.50241 27.6787 6.83594C27.7024 7.16946 27.6541 7.50415 27.5371 7.81738C27.4201 8.13054 27.2374 8.41504 27.001 8.65137L13.1016 23.334H6.68457C6.06574 23.334 5.47176 23.0889 5.03418 22.6514C4.5966 22.2138 4.35157 21.6198 4.35156 21.001C4.35156 20.3821 4.59659 19.7882 5.03418 19.3506C5.47176 18.913 6.06574 18.668 6.68457 18.668C8.92219 18.6679 11.1707 15.6262 11.3516 8.16797C11.3514 7.92445 11.4268 7.6864 11.5684 7.48828C11.7099 7.29022 11.9102 7.14119 12.1406 7.0625L16.7246 5.72461C17.1965 5.57457 17.609 5.27855 17.9014 4.87891C18.1937 4.47914 18.3516 3.99625 18.3516 3.50098V1.16797C18.3514 0.952479 18.4108 0.740349 18.5234 0.556641C18.636 0.373155 18.7973 0.224503 18.9893 0.126953C19.1813 0.0293734 19.3966 -0.0133475 19.6113 0.00390625ZM5.18457 10.6934C5.50174 10.3813 5.91182 10.1876 6.35059 10.1426C6.78943 10.0976 7.23312 10.2037 7.6123 10.4443C7.99153 10.6851 8.28539 11.0476 8.44824 11.4746C8.61099 11.9016 8.63351 12.3699 8.5127 12.8066C8.39183 13.2435 8.13389 13.6245 7.7793 13.8906C7.42478 14.1567 6.99343 14.2928 6.55176 14.2783C6.10998 14.2638 5.68239 14.0997 5.33594 13.8105C4.98946 13.5213 4.74269 13.1231 4.63477 12.6787L3.28809 7.12695L0.368164 7.83496L0 6.32031L3.89453 5.37598L5.18457 10.6934Z" fill="var(--fill-0, white)"/>
<path d="M19.6113 0.00390625C19.826 0.0212142 20.0321 0.0975846 20.2061 0.224609L26.751 5.13477C27.0184 5.33529 27.2403 5.59033 27.4004 5.88379C27.5605 6.17736 27.655 6.50241 27.6787 6.83594C27.7024 7.16946 27.6541 7.50415 27.5371 7.81738C27.4201 8.13054 27.2374 8.41504 27.001 8.65137L13.1016 23.334H6.68457C6.06574 23.334 5.47176 23.0889 5.03418 22.6514C4.5966 22.2138 4.35157 21.6198 4.35156 21.001C4.35156 20.3821 4.59659 19.7882 5.03418 19.3506C5.47176 18.913 6.06574 18.668 6.68457 18.668C8.92219 18.6679 11.1707 15.6262 11.3516 8.16797C11.3514 7.92445 11.4268 7.6864 11.5684 7.48828C11.7099 7.29022 11.9102 7.14119 12.1406 7.0625L16.7246 5.72461C17.1965 5.57457 17.609 5.27855 17.9014 4.87891C18.1937 4.47914 18.3516 3.99625 18.3516 3.50098V1.16797C18.3514 0.952479 18.4108 0.740349 18.5234 0.556641C18.636 0.373155 18.7973 0.224503 18.9893 0.126953C19.1813 0.0293734 19.3966 -0.0133475 19.6113 0.00390625ZM5.18457 10.6934C5.50174 10.3813 5.91182 10.1876 6.35059 10.1426C6.78943 10.0976 7.23312 10.2037 7.6123 10.4443C7.99153 10.6851 8.28539 11.0476 8.44824 11.4746C8.61099 11.9016 8.63351 12.3699 8.5127 12.8066C8.39183 13.2435 8.13389 13.6245 7.7793 13.8906C7.42478 14.1567 6.99343 14.2928 6.55176 14.2783C6.10998 14.2638 5.68239 14.0997 5.33594 13.8105C4.98946 13.5213 4.74269 13.1231 4.63477 12.6787L3.28809 7.12695L0.368164 7.83496L0 6.32031L3.89453 5.37598L5.18457 10.6934Z" fill="url(#paint0_linear_0_4)"/>
</g>
</g>
<defs>
<linearGradient id="paint0_linear_0_4" x1="13.8423" y1="-2.2463e-09" x2="13.8423" y2="23.3338" gradientUnits="userSpaceOnUse">
<stop stop-color="#9D161F"/>
<stop offset="1" stop-color="#4D0D32"/>
</linearGradient>
</defs>
</svg>
