<svg preserveAspectRatio="none" width="100%" height="100%" overflow="visible" style="display: block;" viewBox="0 0 58 58" fill="none" xmlns="http://www.w3.org/2000/svg">
<g id="Group 2312">
<circle id="Ellipse 2" cx="29" cy="29" r="28.5" fill="url(#paint0_linear_0_4)" fill-opacity="0.3" stroke="url(#paint1_linear_0_4)"/>
<g id="uis:calendar">
<path id="Vector" d="M19 36C19 37.7 20.3 39 22 39H36C37.7 39 39 37.7 39 36V28H19V36ZM36 21H34V20C34 19.4 33.6 19 33 19C32.4 19 32 19.4 32 20V21H26V20C26 19.4 25.6 19 25 19C24.4 19 24 19.4 24 20V21H22C20.3 21 19 22.3 19 24V26H39V24C39 22.3 37.7 21 36 21Z" fill="var(--fill-0, white)"/>
<g id="90">
<path d="M27.289 34.187C27.1817 34.2383 27.0907 34.2733 27.016 34.292C26.9413 34.306 26.8527 34.313 26.75 34.313C26.526 34.313 26.3183 34.2687 26.127 34.18C25.9357 34.0913 25.77 33.97 25.63 33.816C25.49 33.6573 25.378 33.473 25.294 33.263C25.2147 33.0483 25.175 32.8197 25.175 32.577C25.175 32.311 25.217 32.066 25.301 31.842C25.3897 31.6133 25.511 31.4173 25.665 31.254C25.8237 31.0907 26.0103 30.9647 26.225 30.876C26.4397 30.7827 26.673 30.736 26.925 30.736C27.1817 30.736 27.4197 30.7827 27.639 30.876C27.8583 30.9647 28.0473 31.0907 28.206 31.254C28.3647 31.4127 28.4883 31.6017 28.577 31.821C28.6703 32.0403 28.717 32.2783 28.717 32.535C28.717 32.661 28.7077 32.78 28.689 32.892C28.6703 33.004 28.6377 33.1183 28.591 33.235C28.549 33.347 28.4907 33.4707 28.416 33.606C28.3413 33.7367 28.248 33.886 28.136 34.054L26.834 36H26.064L27.289 34.187ZM26.946 33.725C27.1047 33.725 27.2517 33.6947 27.387 33.634C27.5223 33.5733 27.639 33.4917 27.737 33.389C27.8397 33.2817 27.919 33.1557 27.975 33.011C28.031 32.8663 28.059 32.7077 28.059 32.535C28.059 32.3577 28.031 32.1967 27.975 32.052C27.919 31.9027 27.8397 31.7767 27.737 31.674C27.6343 31.5667 27.513 31.4827 27.373 31.422C27.233 31.3613 27.079 31.331 26.911 31.331C26.7523 31.331 26.6077 31.3613 26.477 31.422C26.3463 31.4827 26.232 31.5667 26.134 31.674C26.0407 31.7767 25.966 31.9027 25.91 32.052C25.8587 32.1967 25.833 32.3577 25.833 32.535C25.833 32.7077 25.861 32.8687 25.917 33.018C25.973 33.1627 26.05 33.2887 26.148 33.396C26.246 33.4987 26.3627 33.5803 26.498 33.641C26.6333 33.697 26.7827 33.725 26.946 33.725Z" fill="var(--fill-0, #DB0C25)"/>
<path d="M29.1136 32.605C29.1136 32.0077 29.263 31.548 29.5616 31.226C29.865 30.8993 30.292 30.736 30.8426 30.736C31.3933 30.736 31.8203 30.8993 32.1236 31.226C32.427 31.548 32.5786 32.0007 32.5786 32.584V34.166C32.5786 34.796 32.434 35.2743 32.1446 35.601C31.86 35.9277 31.44 36.091 30.8846 36.091C30.3153 36.091 29.8766 35.9277 29.5686 35.601C29.2653 35.2697 29.1136 34.7913 29.1136 34.166V32.605ZM29.7646 34.103C29.7646 35.0317 30.131 35.496 30.8636 35.496C31.2276 35.496 31.496 35.384 31.6686 35.16C31.8413 34.936 31.9276 34.586 31.9276 34.11V32.682C31.9276 31.7813 31.5683 31.331 30.8496 31.331C30.1263 31.331 29.7646 31.7813 29.7646 32.682V34.103Z" fill="var(--fill-0, #DB0C25)"/>
</g>
</g>
</g>
<defs>
<linearGradient id="paint0_linear_0_4" x1="5.8" y1="10.6333" x2="48.3333" y2="49.3" gradientUnits="userSpaceOnUse">
<stop offset="0.168269" stop-color="white"/>
<stop offset="1" stop-color="#D9D9D9" stop-opacity="0"/>
</linearGradient>
<linearGradient id="paint1_linear_0_4" x1="29" y1="0" x2="29" y2="58" gradientUnits="userSpaceOnUse">
<stop stop-color="white"/>
<stop offset="1" stop-color="white" stop-opacity="0"/>
</linearGradient>
</defs>
</svg>
