<svg width="30" height="30" viewBox="0 0 30 30" fill="none" xmlns="http://www.w3.org/2000/svg">
  <circle cx="15" cy="15" r="14" stroke="white" stroke-opacity="0.5" stroke-width="2" fill="rgba(255,255,255,0.2)"/>
  <g opacity="0.9">
    <path d="M9.828 18.621C9.828 19.5 10.5 20.172 11.379 20.172H18.621C19.5 20.172 20.172 19.5 20.172 18.621V14.483H9.828V18.621ZM18.621 10.862H17.586V10.345C17.586 10.034 17.379 9.828 17.069 9.828C16.759 9.828 16.552 10.034 16.552 10.345V10.862H13.448V10.345C13.448 10.034 13.241 9.828 12.931 9.828C12.621 9.828 12.414 10.034 12.414 10.345V10.862H11.379C10.5 10.862 9.828 11.534 9.828 12.414V13.448H20.172V12.414C20.172 11.534 19.5 10.862 18.621 10.862Z" fill="white"/>
    <path d="M14.115 17.683C14.06 17.71 14.013 17.728 13.974 17.737C13.935 17.745 13.89 17.748 13.836 17.748C13.721 17.748 13.613 17.725 13.514 17.679C13.415 17.634 13.33 17.571 13.257 17.491C13.185 17.409 13.127 17.314 13.083 17.205C13.042 17.094 13.022 16.976 13.022 16.85C13.022 16.713 13.044 16.586 13.087 16.47C13.133 16.352 13.196 16.25 13.275 16.166C13.357 16.081 13.454 16.016 13.565 15.97C13.676 15.922 13.797 15.898 13.927 15.898C14.06 15.898 14.183 15.922 14.296 15.97C14.41 16.016 14.507 16.081 14.59 16.166C14.672 16.248 14.736 16.346 14.781 16.459C14.83 16.573 14.854 16.696 14.854 16.829C14.854 16.894 14.849 16.955 14.839 17.013C14.83 17.071 14.813 17.13 14.789 17.191C14.767 17.249 14.737 17.312 14.698 17.382C14.66 17.45 14.611 17.527 14.553 17.614L13.88 18.621H13.482L14.115 17.683ZM13.938 17.444C14.02 17.444 14.096 17.428 14.166 17.397C14.236 17.366 14.296 17.323 14.347 17.27C14.4 17.215 14.441 17.15 14.47 17.075C14.499 17 14.514 16.918 14.514 16.829C14.514 16.737 14.499 16.654 14.47 16.579C14.441 16.501 14.4 16.436 14.347 16.383C14.294 16.328 14.231 16.284 14.159 16.253C14.086 16.221 14.007 16.206 13.92 16.206C13.838 16.206 13.763 16.221 13.695 16.253C13.628 16.284 13.569 16.328 13.518 16.383C13.47 16.436 13.431 16.501 13.402 16.579C13.375 16.654 13.362 16.737 13.362 16.829C13.362 16.918 13.377 17.001 13.406 17.078C13.435 17.153 13.474 17.218 13.525 17.274C13.576 17.327 13.636 17.369 13.706 17.401C13.776 17.43 13.853 17.444 13.938 17.444Z" fill="#DB0C25"/>
    <path d="M15.059 16.865C15.059 16.556 15.136 16.318 15.291 16.151C15.448 15.982 15.668 15.898 15.953 15.898C16.238 15.898 16.459 15.982 16.616 16.151C16.773 16.318 16.851 16.552 16.851 16.854V17.672C16.851 17.998 16.776 18.245 16.627 18.414C16.48 18.583 16.262 18.668 15.975 18.668C15.681 18.668 15.454 18.583 15.294 18.414C15.137 18.243 15.059 17.996 15.059 17.672V16.865ZM15.396 17.64C15.396 18.12 15.585 18.36 15.964 18.36C16.152 18.36 16.291 18.302 16.381 18.186C16.47 18.07 16.515 17.889 16.515 17.643V16.905C16.515 16.439 16.329 16.206 15.957 16.206C15.583 16.206 15.396 16.439 15.396 16.905V17.64Z" fill="#DB0C25"/>
  </g>
</svg>
