<svg preserveAspectRatio="none" width="100%" height="100%" overflow="visible" style="display: block;" viewBox="0 0 60 60" fill="none" xmlns="http://www.w3.org/2000/svg">
<g id="Group 2315">
<circle id="Ellipse 4" cx="30" cy="30" r="29.5" fill="url(#paint0_linear_0_4)" fill-opacity="0.3" stroke="url(#paint1_linear_0_4)"/>
<path id="Vector" d="M23.4 17C25.1 17 26.4252 17.7438 27.3756 19.2313C28.326 20.7188 28.8008 22.3387 28.8 24.0909C28.8 24.8985 28.7148 25.6667 28.5444 26.3955C28.374 27.1242 28.1792 27.7742 27.96 28.3455L19.41 30.0295C19.11 29.4583 18.8 28.6657 18.48 27.6517C18.16 26.6377 18 25.4508 18 24.0909C18 22.0621 18.51 20.3729 19.53 19.0233C20.55 17.6736 21.84 16.9992 23.4 17ZM25.05 37.0909C23.63 37.0909 22.5252 36.6036 21.7356 35.629C20.946 34.6544 20.5008 33.5265 20.4 32.2455L28.14 30.7091C28.3 31.0439 28.45 31.4233 28.59 31.8472C28.73 32.2711 28.8 32.7091 28.8 33.1614C28.8 34.2841 28.4448 35.2197 27.7344 35.9682C27.024 36.7167 26.1284 37.0909 25.05 37.0909ZM36.6 22.9091C38.16 22.9091 39.45 23.5839 40.47 24.9335C41.49 26.2832 42 27.972 42 30C42 31.3591 41.84 32.546 41.52 33.5608C41.2 34.5756 40.89 35.3682 40.59 35.9386L32.04 34.2545C31.82 33.6833 31.6252 33.0333 31.4556 32.3045C31.286 31.5758 31.2008 30.8076 31.2 30C31.2 28.247 31.6752 26.6271 32.6256 25.1404C33.576 23.6536 34.9008 22.9099 36.6 22.9091ZM34.95 43C33.87 43 32.9748 42.6258 32.2644 41.8773C31.554 41.1288 31.1992 40.1932 31.2 39.0705C31.2 38.6174 31.27 38.1794 31.41 37.7563C31.55 37.3332 31.7 36.9538 31.86 36.6182L39.57 38.1545C39.47 39.4348 39.03 40.5627 38.25 41.5381C37.47 42.5135 36.37 43.0008 34.95 43Z" fill="url(#paint2_linear_0_4)"/>
</g>
<defs>
<linearGradient id="paint0_linear_0_4" x1="6" y1="11" x2="50" y2="51" gradientUnits="userSpaceOnUse">
<stop offset="0.168269" stop-color="white"/>
<stop offset="1" stop-color="#D9D9D9" stop-opacity="0"/>
</linearGradient>
<linearGradient id="paint1_linear_0_4" x1="30" y1="0" x2="30" y2="60" gradientUnits="userSpaceOnUse">
<stop stop-color="white"/>
<stop offset="1" stop-color="white" stop-opacity="0"/>
</linearGradient>
<linearGradient id="paint2_linear_0_4" x1="30" y1="17" x2="30" y2="43" gradientUnits="userSpaceOnUse">
<stop stop-color="#9D161F"/>
<stop offset="1" stop-color="#4D0D32"/>
</linearGradient>
</defs>
</svg>
