<svg preserveAspectRatio="none" width="100%" height="100%" overflow="visible" style="display: block;" viewBox="0 0 34 34" fill="none" xmlns="http://www.w3.org/2000/svg">
<g id="Background">
<rect width="34" height="34" rx="17" fill="var(--fill-0, #F4F4F6)"/>
<g id="Vector">
<path fill-rule="evenodd" clip-rule="evenodd" d="M14.3405 9L14.5266 9.69151L15.1301 11.935L15.3162 12.6265L13.9281 12.9973L13.7413 12.3058L13.1385 10.0616L12.9524 9.37081L14.3405 9ZM9 14.3209L9.69406 14.5063L11.9458 15.1076L12.6399 15.2923L13.012 13.9093L12.318 13.7246L10.0662 13.1233L9.37218 12.9372L9 14.3209ZM14.8945 14.9323L16.9156 23.9935L19.1896 21.7278L22.4731 25L25 22.4845L21.7158 19.2131L23.9891 16.9474L14.8945 14.9323ZM11.3444 19.7184L10.8365 20.2246L9.82051 19.2123L10.3285 18.7062L11.9767 17.0641L12.4847 16.5572L13.5006 17.5702L12.9926 18.0763L11.3444 19.7184ZM19.7586 11.3358L20.2666 10.8297L19.2507 9.81679L18.7427 10.3236L17.0938 11.9658L16.5858 12.4719L17.6025 13.4841L18.1104 12.978L19.7586 11.3358Z" fill="var(--fill-0, black)"/>
<path fill-rule="evenodd" clip-rule="evenodd" d="M14.3405 9L14.5266 9.69151L15.1301 11.935L15.3162 12.6265L13.9281 12.9973L13.7413 12.3058L13.1385 10.0616L12.9524 9.37081L14.3405 9ZM9 14.3209L9.69406 14.5063L11.9458 15.1076L12.6399 15.2923L13.012 13.9093L12.318 13.7246L10.0662 13.1233L9.37218 12.9372L9 14.3209ZM14.8945 14.9323L16.9156 23.9935L19.1896 21.7278L22.4731 25L25 22.4845L21.7158 19.2131L23.9891 16.9474L14.8945 14.9323ZM11.3444 19.7184L10.8365 20.2246L9.82051 19.2123L10.3285 18.7062L11.9767 17.0641L12.4847 16.5572L13.5006 17.5702L12.9926 18.0763L11.3444 19.7184ZM19.7586 11.3358L20.2666 10.8297L19.2507 9.81679L18.7427 10.3236L17.0938 11.9658L16.5858 12.4719L17.6025 13.4841L18.1104 12.978L19.7586 11.3358Z" fill="url(#paint0_linear_0_4)"/>
</g>
</g>
<defs>
<linearGradient id="paint0_linear_0_4" x1="9" y1="9" x2="25" y2="25" gradientUnits="userSpaceOnUse">
<stop stop-color="#DB0C25"/>
<stop offset="0.5" stop-color="#E04C29"/>
<stop offset="1" stop-color="#EFB991"/>
</linearGradient>
</defs>
</svg>
