<svg preserveAspectRatio="none" width="100%" height="100%" overflow="visible" style="display: block;" viewBox="0 0 60 60" fill="none" xmlns="http://www.w3.org/2000/svg">
<g id="Group 2319">
<circle id="Ellipse 7" cx="30" cy="30" r="29.5" fill="url(#paint0_linear_musicality)" fill-opacity="0.3" stroke="url(#paint1_linear_musicality)"/>
<path d="M24.0735 18.3361C23.8588 18.3534 23.6527 18.4298 23.4788 18.5568L16.9338 23.4669C16.6664 23.6675 16.4445 23.9225 16.2844 24.216C16.1244 24.5095 16.0298 24.8346 16.0061 25.1681C15.9824 25.5016 16.0307 25.8363 16.1477 26.1496C16.2647 26.4627 16.4474 26.7472 16.6838 26.9835L30.5833 41.6662H37.0002C37.6191 41.6662 38.2131 41.4211 38.6506 40.9835C39.0882 40.546 39.3332 39.952 39.3333 39.3331C39.3333 38.7143 39.0882 38.1203 38.6506 37.6828C38.2131 37.2452 37.6191 37.0001 37.0002 37.0001C34.7626 37.0001 32.5141 33.9584 32.3333 26.5001C32.3334 26.2566 32.2581 26.0186 32.1165 25.8204C31.9749 25.6224 31.7746 25.4734 31.5442 25.3947L26.9602 24.0568C26.4883 23.9067 26.0758 23.6107 25.7834 23.2111C25.4911 22.8113 25.3333 22.3284 25.3333 21.8331V19.5001C25.3334 19.2846 25.274 19.0725 25.1614 18.8888C25.0488 18.7053 24.8875 18.5567 24.6956 18.4591C24.5035 18.3615 24.2882 18.3188 24.0735 18.3361ZM38.5002 29.0255C38.1831 28.7135 37.773 28.5198 37.3342 28.4747C36.8954 28.4298 36.4517 28.5358 36.0725 28.7765C35.6933 29.0172 35.3994 29.3798 35.2366 29.8068C35.0738 30.2337 35.0513 30.702 35.1721 31.1388C35.293 31.5756 35.5509 31.9566 35.9055 32.2228C36.26 32.4888 36.6914 32.6249 37.1331 32.6105C37.5748 32.596 38.0024 32.4319 38.3489 32.1427C38.6954 31.8535 38.9421 31.4553 39.05 31.0109L40.3967 25.4591L43.3167 26.1671L43.6848 24.6525L39.7903 23.7081L38.5002 29.0255Z" fill="url(#paint2_linear_musicality)"/>
</g>
<defs>
<linearGradient id="paint0_linear_musicality" x1="6" y1="11" x2="50" y2="51" gradientUnits="userSpaceOnUse">
<stop offset="0.168269" stop-color="white"/>
<stop offset="1" stop-color="#D9D9D9" stop-opacity="0"/>
</linearGradient>
<linearGradient id="paint1_linear_musicality" x1="30" y1="0" x2="30" y2="60" gradientUnits="userSpaceOnUse">
<stop stop-color="white"/>
<stop offset="1" stop-color="white" stop-opacity="0"/>
</linearGradient>
<linearGradient id="paint2_linear_musicality" x1="29.8425" y1="18.3323" x2="29.8425" y2="41.6662" gradientUnits="userSpaceOnUse">
<stop stop-color="#9D161F"/>
<stop offset="1" stop-color="#4D0D32"/>
</linearGradient>
</defs>
</svg>
