<svg preserveAspectRatio="none" width="100%" height="100%" overflow="visible" style="display: block;" viewBox="0 0 20 20" fill="none" xmlns="http://www.w3.org/2000/svg">
<g id="fluent:brain-sparkle-32-filled">
<path id="Vector" d="M7.73438 1.25C8.34375 1.25 8.90937 1.43938 9.375 1.76125V18.125C8.83472 18.5319 8.17638 18.7514 7.5 18.75H7.30625C6.64031 18.7499 5.9918 18.5371 5.45529 18.1426C4.91878 17.7481 4.52233 17.1925 4.32375 16.5569L4.21813 16.2169C3.39569 16.1035 2.64207 15.6963 2.09648 15.0706C1.5509 14.4448 1.25022 13.6427 1.25 12.8125V12.5C1.24995 11.8592 1.41411 11.2291 1.72681 10.6698C2.03952 10.1104 2.49034 9.64057 3.03625 9.305C2.5426 8.90569 2.18231 8.36548 2.00332 7.75629C1.82434 7.14711 1.83517 6.49786 2.03436 5.89499C2.23356 5.29211 2.61167 4.76422 3.11835 4.38158C3.62503 3.99895 4.23625 3.77973 4.87063 3.75313C4.96425 3.06 5.30607 2.42435 5.83268 1.96405C6.35929 1.50376 7.03496 1.25006 7.73438 1.25ZM10.625 5.175C10.7125 5.23125 10.8063 5.27708 10.9063 5.3125L11.975 5.6625C12.1562 5.72063 12.3213 5.82125 12.4563 5.95625C12.4563 5.97875 12.4812 6.00125 12.5087 6.025C12.5264 6.03986 12.5423 6.05663 12.5563 6.075C12.6425 6.18291 12.7082 6.30579 12.75 6.4375L13.0938 7.5C13.1603 7.70024 13.2729 7.88209 13.4224 8.03096C13.572 8.17982 13.7544 8.29155 13.9549 8.35718C14.1555 8.42282 14.3686 8.44053 14.5772 8.40889C14.7859 8.37725 14.9842 8.29714 15.1562 8.175C15.0582 8.34658 15.0045 8.53992 15 8.7375C15 8.97687 15.0738 9.21062 15.2125 9.40625C15.3525 9.60187 15.5487 9.75 15.775 9.83125L16.4 10.025C16.4334 10.0392 16.4632 10.0606 16.4875 10.0875C16.5151 10.1125 16.5347 10.1451 16.5437 10.1813L16.7313 10.75C16.8131 10.9838 16.9637 11.1887 17.1625 11.3375C17.3606 11.4754 17.5961 11.5494 17.8375 11.5494C18.0789 11.5494 18.3144 11.4754 18.5125 11.3375L18.5544 11.3031C18.6841 11.6888 18.7502 12.0931 18.75 12.5V12.8125C18.7498 13.6427 18.4491 14.4448 17.9035 15.0706C17.3579 15.6963 16.6043 16.1035 15.7819 16.2169L15.6763 16.5569C15.4777 17.1925 15.0812 17.7481 14.5447 18.1426C14.0082 18.5371 13.3597 18.7499 12.6937 18.75H12.5C11.8236 18.7512 11.1652 18.5315 10.625 18.1244V5.175ZM17.8006 6.875C17.8477 6.87462 17.8937 6.88901 17.9321 6.91615C17.9706 6.94328 17.9996 6.98179 18.015 7.02625L18.2012 7.6C18.2598 7.77424 18.3581 7.93251 18.4882 8.06233C18.6184 8.19215 18.7769 8.28998 18.9513 8.34813L19.5244 8.53562L19.5362 8.5375C19.5693 8.54925 19.5991 8.56847 19.6235 8.59366C19.6479 8.61885 19.6661 8.64934 19.6768 8.68274C19.6874 8.71613 19.6902 8.75154 19.6849 8.78619C19.6796 8.82084 19.6664 8.8538 19.6463 8.8825C19.6191 8.9208 19.5806 8.94965 19.5362 8.965L18.9612 9.15187C18.7872 9.21026 18.6291 9.30821 18.4993 9.43802C18.3695 9.56782 18.2715 9.72596 18.2131 9.9L18.0256 10.4737C18.0098 10.5177 17.9808 10.5556 17.9426 10.5825C17.9044 10.6093 17.8589 10.6237 17.8122 10.6237C17.7655 10.6237 17.72 10.6093 17.6818 10.5825C17.6436 10.5556 17.6146 10.5177 17.5988 10.4737L17.4119 9.9C17.3538 9.72525 17.2558 9.5664 17.1258 9.43602C16.9957 9.30564 16.8371 9.20729 16.6625 9.14875L16.0888 8.9625C16.0557 8.95075 16.0259 8.93153 16.0015 8.90634C15.9771 8.88115 15.9589 8.85066 15.9482 8.81726C15.9376 8.78387 15.9348 8.74846 15.9401 8.71381C15.9454 8.67916 15.9586 8.6462 15.9787 8.6175C16.0059 8.5792 16.0444 8.55035 16.0888 8.535L16.6625 8.34813C16.8346 8.28835 16.9906 8.18978 17.1185 8.06005C17.2464 7.93032 17.3427 7.77291 17.4 7.6L17.5875 7.02625C17.6028 6.98209 17.6315 6.9438 17.6696 6.91669C17.7077 6.88959 17.7533 6.87501 17.8 6.875M14.3544 0.625001C14.4402 0.625433 14.5238 0.652224 14.5939 0.701746C14.664 0.751268 14.7172 0.82113 14.7462 0.901876L15.0881 1.95375C15.1947 2.27355 15.3743 2.5641 15.6128 2.80235C15.8513 3.04059 16.142 3.21997 16.4619 3.32625L17.5144 3.66813L17.535 3.67313C17.6159 3.7021 17.6859 3.75524 17.7355 3.82534C17.7851 3.89544 17.812 3.97911 17.8125 4.065C17.8125 4.151 17.7858 4.23488 17.7361 4.30507C17.6864 4.37525 17.6161 4.42829 17.535 4.45688L16.4825 4.79875C16.1627 4.90511 15.8721 5.08453 15.6338 5.32277C15.3954 5.56101 15.2159 5.85152 15.1094 6.17125L14.7669 7.22313C14.7386 7.30438 14.6856 7.37475 14.6153 7.4244C14.5451 7.47405 14.461 7.50048 14.375 7.5C14.2891 7.50002 14.2053 7.47341 14.1351 7.42382C14.0649 7.37424 14.0118 7.30412 13.9831 7.22313L13.6406 6.17125C13.5348 5.8506 13.3555 5.55909 13.1171 5.31994C12.8788 5.08079 12.5878 4.90061 12.2675 4.79375L11.215 4.45188C11.1341 4.4229 11.0641 4.36976 11.0145 4.29966C10.9649 4.22956 10.938 4.14589 10.9375 4.06C10.9375 3.974 10.9642 3.89012 11.0139 3.81993C11.0636 3.74975 11.1339 3.69671 11.215 3.66813L12.2675 3.32625C12.5791 3.21871 12.862 3.04158 13.0948 2.8083C13.3277 2.57503 13.5043 2.29175 13.6112 1.98L13.62 1.95375L13.9619 0.901876C13.9906 0.820777 14.0438 0.75059 14.1141 0.700998C14.1844 0.651405 14.2683 0.624852 14.3544 0.625001Z" fill="url(#paint0_linear_0_14)"/>
</g>
<defs>
<linearGradient id="paint0_linear_0_14" x1="10.4688" y1="0.625" x2="10.4688" y2="18.75" gradientUnits="userSpaceOnUse">
<stop stop-color="#9D161F"/>
<stop offset="1" stop-color="#4D0D32"/>
</linearGradient>
</defs>
</svg>
