<svg preserveAspectRatio="none" width="100%" height="100%" overflow="visible" style="display: block;" viewBox="0 0 60 60" fill="none" xmlns="http://www.w3.org/2000/svg">
<g id="Group 2317">
<g id="Ellipse 6">
<circle cx="30" cy="30" r="29.5" fill="var(--fill-0, white)"/>
<circle cx="30" cy="30" r="29.5" fill="url(#paint0_linear_0_10)"/>
<circle cx="30" cy="30" r="29.5" stroke="url(#paint1_linear_0_10)"/>
</g>
<path id="Vector" d="M18.8574 29.3574H27.4287V30.1787H27.7773V30.1807C27.7653 30.6187 27.7452 31.0568 27.7178 31.4941C27.6584 32.4426 27.5481 33.6715 27.3408 34.9375L27.2451 35.4824C26.9743 36.9308 26.5664 38.4046 25.9395 39.5244V39.5254C25.3189 40.6372 24.4211 41.5 23.1426 41.5C21.8643 41.4999 20.9672 40.637 20.3467 39.5254L20.3457 39.5244C19.7971 38.5445 19.4165 37.2932 19.1484 36.0254L19.04 35.4814C18.8381 34.3913 18.7112 33.302 18.6318 32.3682L18.5674 31.4922C18.5399 31.0547 18.5228 30.6168 18.5107 30.1787H18.8574V29.3574ZM36.8574 29.3574C38.1358 29.3575 39.0328 30.2203 39.6533 31.332H39.6543C40.203 32.3121 40.5835 33.564 40.8516 34.832L40.96 35.376C41.1619 36.4659 41.2889 37.5541 41.3682 38.4873L41.4326 39.3633C41.4601 39.801 41.4762 40.2394 41.4883 40.6777L41.1416 40.6787L41.1426 40.9297V41.5H32.5713V40.6787H32.2227C32.2733 38.8994 32.4517 37.1252 32.7559 35.3691L32.7549 35.3682C33.0088 34.0125 33.3839 32.6351 33.9453 31.5469L34.0605 31.332C34.6811 30.2202 35.5789 29.3574 36.8574 29.3574ZM23.1426 19.5C24.1532 19.5 25.1187 19.8847 25.8271 20.5635C26.5349 21.2417 26.9287 22.1578 26.9287 23.1074C26.9286 24.057 26.5348 24.9722 25.8271 25.6504C25.1187 26.3293 24.1533 26.7139 23.1426 26.7139C22.1319 26.7138 21.1664 26.3293 20.458 25.6504C19.7504 24.9722 19.3575 24.0569 19.3574 23.1074C19.3574 22.1578 19.7502 21.2417 20.458 20.5635C21.1664 19.8846 22.132 19.5001 23.1426 19.5ZM36.8574 19.5C37.868 19.5001 38.8336 19.8846 39.542 20.5635C40.2498 21.2417 40.6426 22.1578 40.6426 23.1074C40.6425 24.0569 40.2496 24.9722 39.542 25.6504C38.8336 26.3293 37.8681 26.7138 36.8574 26.7139C35.8467 26.7139 34.8813 26.3293 34.1729 25.6504C33.4652 24.9722 33.0714 24.057 33.0713 23.1074C33.0713 22.1578 33.4651 21.2417 34.1729 20.5635C34.8813 19.8847 35.8468 19.5 36.8574 19.5Z" fill="var(--fill-0, white)" stroke="url(#paint2_linear_0_10)"/>
</g>
<defs>
<linearGradient id="paint0_linear_0_10" x1="-0.333627" y1="6.42562" x2="74.3172" y2="35.4934" gradientUnits="userSpaceOnUse">
<stop stop-color="#DB0C25"/>
<stop offset="0.33" stop-color="#E04C29"/>
<stop offset="1" stop-color="#EFB991"/>
</linearGradient>
<linearGradient id="paint1_linear_0_10" x1="30" y1="0" x2="30" y2="60" gradientUnits="userSpaceOnUse">
<stop stop-color="white"/>
<stop offset="1" stop-color="white" stop-opacity="0"/>
</linearGradient>
<linearGradient id="paint2_linear_0_10" x1="30" y1="19" x2="30" y2="42" gradientUnits="userSpaceOnUse">
<stop stop-color="white"/>
<stop offset="1" stop-color="white" stop-opacity="0"/>
</linearGradient>
</defs>
</svg>
