<svg preserveAspectRatio="none" width="100%" height="100%" overflow="visible" style="display: block;" viewBox="0 0 30 30" fill="none" xmlns="http://www.w3.org/2000/svg">
<g id="fluent:person-support-16-filled">
<g id="Vector">
<path d="M12.2381 20.2158L12.2363 20.2102L11.88 20.0939C10.1857 19.495 8.69916 18.4218 7.5975 17.002C6.70666 15.8549 6.09454 14.5164 5.80944 13.0922C5.52433 11.668 5.57403 10.1971 5.95462 8.79539C6.33521 7.3937 7.03628 6.09961 8.00252 5.01519C8.96876 3.93078 10.1738 3.0857 11.5224 2.54661C12.8711 2.00753 14.3266 1.78918 15.7741 1.9088C17.2217 2.02842 18.6216 2.48273 19.8635 3.2359C21.1054 3.98907 22.1553 5.02049 22.9304 6.24881C23.7055 7.47713 24.1847 8.86875 24.33 10.3139C24.3806 10.8295 23.955 11.2495 23.4375 11.2495C22.92 11.2495 22.5056 10.8276 22.4438 10.3139C22.2764 8.98796 21.7578 7.73081 20.9416 6.67255C20.1254 5.61428 19.0412 4.79334 17.8013 4.29466C16.5614 3.79598 15.2107 3.63768 13.889 3.83614C12.5674 4.0346 11.3228 4.58261 10.284 5.42347C9.24522 6.26433 8.44999 7.36749 7.98059 8.6188C7.51119 9.87012 7.38469 11.2241 7.61416 12.5407C7.84363 13.8574 8.42074 15.0887 9.28578 16.1075C10.1508 17.1262 11.2724 17.8953 12.5344 18.3352C12.8527 17.7545 13.3657 17.3049 13.983 17.0653C14.6002 16.8257 15.2823 16.8117 15.9089 17.0255C16.5356 17.2394 17.0667 17.6675 17.4087 18.2344C17.7508 18.8014 17.8818 19.4709 17.7788 20.1249C17.6757 20.779 17.3452 21.3758 16.8455 21.8101C16.3457 22.2445 15.7087 22.4886 15.0466 22.4994C14.3846 22.5103 13.7399 22.2872 13.2262 21.8694C12.7124 21.4517 12.3625 20.8661 12.2381 20.2158ZM10.7513 21.6689C8.91489 20.9192 7.30939 19.6973 6.0975 18.127C5.78947 18.589 5.62506 19.1318 5.625 19.687V20.6245C5.625 24.3202 9.1125 28.1245 15 28.1245C20.8875 28.1245 24.375 24.3202 24.375 20.6245V19.687C24.375 18.9411 24.0787 18.2257 23.5512 17.6983C23.0238 17.1708 22.3084 16.8745 21.5625 16.8745H18.75C19.1433 17.3997 19.4219 18.0016 19.5678 18.6413C19.7138 19.281 19.7238 19.9442 19.5973 20.588C19.4708 21.2318 19.2105 21.8419 18.8333 22.3788C18.4562 22.9156 17.9705 23.3673 17.4077 23.7047C16.8449 24.042 16.2176 24.2574 15.5663 24.337C14.915 24.4166 14.2543 24.3585 13.6269 24.1666C12.9994 23.9747 12.4193 23.6533 11.9239 23.223C11.4286 22.7928 11.0291 22.2633 10.7513 21.6689ZM20.625 11.2495C20.625 9.53577 19.8581 8.00015 18.6488 6.9689C18.0583 6.46874 17.3709 6.09579 16.6297 5.87339C15.8885 5.65099 15.1094 5.58392 14.3411 5.67636C13.5728 5.76881 12.8319 6.01879 12.1646 6.41067C11.4973 6.80254 10.9181 7.32789 10.4631 7.95384C10.0081 8.5798 9.68717 9.2929 9.52036 10.0486C9.35355 10.8042 9.34445 11.5861 9.49363 12.3455C9.64282 13.1048 9.94707 13.8252 10.3874 14.4615C10.8277 15.0979 11.3945 15.6366 12.0525 16.0439C12.8862 15.368 13.9267 14.9987 15 14.9976C16.0729 14.9976 17.1133 15.3656 17.9475 16.0402C18.7658 15.5367 19.4414 14.8321 19.9101 13.9935C20.3788 13.1549 20.625 12.2102 20.625 11.2495Z" fill="white"/>
<path d="M12.2381 20.2158L12.2363 20.2102L11.88 20.0939C10.1857 19.495 8.69916 18.4218 7.5975 17.002C6.70666 15.8549 6.09454 14.5164 5.80944 13.0922C5.52433 11.668 5.57403 10.1971 5.95462 8.79539C6.33521 7.3937 7.03628 6.09961 8.00252 5.01519C8.96876 3.93078 10.1738 3.0857 11.5224 2.54661C12.8711 2.00753 14.3266 1.78918 15.7741 1.9088C17.2217 2.02842 18.6216 2.48273 19.8635 3.2359C21.1054 3.98907 22.1553 5.02049 22.9304 6.24881C23.7055 7.47713 24.1847 8.86875 24.33 10.3139C24.3806 10.8295 23.955 11.2495 23.4375 11.2495C22.92 11.2495 22.5056 10.8276 22.4438 10.3139C22.2764 8.98796 21.7578 7.73081 20.9416 6.67255C20.1254 5.61428 19.0412 4.79334 17.8013 4.29466C16.5614 3.79598 15.2107 3.63768 13.889 3.83614C12.5674 4.0346 11.3228 4.58261 10.284 5.42347C9.24522 6.26433 8.44999 7.36749 7.98059 8.6188C7.51119 9.87012 7.38469 11.2241 7.61416 12.5407C7.84363 13.8574 8.42074 15.0887 9.28578 16.1075C10.1508 17.1262 11.2724 17.8953 12.5344 18.3352C12.8527 17.7545 13.3657 17.3049 13.983 17.0653C14.6002 16.8257 15.2823 16.8117 15.9089 17.0255C16.5356 17.2394 17.0667 17.6675 17.4087 18.2344C17.7508 18.8014 17.8818 19.4709 17.7788 20.1249C17.6757 20.779 17.3452 21.3758 16.8455 21.8101C16.3457 22.2445 15.7087 22.4886 15.0466 22.4994C14.3846 22.5103 13.7399 22.2872 13.2262 21.8694C12.7124 21.4517 12.3625 20.8661 12.2381 20.2158ZM10.7513 21.6689C8.91489 20.9192 7.30939 19.6973 6.0975 18.127C5.78947 18.589 5.62506 19.1318 5.625 19.687V20.6245C5.625 24.3202 9.1125 28.1245 15 28.1245C20.8875 28.1245 24.375 24.3202 24.375 20.6245V19.687C24.375 18.9411 24.0787 18.2257 23.5512 17.6983C23.0238 17.1708 22.3084 16.8745 21.5625 16.8745H18.75C19.1433 17.3997 19.4219 18.0016 19.5678 18.6413C19.7138 19.281 19.7238 19.9442 19.5973 20.588C19.4708 21.2318 19.2105 21.8419 18.8333 22.3788C18.4562 22.9156 17.9705 23.3673 17.4077 23.7047C16.8449 24.042 16.2176 24.2574 15.5663 24.337C14.915 24.4166 14.2543 24.3585 13.6269 24.1666C12.9994 23.9747 12.4193 23.6533 11.9239 23.223C11.4286 22.7928 11.0291 22.2633 10.7513 21.6689ZM20.625 11.2495C20.625 9.53577 19.8581 8.00015 18.6488 6.9689C18.0583 6.46874 17.3709 6.09579 16.6297 5.87339C15.8885 5.65099 15.1094 5.58392 14.3411 5.67636C13.5728 5.76881 12.8319 6.01879 12.1646 6.41067C11.4973 6.80254 10.9181 7.32789 10.4631 7.95384C10.0081 8.5798 9.68717 9.2929 9.52036 10.0486C9.35355 10.8042 9.34445 11.5861 9.49363 12.3455C9.64282 13.1048 9.94707 13.8252 10.3874 14.4615C10.8277 15.0979 11.3945 15.6366 12.0525 16.0439C12.8862 15.368 13.9267 14.9987 15 14.9976C16.0729 14.9976 17.1133 15.3656 17.9475 16.0402C18.7658 15.5367 19.4414 14.8321 19.9101 13.9935C20.3788 13.1549 20.625 12.2102 20.625 11.2495Z" fill="url(#paint0_linear_0_4)"/>
</g>
</g>
<defs>
<linearGradient id="paint0_linear_0_4" x1="5.52074" y1="4.6879" x2="30.4568" y2="11.6241" gradientUnits="userSpaceOnUse">
<stop stop-color="#DB0C25"/>
<stop offset="0.33" stop-color="#E04C29"/>
<stop offset="1" stop-color="#EFB991"/>
</linearGradient>
</defs>
</svg>
