<svg preserveAspectRatio="none" width="100%" height="100%" overflow="visible" style="display: block;" viewBox="0 0 21 21" fill="none" xmlns="http://www.w3.org/2000/svg">
<g id="streamline:toilet-sign-man-woman-2-solid" clip-path="url(#clip0_0_12)">
<path id="Vector" fill-rule="evenodd" clip-rule="evenodd" d="M0.75 3.75C0.75 2.75544 1.14509 1.80161 1.84835 1.09835C2.55161 0.395088 3.50544 0 4.5 0C5.49456 0 6.44839 0.395088 7.15165 1.09835C7.85491 1.80161 8.25 2.75544 8.25 3.75C8.25 4.74456 7.85491 5.69839 7.15165 6.40165C6.44839 7.10491 5.49456 7.5 4.5 7.5C3.50544 7.5 2.55161 7.10491 1.84835 6.40165C1.14509 5.69839 0.75 4.74456 0.75 3.75ZM16.5 0C15.5054 0 14.5516 0.395088 13.8483 1.09835C13.1451 1.80161 12.75 2.75544 12.75 3.75C12.75 4.74456 13.1451 5.69839 13.8483 6.40165C14.5516 7.10491 15.5054 7.5 16.5 7.5C17.4946 7.5 18.4484 7.10491 19.1517 6.40165C19.8549 5.69839 20.25 4.74456 20.25 3.75C20.25 2.75544 19.8549 1.80161 19.1517 1.09835C18.4484 0.395088 17.4946 0 16.5 0ZM13.671 11.037C14.2455 9.963 15.147 9 16.5 9C17.853 9 18.7545 9.963 19.329 11.037C19.9125 12.1245 20.28 13.5285 20.52 14.868C20.76 16.2195 20.88 17.5635 20.94 18.564C20.9713 19.0835 20.9913 19.6036 21 20.124V20.2485L20.25 20.25H21C21 20.4489 20.921 20.6397 20.7803 20.7803C20.6397 20.921 20.4489 21 20.25 21H12.75C12.5511 21 12.3603 20.921 12.2197 20.7803C12.079 20.6397 12 20.4489 12 20.25V20.1225L12.0075 19.7805C12.0524 18.1341 12.2103 16.4928 12.48 14.868C12.72 13.5285 13.0875 12.1245 13.671 11.037ZM0 9.75C0 9.55109 0.0790176 9.36032 0.21967 9.21967C0.360322 9.07902 0.551088 9 0.75 9H8.25C8.44891 9 8.63968 9.07902 8.78033 9.21967C8.92098 9.36032 9 9.55109 9 9.75V9.8775L8.9925 10.221C8.98184 10.6263 8.96434 11.0313 8.94 11.436C8.88 12.4365 8.76 13.7805 8.52 15.132C8.28 16.4715 7.9125 17.8755 7.329 18.963C6.7545 20.037 5.853 21 4.5 21C3.147 21 2.2455 20.037 1.671 18.963C1.0875 17.8755 0.72 16.4715 0.48 15.132C0.24 13.7805 0.12 12.435 0.06 11.4345C0.0287693 10.916 0.00876464 10.3969 0 9.8775L0 9.75Z" fill="url(#paint0_linear_0_12)"/>
</g>
<defs>
<linearGradient id="paint0_linear_0_12" x1="10.5" y1="0" x2="10.5" y2="21" gradientUnits="userSpaceOnUse">
<stop stop-color="#9D161F"/>
<stop offset="1" stop-color="#4D0D32"/>
</linearGradient>
<clipPath id="clip0_0_12">
<rect width="21" height="21" fill="white"/>
</clipPath>
</defs>
</svg>
