<svg preserveAspectRatio="none" width="100%" height="100%" overflow="visible" style="display: block;" viewBox="0 0 12.6638 14.5423" fill="none" xmlns="http://www.w3.org/2000/svg">
<g id="Group">
<g id="Vector">
</g>
<g id="Vector_2">
<path d="M4.99718 1.97873e-08C5.42032 -6.51442e-05 5.82765 0.160822 6.13654 0.450026C6.44543 0.739231 6.63275 1.1351 6.66051 1.55733L6.66384 1.66667V4.73667L10.2918 5.14C10.9208 5.2099 11.5045 5.50124 11.9384 5.96192C12.3724 6.42261 12.6283 7.02261 12.6605 7.65467L12.6638 7.79V8C12.6638 9.38562 12.1246 10.7168 11.1602 11.7118C10.1958 12.7068 8.88212 13.2874 7.49718 13.3307L7.33051 13.3333H6.88118C5.92283 13.3333 4.98218 13.0751 4.15817 12.5857C3.33415 12.0964 2.6572 11.3941 2.19851 10.5527L2.11118 10.3853L0.216511 6.596C-0.0234892 6.116 0.154511 5.474 0.714511 5.244C1.40984 4.95933 2.07051 4.906 2.75118 5.252C2.89918 5.32756 3.04451 5.41956 3.18718 5.528L3.33051 5.64133V1.66667C3.33051 1.22464 3.50611 0.800716 3.81867 0.488155C4.13123 0.175595 4.55515 1.97873e-08 4.99718 1.97873e-08ZM1.65584 0.966667C1.8079 0.876228 1.98966 0.849898 2.16113 0.893469C2.3326 0.93704 2.47974 1.04694 2.57018 1.199C2.66062 1.35106 2.68695 1.53281 2.64338 1.70428C2.5998 1.87575 2.4899 2.02289 2.33784 2.11333C1.93784 2.35133 1.64518 2.59933 1.45651 2.78267C1.39577 2.84131 1.33729 2.90225 1.28118 2.96533L1.20051 3.062C1.09599 3.20385 0.939562 3.29856 0.765419 3.32542C0.591276 3.35228 0.413581 3.3091 0.271177 3.20533C0.129704 3.09998 0.0352203 2.94332 0.00804281 2.76903C-0.0191347 2.59475 0.0231641 2.41676 0.125844 2.27333C0.246554 2.11381 0.380351 1.96463 0.525844 1.82733C0.867943 1.49788 1.24715 1.20861 1.65584 0.966667ZM8.26251 0.586667C8.87769 0.852533 9.4473 1.21337 9.95051 1.656C10.1605 1.84267 10.3692 2.04533 10.5358 2.274C10.64 2.41687 10.6831 2.59525 10.6557 2.7699C10.6283 2.94455 10.5327 3.10118 10.3898 3.20533C10.1165 3.40533 9.74251 3.35867 9.51384 3.124L9.41584 3.00733L9.35118 2.934L9.25784 2.836L9.20118 2.77933L9.06518 2.65267C8.667 2.30401 8.21665 2.0199 7.73051 1.81067C7.65023 1.77573 7.57761 1.72533 7.51681 1.66234C7.45601 1.59934 7.40821 1.52499 7.37614 1.44352C7.31138 1.27899 7.31463 1.09547 7.38518 0.933333C7.45572 0.771198 7.58779 0.643728 7.75232 0.578965C7.91686 0.514202 8.10037 0.517452 8.26251 0.588V0.586667Z" fill="var(--fill-0, black)"/>
<path d="M4.99718 1.97873e-08C5.42032 -6.51442e-05 5.82765 0.160822 6.13654 0.450026C6.44543 0.739231 6.63275 1.1351 6.66051 1.55733L6.66384 1.66667V4.73667L10.2918 5.14C10.9208 5.2099 11.5045 5.50124 11.9384 5.96192C12.3724 6.42261 12.6283 7.02261 12.6605 7.65467L12.6638 7.79V8C12.6638 9.38562 12.1246 10.7168 11.1602 11.7118C10.1958 12.7068 8.88212 13.2874 7.49718 13.3307L7.33051 13.3333H6.88118C5.92283 13.3333 4.98218 13.0751 4.15817 12.5857C3.33415 12.0964 2.6572 11.3941 2.19851 10.5527L2.11118 10.3853L0.216511 6.596C-0.0234892 6.116 0.154511 5.474 0.714511 5.244C1.40984 4.95933 2.07051 4.906 2.75118 5.252C2.89918 5.32756 3.04451 5.41956 3.18718 5.528L3.33051 5.64133V1.66667C3.33051 1.22464 3.50611 0.800716 3.81867 0.488155C4.13123 0.175595 4.55515 1.97873e-08 4.99718 1.97873e-08ZM1.65584 0.966667C1.8079 0.876228 1.98966 0.849898 2.16113 0.893469C2.3326 0.93704 2.47974 1.04694 2.57018 1.199C2.66062 1.35106 2.68695 1.53281 2.64338 1.70428C2.5998 1.87575 2.4899 2.02289 2.33784 2.11333C1.93784 2.35133 1.64518 2.59933 1.45651 2.78267C1.39577 2.84131 1.33729 2.90225 1.28118 2.96533L1.20051 3.062C1.09599 3.20385 0.939562 3.29856 0.765419 3.32542C0.591276 3.35228 0.413581 3.3091 0.271177 3.20533C0.129704 3.09998 0.0352203 2.94332 0.00804281 2.76903C-0.0191347 2.59475 0.0231641 2.41676 0.125844 2.27333C0.246554 2.11381 0.380351 1.96463 0.525844 1.82733C0.867943 1.49788 1.24715 1.20861 1.65584 0.966667ZM8.26251 0.586667C8.87769 0.852533 9.4473 1.21337 9.95051 1.656C10.1605 1.84267 10.3692 2.04533 10.5358 2.274C10.64 2.41687 10.6831 2.59525 10.6557 2.7699C10.6283 2.94455 10.5327 3.10118 10.3898 3.20533C10.1165 3.40533 9.74251 3.35867 9.51384 3.124L9.41584 3.00733L9.35118 2.934L9.25784 2.836L9.20118 2.77933L9.06518 2.65267C8.667 2.30401 8.21665 2.0199 7.73051 1.81067C7.65023 1.77573 7.57761 1.72533 7.51681 1.66234C7.45601 1.59934 7.40821 1.52499 7.37614 1.44352C7.31138 1.27899 7.31463 1.09547 7.38518 0.933333C7.45572 0.771198 7.58779 0.643728 7.75232 0.578965C7.91686 0.514202 8.10037 0.517452 8.26251 0.588V0.586667Z" fill="url(#paint0_linear_0_4)"/>
</g>
</g>
<defs>
<linearGradient id="paint0_linear_0_4" x1="7.40497e-10" y1="0" x2="13.3157" y2="12.6471" gradientUnits="userSpaceOnUse">
<stop stop-color="#DB0C25"/>
<stop offset="0.5" stop-color="#E04C29"/>
<stop offset="1" stop-color="#EFB991"/>
</linearGradient>
</defs>
</svg>
