<svg preserveAspectRatio="none" width="100%" height="100%" overflow="visible" style="display: block;" viewBox="0 0 20 20" fill="none" xmlns="http://www.w3.org/2000/svg">
<g id="solar:calendar-bold">
<path id="Vector" d="M6.45835 2.08301C6.45835 1.91725 6.3925 1.75828 6.27529 1.64107C6.15808 1.52386 5.99911 1.45801 5.83335 1.45801C5.66759 1.45801 5.50862 1.52386 5.39141 1.64107C5.27419 1.75828 5.20835 1.91725 5.20835 2.08301V3.39967C4.00835 3.49551 3.22168 3.73051 2.64335 4.30967C2.06418 4.88801 1.82918 5.67551 1.73251 6.87467H18.2675C18.1708 5.67467 17.9358 4.88801 17.3567 4.30967C16.7783 3.73051 15.9908 3.49551 14.7917 3.39884V2.08301C14.7917 1.91725 14.7258 1.75828 14.6086 1.64107C14.4914 1.52386 14.3324 1.45801 14.1667 1.45801C14.0009 1.45801 13.8419 1.52386 13.7247 1.64107C13.6075 1.75828 13.5417 1.91725 13.5417 2.08301V3.34384C12.9875 3.33301 12.3658 3.33301 11.6667 3.33301H8.33335C7.63418 3.33301 7.01251 3.33301 6.45835 3.34384V2.08301Z" fill="var(--fill-0, white)"/>
<path id="Vector_2" fill-rule="evenodd" clip-rule="evenodd" d="M1.66667 10C1.66667 9.30083 1.66667 8.67917 1.6775 8.125H18.3225C18.3333 8.67917 18.3333 9.30083 18.3333 10V11.6667C18.3333 14.8092 18.3333 16.3808 17.3567 17.3567C16.38 18.3325 14.8092 18.3333 11.6667 18.3333H8.33333C5.19083 18.3333 3.61917 18.3333 2.64333 17.3567C1.6675 16.38 1.66667 14.8092 1.66667 11.6667V10ZM14.1667 11.6667C14.3877 11.6667 14.5996 11.5789 14.7559 11.4226C14.9122 11.2663 15 11.0543 15 10.8333C15 10.6123 14.9122 10.4004 14.7559 10.2441C14.5996 10.0878 14.3877 10 14.1667 10C13.9457 10 13.7337 10.0878 13.5774 10.2441C13.4211 10.4004 13.3333 10.6123 13.3333 10.8333C13.3333 11.0543 13.4211 11.2663 13.5774 11.4226C13.7337 11.5789 13.9457 11.6667 14.1667 11.6667ZM14.1667 15C14.3877 15 14.5996 14.9122 14.7559 14.7559C14.9122 14.5996 15 14.3877 15 14.1667C15 13.9457 14.9122 13.7337 14.7559 13.5774C14.5996 13.4211 14.3877 13.3333 14.1667 13.3333C13.9457 13.3333 13.7337 13.4211 13.5774 13.5774C13.4211 13.7337 13.3333 13.9457 13.3333 14.1667C13.3333 14.3877 13.4211 14.5996 13.5774 14.7559C13.7337 14.9122 13.9457 15 14.1667 15ZM10.8333 10.8333C10.8333 11.0543 10.7455 11.2663 10.5893 11.4226C10.433 11.5789 10.221 11.6667 10 11.6667C9.77899 11.6667 9.56702 11.5789 9.41074 11.4226C9.25446 11.2663 9.16667 11.0543 9.16667 10.8333C9.16667 10.6123 9.25446 10.4004 9.41074 10.2441C9.56702 10.0878 9.77899 10 10 10C10.221 10 10.433 10.0878 10.5893 10.2441C10.7455 10.4004 10.8333 10.6123 10.8333 10.8333ZM10.8333 14.1667C10.8333 14.3877 10.7455 14.5996 10.5893 14.7559C10.433 14.9122 10.221 15 10 15C9.77899 15 9.56702 14.9122 9.41074 14.7559C9.25446 14.5996 9.16667 14.3877 9.16667 14.1667C9.16667 13.9457 9.25446 13.7337 9.41074 13.5774C9.56702 13.4211 9.77899 13.3333 10 13.3333C10.221 13.3333 10.433 13.4211 10.5893 13.5774C10.7455 13.7337 10.8333 13.9457 10.8333 14.1667ZM5.83333 11.6667C6.05435 11.6667 6.26631 11.5789 6.42259 11.4226C6.57887 11.2663 6.66667 11.0543 6.66667 10.8333C6.66667 10.6123 6.57887 10.4004 6.42259 10.2441C6.26631 10.0878 6.05435 10 5.83333 10C5.61232 10 5.40036 10.0878 5.24408 10.2441C5.0878 10.4004 5 10.6123 5 10.8333C5 11.0543 5.0878 11.2663 5.24408 11.4226C5.40036 11.5789 5.61232 11.6667 5.83333 11.6667ZM5.83333 15C6.05435 15 6.26631 14.9122 6.42259 14.7559C6.57887 14.5996 6.66667 14.3877 6.66667 14.1667C6.66667 13.9457 6.57887 13.7337 6.42259 13.5774C6.26631 13.4211 6.05435 13.3333 5.83333 13.3333C5.61232 13.3333 5.40036 13.4211 5.24408 13.5774C5.0878 13.7337 5 13.9457 5 14.1667C5 14.3877 5.0878 14.5996 5.24408 14.7559C5.40036 14.9122 5.61232 15 5.83333 15Z" fill="var(--fill-0, white)"/>
</g>
</svg>
