<svg preserveAspectRatio="none" width="100%" height="100%" overflow="visible" style="display: block;" viewBox="0 0 11 11" fill="none" xmlns="http://www.w3.org/2000/svg">
<g id="mdi:eye">
<g id="Vector">
<path d="M5.5 4.125C5.13533 4.125 4.78559 4.26987 4.52773 4.52773C4.26987 4.78559 4.125 5.13533 4.125 5.5C4.125 5.86467 4.26987 6.21441 4.52773 6.47227C4.78559 6.73013 5.13533 6.875 5.5 6.875C5.86467 6.875 6.21441 6.73013 6.47227 6.47227C6.73013 6.21441 6.875 5.86467 6.875 5.5C6.875 5.13533 6.73013 4.78559 6.47227 4.52773C6.21441 4.26987 5.86467 4.125 5.5 4.125ZM5.5 7.79167C4.89221 7.79167 4.30932 7.55022 3.87955 7.12045C3.44978 6.69068 3.20833 6.10779 3.20833 5.5C3.20833 4.89221 3.44978 4.30932 3.87955 3.87955C4.30932 3.44978 4.89221 3.20833 5.5 3.20833C6.10779 3.20833 6.69068 3.44978 7.12045 3.87955C7.55022 4.30932 7.79167 4.89221 7.79167 5.5C7.79167 6.10779 7.55022 6.69068 7.12045 7.12045C6.69068 7.55022 6.10779 7.79167 5.5 7.79167ZM5.5 2.0625C3.20833 2.0625 1.25125 3.48792 0.458333 5.5C1.25125 7.51208 3.20833 8.9375 5.5 8.9375C7.79167 8.9375 9.74875 7.51208 10.5417 5.5C9.74875 3.48792 7.79167 2.0625 5.5 2.0625Z" fill="var(--fill-0, black)"/>
<path d="M5.5 4.125C5.13533 4.125 4.78559 4.26987 4.52773 4.52773C4.26987 4.78559 4.125 5.13533 4.125 5.5C4.125 5.86467 4.26987 6.21441 4.52773 6.47227C4.78559 6.73013 5.13533 6.875 5.5 6.875C5.86467 6.875 6.21441 6.73013 6.47227 6.47227C6.73013 6.21441 6.875 5.86467 6.875 5.5C6.875 5.13533 6.73013 4.78559 6.47227 4.52773C6.21441 4.26987 5.86467 4.125 5.5 4.125ZM5.5 7.79167C4.89221 7.79167 4.30932 7.55022 3.87955 7.12045C3.44978 6.69068 3.20833 6.10779 3.20833 5.5C3.20833 4.89221 3.44978 4.30932 3.87955 3.87955C4.30932 3.44978 4.89221 3.20833 5.5 3.20833C6.10779 3.20833 6.69068 3.44978 7.12045 3.87955C7.55022 4.30932 7.79167 4.89221 7.79167 5.5C7.79167 6.10779 7.55022 6.69068 7.12045 7.12045C6.69068 7.55022 6.10779 7.79167 5.5 7.79167ZM5.5 2.0625C3.20833 2.0625 1.25125 3.48792 0.458333 5.5C1.25125 7.51208 3.20833 8.9375 5.5 8.9375C7.79167 8.9375 9.74875 7.51208 10.5417 5.5C9.74875 3.48792 7.79167 2.0625 5.5 2.0625Z" fill="url(#paint0_linear_0_6)"/>
</g>
</g>
<defs>
<linearGradient id="paint0_linear_0_6" x1="0.402265" y1="2.79877" x2="11.2967" y2="9.02052" gradientUnits="userSpaceOnUse">
<stop stop-color="#DB0C25"/>
<stop offset="0.33" stop-color="#E04C29"/>
<stop offset="1" stop-color="#EFB991"/>
</linearGradient>
</defs>
</svg>
