<svg preserveAspectRatio="none" width="100%" height="100%" overflow="visible" style="display: block;" viewBox="0 0 23.7296 20.0003" fill="none" xmlns="http://www.w3.org/2000/svg">
<g id="Group 2310">
<g id="Union">
<path d="M16.8096 0.0032019C16.9936 0.0180422 17.1702 0.0837122 17.3193 0.192655L22.9297 4.40066C23.1589 4.57251 23.3482 4.79177 23.4854 5.04324C23.6226 5.29491 23.7043 5.57372 23.7246 5.85965C23.7448 6.14538 23.7037 6.43212 23.6035 6.70047C23.5032 6.96891 23.3462 7.21274 23.1436 7.41531L11.2295 20.0003H5.72949C5.19906 20.0003 4.6905 19.7894 4.31543 19.4143C3.94046 19.0393 3.72949 18.5306 3.72949 18.0003C3.72958 17.47 3.94043 16.9612 4.31543 16.5862C4.69049 16.2112 5.19914 16.0003 5.72949 16.0003C7.64749 16.0003 9.57449 13.3933 9.72949 7.00027C9.72944 6.79162 9.79467 6.58798 9.91602 6.41824C10.0374 6.24858 10.2089 6.12142 10.4062 6.05398L14.3359 4.90652C14.7403 4.77785 15.0932 4.52347 15.3438 4.18094C15.5943 3.83832 15.7295 3.42471 15.7295 3.00027V1.00027C15.7294 0.815681 15.7805 0.634206 15.877 0.476835C15.9735 0.319565 16.1119 0.192291 16.2764 0.108671C16.4409 0.0250352 16.6256 -0.0115809 16.8096 0.0032019ZM4.44336 9.16629C4.71527 8.89864 5.06711 8.73227 5.44336 8.69363C5.81949 8.65509 6.19942 8.74615 6.52441 8.95242C6.8495 9.15876 7.10161 9.4692 7.24121 9.83523C7.38069 10.2012 7.40042 10.6025 7.29688 10.9768C7.19329 11.3513 6.97194 11.6784 6.66797 11.9065C6.36406 12.1345 5.99383 12.251 5.61523 12.2386C5.23656 12.2261 4.87018 12.0851 4.57324 11.8372C4.27632 11.5893 4.06515 11.2483 3.97266 10.8675L2.81836 6.10867L0.31543 6.71512L0 5.41726L3.33789 4.60769L4.44336 9.16629Z" fill="var(--fill-0, black)"/>
<path d="M16.8096 0.0032019C16.9936 0.0180422 17.1702 0.0837122 17.3193 0.192655L22.9297 4.40066C23.1589 4.57251 23.3482 4.79177 23.4854 5.04324C23.6226 5.29491 23.7043 5.57372 23.7246 5.85965C23.7448 6.14538 23.7037 6.43212 23.6035 6.70047C23.5032 6.96891 23.3462 7.21274 23.1436 7.41531L11.2295 20.0003H5.72949C5.19906 20.0003 4.6905 19.7894 4.31543 19.4143C3.94046 19.0393 3.72949 18.5306 3.72949 18.0003C3.72958 17.47 3.94043 16.9612 4.31543 16.5862C4.69049 16.2112 5.19914 16.0003 5.72949 16.0003C7.64749 16.0003 9.57449 13.3933 9.72949 7.00027C9.72944 6.79162 9.79467 6.58798 9.91602 6.41824C10.0374 6.24858 10.2089 6.12142 10.4062 6.05398L14.3359 4.90652C14.7403 4.77785 15.0932 4.52347 15.3438 4.18094C15.5943 3.83832 15.7295 3.42471 15.7295 3.00027V1.00027C15.7294 0.815681 15.7805 0.634206 15.877 0.476835C15.9735 0.319565 16.1119 0.192291 16.2764 0.108671C16.4409 0.0250352 16.6256 -0.0115809 16.8096 0.0032019ZM4.44336 9.16629C4.71527 8.89864 5.06711 8.73227 5.44336 8.69363C5.81949 8.65509 6.19942 8.74615 6.52441 8.95242C6.8495 9.15876 7.10161 9.4692 7.24121 9.83523C7.38069 10.2012 7.40042 10.6025 7.29688 10.9768C7.19329 11.3513 6.97194 11.6784 6.66797 11.9065C6.36406 12.1345 5.99383 12.251 5.61523 12.2386C5.23656 12.2261 4.87018 12.0851 4.57324 11.8372C4.27632 11.5893 4.06515 11.2483 3.97266 10.8675L2.81836 6.10867L0.31543 6.71512L0 5.41726L3.33789 4.60769L4.44336 9.16629Z" fill="url(#paint0_linear_0_4)"/>
</g>
</g>
<defs>
<linearGradient id="paint0_linear_0_4" x1="11.8648" y1="0.000272208" x2="11.8648" y2="20.0005" gradientUnits="userSpaceOnUse">
<stop stop-color="#9D161F"/>
<stop offset="1" stop-color="#4D0D32"/>
</linearGradient>
</defs>
</svg>
