<svg preserveAspectRatio="none" width="100%" height="100%" overflow="visible" style="display: block;" viewBox="0 0 60 60" fill="none" xmlns="http://www.w3.org/2000/svg">
<g id="Group 2314">
<g id="Ellipse 3">
<circle cx="30" cy="30" r="29.5" fill="var(--fill-0, white)"/>
<circle cx="30" cy="30" r="29.5" fill="url(#paint0_linear_0_14)"/>
<circle cx="30" cy="30" r="29.5" stroke="url(#paint1_linear_0_14)"/>
</g>
<g id="Vector">
<mask id="path-2-inside-1_0_14" fill="white">
<path d="M27.089 19.7931C27.8491 19.7931 28.5547 20.0334 29.1356 20.4419V41.2069C28.4616 41.7233 27.6404 42.0017 26.7966 42H26.5549C25.7242 41.9999 24.9152 41.7299 24.2459 41.2292C23.5767 40.7286 23.0821 40.0236 22.8344 39.217L22.7026 38.7855C21.6767 38.6417 20.7365 38.125 20.056 37.3309C19.3754 36.5368 19.0003 35.519 19 34.4655V34.069C18.9999 33.2558 19.2047 32.4562 19.5948 31.7464C19.9849 31.0367 20.5473 30.4404 21.2283 30.0146C20.6125 29.5079 20.163 28.8224 19.9397 28.0494C19.7165 27.2763 19.73 26.4525 19.9785 25.6874C20.2269 24.9224 20.6986 24.2525 21.3307 23.767C21.9628 23.2814 22.7252 23.0032 23.5166 22.9695C23.6334 22.0899 24.0598 21.2833 24.7167 20.6992C25.3736 20.1151 26.2165 19.7932 27.089 19.7931ZM30.6949 24.7738C30.8041 24.8452 30.921 24.9033 31.0458 24.9483L32.379 25.3924C32.6051 25.4662 32.8109 25.5939 32.9793 25.7652C32.9793 25.7937 33.0105 25.8223 33.0448 25.8524C33.0668 25.8713 33.0867 25.8926 33.1041 25.9159C33.2117 26.0528 33.2936 26.2087 33.3458 26.3759L33.7746 27.7241C33.8576 27.9782 33.998 28.209 34.1846 28.3979C34.3712 28.5868 34.5987 28.7286 34.8488 28.8119C35.099 28.8952 35.3649 28.9176 35.6252 28.8775C35.8854 28.8373 36.1328 28.7357 36.3474 28.5807C36.2251 28.7984 36.1581 29.0438 36.1525 29.2945C36.1525 29.5982 36.2445 29.8949 36.4176 30.1431C36.5923 30.3913 36.8371 30.5793 37.1193 30.6824L37.899 30.9283C37.9406 30.9463 37.9778 30.9734 38.0081 31.0076C38.0426 31.0393 38.067 31.0807 38.0783 31.1265L38.3122 31.8483C38.4143 32.1449 38.6022 32.405 38.8502 32.5938C39.0972 32.7688 39.3911 32.8626 39.6922 32.8626C39.9933 32.8626 40.2871 32.7688 40.5342 32.5938L40.5865 32.5502C40.7483 33.0396 40.8307 33.5526 40.8305 34.069V34.4655C40.8302 35.519 40.4551 36.5368 39.7745 37.3309C39.094 38.125 38.1538 38.6417 37.1279 38.7855L36.9961 39.217C36.7484 40.0236 36.2538 40.7286 35.5846 41.2292C34.9153 41.7299 34.1063 41.9999 33.2756 42H33.0339C32.1901 42.0015 31.3688 41.7227 30.6949 41.2061V24.7738ZM39.6462 26.931C39.7049 26.9306 39.7623 26.9488 39.8103 26.9832C39.8582 27.0177 39.8944 27.0665 39.9136 27.123L40.146 27.851C40.219 28.0721 40.3416 28.273 40.5039 28.4377C40.6663 28.6024 40.864 28.7266 41.0815 28.8004L41.7965 29.0383L41.8113 29.0407C41.8525 29.0556 41.8898 29.08 41.9202 29.112C41.9506 29.1439 41.9733 29.1826 41.9866 29.225C41.9999 29.2674 42.0034 29.3123 41.9967 29.3563C41.9901 29.4002 41.9736 29.4421 41.9485 29.4785C41.9147 29.5271 41.8667 29.5637 41.8113 29.5832L41.094 29.8203C40.8769 29.8944 40.6796 30.0187 40.5177 30.1834C40.3558 30.3481 40.2336 30.5488 40.1608 30.7697L39.9269 31.4977C39.9071 31.5534 39.871 31.6016 39.8233 31.6357C39.7757 31.6697 39.7189 31.688 39.6606 31.688C39.6024 31.688 39.5456 31.6697 39.4979 31.6357C39.4503 31.6016 39.4141 31.5534 39.3944 31.4977L39.1612 30.7697C39.0888 30.5479 38.9666 30.3463 38.8043 30.1809C38.6421 30.0154 38.4442 29.8906 38.2264 29.8163L37.5107 29.58C37.4695 29.5651 37.4322 29.5407 37.4018 29.5087C37.3714 29.4768 37.3487 29.4381 37.3354 29.3957C37.3221 29.3533 37.3187 29.3084 37.3253 29.2644C37.3319 29.2204 37.3484 29.1786 37.3735 29.1422C37.4074 29.0936 37.4553 29.057 37.5107 29.0375L38.2264 28.8004C38.4411 28.7245 38.6357 28.5994 38.7952 28.4348C38.9548 28.2702 39.0749 28.0705 39.1464 27.851L39.3803 27.123C39.3994 27.0669 39.4352 27.0183 39.4827 26.9839C39.5302 26.9495 39.5871 26.9311 39.6454 26.931M35.3471 19C35.4542 19.0005 35.5585 19.0345 35.6459 19.0974C35.7334 19.1602 35.7997 19.2489 35.836 19.3513L36.2625 20.6861C36.3954 21.0919 36.6195 21.4606 36.917 21.763C37.2145 22.0653 37.5771 22.2929 37.9762 22.4278L39.2891 22.8616L39.3148 22.868C39.4157 22.9047 39.503 22.9722 39.565 23.0611C39.6269 23.1501 39.6604 23.2562 39.661 23.3652C39.661 23.4744 39.6277 23.5808 39.5657 23.6699C39.5037 23.7589 39.416 23.8262 39.3148 23.8625L38.0019 24.2963C37.603 24.4313 37.2405 24.659 36.9431 24.9613C36.6458 25.2636 36.4218 25.6323 36.289 26.038L35.8617 27.3728C35.8264 27.4759 35.7603 27.5652 35.6727 27.6282C35.585 27.6912 35.4802 27.7247 35.3729 27.7241C35.2657 27.7242 35.1611 27.6904 35.0736 27.6275C34.986 27.5645 34.9198 27.4756 34.884 27.3728L34.4568 26.038C34.3247 25.6311 34.1011 25.2612 33.8037 24.9577C33.5064 24.6542 33.1434 24.4256 32.7439 24.29L31.4309 23.8562C31.33 23.8194 31.2427 23.752 31.1808 23.663C31.1189 23.5741 31.0853 23.4679 31.0847 23.3589C31.0848 23.2498 31.1181 23.1433 31.1801 23.0543C31.2421 22.9652 31.3297 22.8979 31.4309 22.8616L32.7439 22.4278C33.1325 22.2913 33.4855 22.0665 33.7759 21.7705C34.0664 21.4745 34.2867 21.1151 34.4201 20.7194L34.431 20.6861L34.8575 19.3513C34.8933 19.2484 34.9597 19.1594 35.0474 19.0964C35.1351 19.0335 35.2398 18.9998 35.3471 19Z"/>
</mask>
<path d="M27.089 19.7931C27.8491 19.7931 28.5547 20.0334 29.1356 20.4419V41.2069C28.4616 41.7233 27.6404 42.0017 26.7966 42H26.5549C25.7242 41.9999 24.9152 41.7299 24.2459 41.2292C23.5767 40.7286 23.0821 40.0236 22.8344 39.217L22.7026 38.7855C21.6767 38.6417 20.7365 38.125 20.056 37.3309C19.3754 36.5368 19.0003 35.519 19 34.4655V34.069C18.9999 33.2558 19.2047 32.4562 19.5948 31.7464C19.9849 31.0367 20.5473 30.4404 21.2283 30.0146C20.6125 29.5079 20.163 28.8224 19.9397 28.0494C19.7165 27.2763 19.73 26.4525 19.9785 25.6874C20.2269 24.9224 20.6986 24.2525 21.3307 23.767C21.9628 23.2814 22.7252 23.0032 23.5166 22.9695C23.6334 22.0899 24.0598 21.2833 24.7167 20.6992C25.3736 20.1151 26.2165 19.7932 27.089 19.7931ZM30.6949 24.7738C30.8041 24.8452 30.921 24.9033 31.0458 24.9483L32.379 25.3924C32.6051 25.4662 32.8109 25.5939 32.9793 25.7652C32.9793 25.7937 33.0105 25.8223 33.0448 25.8524C33.0668 25.8713 33.0867 25.8926 33.1041 25.9159C33.2117 26.0528 33.2936 26.2087 33.3458 26.3759L33.7746 27.7241C33.8576 27.9782 33.998 28.209 34.1846 28.3979C34.3712 28.5868 34.5987 28.7286 34.8488 28.8119C35.099 28.8952 35.3649 28.9176 35.6252 28.8775C35.8854 28.8373 36.1328 28.7357 36.3474 28.5807C36.2251 28.7984 36.1581 29.0438 36.1525 29.2945C36.1525 29.5982 36.2445 29.8949 36.4176 30.1431C36.5923 30.3913 36.8371 30.5793 37.1193 30.6824L37.899 30.9283C37.9406 30.9463 37.9778 30.9734 38.0081 31.0076C38.0426 31.0393 38.067 31.0807 38.0783 31.1265L38.3122 31.8483C38.4143 32.1449 38.6022 32.405 38.8502 32.5938C39.0972 32.7688 39.3911 32.8626 39.6922 32.8626C39.9933 32.8626 40.2871 32.7688 40.5342 32.5938L40.5865 32.5502C40.7483 33.0396 40.8307 33.5526 40.8305 34.069V34.4655C40.8302 35.519 40.4551 36.5368 39.7745 37.3309C39.094 38.125 38.1538 38.6417 37.1279 38.7855L36.9961 39.217C36.7484 40.0236 36.2538 40.7286 35.5846 41.2292C34.9153 41.7299 34.1063 41.9999 33.2756 42H33.0339C32.1901 42.0015 31.3688 41.7227 30.6949 41.2061V24.7738ZM39.6462 26.931C39.7049 26.9306 39.7623 26.9488 39.8103 26.9832C39.8582 27.0177 39.8944 27.0665 39.9136 27.123L40.146 27.851C40.219 28.0721 40.3416 28.273 40.5039 28.4377C40.6663 28.6024 40.864 28.7266 41.0815 28.8004L41.7965 29.0383L41.8113 29.0407C41.8525 29.0556 41.8898 29.08 41.9202 29.112C41.9506 29.1439 41.9733 29.1826 41.9866 29.225C41.9999 29.2674 42.0034 29.3123 41.9967 29.3563C41.9901 29.4002 41.9736 29.4421 41.9485 29.4785C41.9147 29.5271 41.8667 29.5637 41.8113 29.5832L41.094 29.8203C40.8769 29.8944 40.6796 30.0187 40.5177 30.1834C40.3558 30.3481 40.2336 30.5488 40.1608 30.7697L39.9269 31.4977C39.9071 31.5534 39.871 31.6016 39.8233 31.6357C39.7757 31.6697 39.7189 31.688 39.6606 31.688C39.6024 31.688 39.5456 31.6697 39.4979 31.6357C39.4503 31.6016 39.4141 31.5534 39.3944 31.4977L39.1612 30.7697C39.0888 30.5479 38.9666 30.3463 38.8043 30.1809C38.6421 30.0154 38.4442 29.8906 38.2264 29.8163L37.5107 29.58C37.4695 29.5651 37.4322 29.5407 37.4018 29.5087C37.3714 29.4768 37.3487 29.4381 37.3354 29.3957C37.3221 29.3533 37.3187 29.3084 37.3253 29.2644C37.3319 29.2204 37.3484 29.1786 37.3735 29.1422C37.4074 29.0936 37.4553 29.057 37.5107 29.0375L38.2264 28.8004C38.4411 28.7245 38.6357 28.5994 38.7952 28.4348C38.9548 28.2702 39.0749 28.0705 39.1464 27.851L39.3803 27.123C39.3994 27.0669 39.4352 27.0183 39.4827 26.9839C39.5302 26.9495 39.5871 26.9311 39.6454 26.931M35.3471 19C35.4542 19.0005 35.5585 19.0345 35.6459 19.0974C35.7334 19.1602 35.7997 19.2489 35.836 19.3513L36.2625 20.6861C36.3954 21.0919 36.6195 21.4606 36.917 21.763C37.2145 22.0653 37.5771 22.2929 37.9762 22.4278L39.2891 22.8616L39.3148 22.868C39.4157 22.9047 39.503 22.9722 39.565 23.0611C39.6269 23.1501 39.6604 23.2562 39.661 23.3652C39.661 23.4744 39.6277 23.5808 39.5657 23.6699C39.5037 23.7589 39.416 23.8262 39.3148 23.8625L38.0019 24.2963C37.603 24.4313 37.2405 24.659 36.9431 24.9613C36.6458 25.2636 36.4218 25.6323 36.289 26.038L35.8617 27.3728C35.8264 27.4759 35.7603 27.5652 35.6727 27.6282C35.585 27.6912 35.4802 27.7247 35.3729 27.7241C35.2657 27.7242 35.1611 27.6904 35.0736 27.6275C34.986 27.5645 34.9198 27.4756 34.884 27.3728L34.4568 26.038C34.3247 25.6311 34.1011 25.2612 33.8037 24.9577C33.5064 24.6542 33.1434 24.4256 32.7439 24.29L31.4309 23.8562C31.33 23.8194 31.2427 23.752 31.1808 23.663C31.1189 23.5741 31.0853 23.4679 31.0847 23.3589C31.0848 23.2498 31.1181 23.1433 31.1801 23.0543C31.2421 22.9652 31.3297 22.8979 31.4309 22.8616L32.7439 22.4278C33.1325 22.2913 33.4855 22.0665 33.7759 21.7705C34.0664 21.4745 34.2867 21.1151 34.4201 20.7194L34.431 20.6861L34.8575 19.3513C34.8933 19.2484 34.9597 19.1594 35.0474 19.0964C35.1351 19.0335 35.2398 18.9998 35.3471 19Z" fill="var(--fill-0, white)"/>
<path d="M27.089 19.7931V19.2931H27.0889L27.089 19.7931ZM29.1356 20.4419H29.6356V20.1822L29.4232 20.0329L29.1356 20.4419ZM29.1356 41.2069L29.4397 41.6038L29.6356 41.4537V41.2069H29.1356ZM26.7966 42L26.7976 41.5H26.7966V42ZM26.5549 42L26.5549 42.5H26.5549V42ZM22.8344 39.217L22.3562 39.363L22.3564 39.3638L22.8344 39.217ZM22.7026 38.7855L23.1808 38.6395L23.0877 38.3347L22.772 38.2904L22.7026 38.7855ZM19 34.4655H18.5L18.5 34.4656L19 34.4655ZM19 34.069H19.5V34.0689L19 34.069ZM21.2283 30.0146L21.4934 30.4386L22.0826 30.0701L21.546 29.6285L21.2283 30.0146ZM23.5166 22.9695L23.5379 23.469L23.957 23.4511L24.0122 23.0353L23.5166 22.9695ZM30.6949 24.7738L30.9686 24.3553L30.1949 23.8494V24.7738H30.6949ZM31.0458 24.9483L30.8762 25.4188L30.8877 25.4226L31.0458 24.9483ZM32.379 25.3924L32.2209 25.8668L32.2239 25.8678L32.379 25.3924ZM32.9793 25.7652H33.4793V25.5606L33.3359 25.4147L32.9793 25.7652ZM33.0448 25.8524L32.7148 26.2281L32.7193 26.232L33.0448 25.8524ZM33.1041 25.9159L32.7032 26.2149L32.711 26.2249L33.1041 25.9159ZM33.3458 26.3759L32.8684 26.5247L32.8693 26.5274L33.3458 26.3759ZM33.7746 27.7241L33.2981 27.8757L33.2993 27.8794L33.7746 27.7241ZM34.8488 28.8119L34.6909 29.2863L34.8488 28.8119ZM36.3474 28.5807L36.7833 28.8256L36.0547 28.1753L36.3474 28.5807ZM36.1525 29.2945L35.6525 29.2834V29.2945H36.1525ZM36.4176 30.1431L36.0075 30.4291L36.0087 30.4308L36.4176 30.1431ZM37.1193 30.6824L36.9477 31.1521L36.9583 31.1559L36.9689 31.1593L37.1193 30.6824ZM37.899 30.9283L38.0981 30.4697L38.0742 30.4593L38.0493 30.4514L37.899 30.9283ZM38.0081 31.0076L37.634 31.3393L37.651 31.3584L37.6699 31.3758L38.0081 31.0076ZM38.0783 31.1265L37.5927 31.2457L37.597 31.2634L37.6026 31.2807L38.0783 31.1265ZM38.3122 31.8483L37.8365 32.0024L37.8394 32.0111L38.3122 31.8483ZM38.8502 32.5938L38.5473 32.9916L38.5541 32.9968L38.5612 33.0018L38.8502 32.5938ZM39.6922 32.8626V32.3626V32.8626ZM40.5342 32.5938L40.8232 33.0018L40.8395 32.9903L40.8547 32.9776L40.5342 32.5938ZM40.5865 32.5502L41.0612 32.3932L40.8304 31.6951L40.266 32.1664L40.5865 32.5502ZM40.8305 34.069L40.3305 34.0688V34.069H40.8305ZM40.8305 34.4655L41.3305 34.4656V34.4655H40.8305ZM37.1279 38.7855L37.0585 38.2904L36.7428 38.3347L36.6497 38.6395L37.1279 38.7855ZM36.9961 39.217L37.4741 39.3638L37.4743 39.363L36.9961 39.217ZM33.2756 42V42.5H33.2756L33.2756 42ZM33.0339 42V41.5L33.033 41.5L33.0339 42ZM30.6949 41.2061H30.1949V41.4528L30.3907 41.6029L30.6949 41.2061ZM39.9136 27.123L40.39 26.9709L40.3869 26.9616L39.9136 27.123ZM40.146 27.851L39.6696 28.003L39.6712 28.0079L40.146 27.851ZM41.0815 28.8004L40.921 29.2739L40.9237 29.2748L41.0815 28.8004ZM41.7965 29.0383L41.6386 29.5127L41.6771 29.5255L41.7172 29.532L41.7965 29.0383ZM41.8113 29.0407L41.9814 28.5705L41.9371 28.5545L41.8906 28.547L41.8113 29.0407ZM41.9485 29.4785L42.3587 29.7644L42.3601 29.7623L41.9485 29.4785ZM41.8113 29.5832L41.9683 30.058L41.9773 30.0548L41.8113 29.5832ZM41.094 29.8203L40.9371 29.3456L40.9325 29.3471L41.094 29.8203ZM40.1608 30.7697L39.6859 30.613L39.6847 30.6167L40.1608 30.7697ZM39.9269 31.4977L40.3982 31.6647L40.4006 31.6577L40.4029 31.6507L39.9269 31.4977ZM39.3944 31.4977L38.9182 31.6502L38.9205 31.6575L38.9231 31.6647L39.3944 31.4977ZM39.1612 30.7697L39.6374 30.6172L39.6365 30.6143L39.1612 30.7697ZM38.2264 29.8163L38.3878 29.3431L38.3832 29.3416L38.2264 29.8163ZM37.5107 29.58L37.3405 30.0504L37.3539 30.0548L37.5107 29.58ZM37.3735 29.1422L36.9633 28.8563L36.9619 28.8583L37.3735 29.1422ZM37.5107 29.0375L37.3534 28.5628L37.3448 28.5659L37.5107 29.0375ZM38.2264 28.8004L38.3837 29.2751L38.393 29.2718L38.2264 28.8004ZM39.1464 27.851L39.6218 28.0059L39.6225 28.004L39.1464 27.851ZM39.3803 27.123L38.907 26.9615L38.9043 26.97L39.3803 27.123ZM35.3471 19L35.3497 18.5L35.348 18.5L35.3471 19ZM35.836 19.3513L36.3123 19.1992L36.3099 19.1918L36.3073 19.1845L35.836 19.3513ZM36.2625 20.6861L35.7862 20.8383L35.7873 20.8418L36.2625 20.6861ZM37.9762 22.4278L37.8161 22.9015L37.8193 22.9025L37.9762 22.4278ZM39.2891 22.8616L39.1322 23.3364L39.1506 23.3424L39.1694 23.3471L39.2891 22.8616ZM39.3148 22.868L39.4861 22.3982L39.4607 22.389L39.4346 22.3825L39.3148 22.868ZM39.565 23.0611L39.1546 23.3468L39.565 23.0611ZM39.661 23.3652L40.161 23.3654L40.161 23.3625L39.661 23.3652ZM39.3148 23.8625L39.4718 24.3374L39.4835 24.3332L39.3148 23.8625ZM38.0019 24.2963L37.845 23.8216L37.8416 23.8227L38.0019 24.2963ZM36.289 26.038L35.8138 25.8824L35.8128 25.8856L36.289 26.038ZM35.8617 27.3728L36.3349 27.5347L36.3379 27.5252L35.8617 27.3728ZM35.3729 27.7241L35.3757 27.2241L35.3728 27.2241L35.3729 27.7241ZM35.0736 27.6275L34.7818 28.0335L35.0736 27.6275ZM34.884 27.3728L34.4077 27.5253L34.4118 27.5372L34.884 27.3728ZM34.4568 26.038L34.933 25.8856L34.9324 25.8837L34.4568 26.038ZM32.7439 24.29L32.9045 23.8165L32.9007 23.8152L32.7439 24.29ZM31.4309 23.8562L31.2597 24.3259L31.2668 24.3285L31.274 24.3309L31.4309 23.8562ZM31.0847 23.3589L30.5847 23.3587L30.5847 23.3616L31.0847 23.3589ZM31.1801 23.0543L31.5904 23.3399L31.1801 23.0543ZM31.4309 22.8616L31.274 22.3867L31.2622 22.3909L31.4309 22.8616ZM32.7439 22.4278L32.9008 22.9026L32.9095 22.8996L32.7439 22.4278ZM34.4201 20.7194L34.8939 20.8792L34.8953 20.8751L34.4201 20.7194ZM34.431 20.6861L34.9062 20.8418L34.9073 20.8383L34.431 20.6861ZM34.8575 19.3513L34.3852 19.1869L34.3812 19.1992L34.8575 19.3513ZM27.089 19.7931V20.2931C27.742 20.2931 28.3479 20.4992 28.848 20.8509L29.1356 20.4419L29.4232 20.0329C28.7616 19.5676 27.9563 19.2931 27.089 19.2931V19.7931ZM29.1356 20.4419H28.6356V41.2069H29.1356H29.6356V20.4419H29.1356ZM29.1356 41.2069L28.8315 40.81C28.2445 41.2597 27.5303 41.5015 26.7976 41.5L26.7966 42L26.7956 42.5C27.7504 42.5019 28.6787 42.1868 29.4397 41.6038L29.1356 41.2069ZM26.7966 42V41.5H26.5549V42V42.5H26.7966V42ZM26.5549 42L26.555 41.5C25.8329 41.4999 25.1288 41.2652 24.5454 40.8289L24.2459 41.2292L23.9464 41.6296C24.7016 42.1945 25.6155 42.4999 26.5549 42.5L26.5549 42ZM24.2459 41.2292L24.5454 40.8289C23.9619 40.3924 23.5293 39.7765 23.3123 39.0702L22.8344 39.217L22.3564 39.3638C22.6349 40.2707 23.1914 41.0649 23.9464 41.6296L24.2459 41.2292ZM22.8344 39.217L23.3126 39.071L23.1808 38.6395L22.7026 38.7855L22.2244 38.9316L22.3562 39.363L22.8344 39.217ZM22.7026 38.7855L22.772 38.2904C21.868 38.1636 21.0377 37.7081 20.4356 37.0055L20.056 37.3309L19.6763 37.6563C20.4353 38.5419 21.4853 39.1198 22.6332 39.2807L22.7026 38.7855ZM20.056 37.3309L20.4356 37.0055C19.8333 36.3028 19.5002 35.4005 19.5 34.4654L19 34.4655L18.5 34.4656C18.5003 35.6375 18.9175 36.7709 19.6763 37.6563L20.056 37.3309ZM19 34.4655H19.5V34.069H19H18.5V34.4655H19ZM19 34.069L19.5 34.0689C19.4999 33.3396 19.6836 32.6229 20.033 31.9873L19.5948 31.7464L19.1566 31.5056C18.7258 32.2895 18.4999 33.172 18.5 34.069L19 34.069ZM19.5948 31.7464L20.033 31.9873C20.3823 31.3517 20.8854 30.8187 21.4934 30.4386L21.2283 30.0146L20.9632 29.5907C20.2092 30.0622 19.5875 30.7217 19.1566 31.5056L19.5948 31.7464ZM21.2283 30.0146L21.546 29.6285C21.0089 29.1866 20.6156 28.5876 20.4201 27.9106L19.9397 28.0494L19.4594 28.1881C19.7104 29.0572 20.2161 29.8292 20.9106 30.4007L21.2283 30.0146ZM19.9397 28.0494L20.4201 27.9106C20.2246 27.2336 20.2364 26.5118 20.454 25.8419L19.9785 25.6874L19.5029 25.533C19.2235 26.3931 19.2084 27.3191 19.4594 28.1881L19.9397 28.0494ZM19.9785 25.6874L20.454 25.8419C20.6716 25.172 21.0841 24.5869 21.6353 24.1635L21.3307 23.767L21.0261 23.3705C20.3131 23.9182 19.7823 24.6728 19.5029 25.533L19.9785 25.6874ZM21.3307 23.767L21.6353 24.1635C22.1863 23.7402 22.85 23.4984 23.5379 23.469L23.5166 22.9695L23.4953 22.4699C22.6004 22.5081 21.7392 22.8227 21.0261 23.3705L21.3307 23.767ZM23.5166 22.9695L24.0122 23.0353C24.1134 22.2734 24.4826 21.5765 25.0489 21.0729L24.7167 20.6992L24.3845 20.3256C23.637 20.9902 23.1533 21.9064 23.0209 22.9037L23.5166 22.9695ZM24.7167 20.6992L25.0489 21.0729C25.6151 20.5695 26.34 20.2932 27.089 20.2931L27.089 19.7931L27.0889 19.2931C26.093 19.2932 25.1321 19.6608 24.3845 20.3256L24.7167 20.6992ZM30.6949 24.7738L30.4213 25.1923C30.5635 25.2853 30.7155 25.3608 30.8763 25.4187L31.0458 24.9483L31.2152 24.4779C31.1265 24.4459 31.0446 24.405 30.9686 24.3553L30.6949 24.7738ZM31.0458 24.9483L30.8877 25.4226L32.2209 25.8668L32.379 25.3924L32.537 24.918L31.2038 24.4739L31.0458 24.9483ZM32.379 25.3924L32.2239 25.8678C32.3732 25.9165 32.5101 26.0011 32.6228 26.1157L32.9793 25.7652L33.3359 25.4147C33.1117 25.1866 32.8369 25.0159 32.534 24.9171L32.379 25.3924ZM32.9793 25.7652H32.4793C32.4793 25.9587 32.5811 26.0876 32.6154 26.1286C32.6563 26.1776 32.7022 26.217 32.7148 26.228L33.0448 25.8524L33.3748 25.4768C33.3531 25.4577 33.3663 25.4677 33.383 25.4877C33.3932 25.5 33.4149 25.5276 33.435 25.5691C33.4557 25.6122 33.4793 25.6796 33.4793 25.7652H32.9793ZM33.0448 25.8524L32.7193 26.232C32.7132 26.2267 32.7079 26.221 32.7033 26.2149L33.1041 25.9159L33.5048 25.6169C33.4655 25.5641 33.4204 25.5158 33.3703 25.4729L33.0448 25.8524ZM33.1041 25.9159L32.711 26.2249C32.7808 26.3137 32.8343 26.4153 32.8684 26.5247L33.3458 26.3759L33.8231 26.227C33.753 26.0021 33.6426 25.7918 33.4971 25.6068L33.1041 25.9159ZM33.3458 26.3759L32.8693 26.5274L33.2981 27.8757L33.7746 27.7241L34.2511 27.5726L33.8222 26.2243L33.3458 26.3759ZM33.7746 27.7241L33.2993 27.8794C33.4063 28.2067 33.5874 28.5048 33.8289 28.7492L34.1846 28.3979L34.5404 28.0466C34.4087 27.9132 34.309 27.7497 34.2498 27.5688L33.7746 27.7241ZM34.1846 28.3979L33.8289 28.7492C34.0704 28.9938 34.3655 29.1779 34.6909 29.2863L34.8488 28.8119L35.0068 28.3375C34.8318 28.2792 34.672 28.1798 34.5404 28.0466L34.1846 28.3979ZM34.8488 28.8119L34.6909 29.2863C35.0164 29.3946 35.3625 29.4239 35.7014 29.3716L35.6252 28.8775L35.5489 28.3833C35.3673 28.4113 35.1817 28.3957 35.0068 28.3375L34.8488 28.8119ZM35.6252 28.8775L35.7014 29.3716C36.0403 29.3194 36.3617 29.1871 36.6402 28.9861L36.3474 28.5807L36.0547 28.1753C35.9039 28.2843 35.7306 28.3553 35.5489 28.3833L35.6252 28.8775ZM36.3474 28.5807L35.9116 28.3357C35.7488 28.6253 35.66 28.951 35.6527 29.2834L36.1525 29.2945L36.6524 29.3056C36.6562 29.1365 36.7014 28.9715 36.7833 28.8256L36.3474 28.5807ZM36.1525 29.2945H35.6525C35.6525 29.699 35.775 30.0957 36.0075 30.4291L36.4176 30.1431L36.8278 29.8571C36.714 29.694 36.6525 29.4975 36.6525 29.2945H36.1525ZM36.4176 30.1431L36.0087 30.4308C36.2416 30.7618 36.5689 31.0137 36.9477 31.1521L37.1193 30.6824L37.2909 30.2128C37.1052 30.145 36.943 30.0209 36.8266 29.8554L36.4176 30.1431ZM37.1193 30.6824L36.9689 31.1593L37.7486 31.4051L37.899 30.9283L38.0493 30.4514L37.2697 30.2056L37.1193 30.6824ZM37.899 30.9283L37.6998 31.3869C37.6741 31.3757 37.6517 31.3593 37.634 31.3393L38.0081 31.0076L38.3823 30.6759C38.3039 30.5875 38.2071 30.517 38.0981 30.4697L37.899 30.9283ZM38.0081 31.0076L37.6699 31.3758C37.6311 31.3402 37.6047 31.2947 37.5927 31.2457L38.0783 31.1265L38.5639 31.0074C38.5294 30.8667 38.4541 30.7383 38.3464 30.6394L38.0081 31.0076ZM38.0783 31.1265L37.6026 31.2807L37.8365 32.0024L38.3122 31.8483L38.7878 31.6941L38.5539 30.9724L38.0783 31.1265ZM38.3122 31.8483L37.8394 32.0111C37.9736 32.4007 38.2204 32.7427 38.5473 32.9916L38.8502 32.5938L39.153 32.196C38.9841 32.0673 38.8551 31.8891 38.785 31.6855L38.3122 31.8483ZM38.8502 32.5938L38.5612 33.0018C38.8922 33.2363 39.2869 33.3626 39.6922 33.3626V32.8626V32.3626C39.4953 32.3626 39.3023 32.3013 39.1392 32.1858L38.8502 32.5938ZM39.6922 32.8626V33.3626C40.0974 33.3626 40.4922 33.2363 40.8232 33.0018L40.5342 32.5938L40.2452 32.1858C40.0821 32.3013 39.8891 32.3626 39.6922 32.3626V32.8626ZM40.5342 32.5938L40.8547 32.9776L40.9069 32.934L40.5865 32.5502L40.266 32.1664L40.2137 32.21L40.5342 32.5938ZM40.5865 32.5502L40.1117 32.7071C40.2568 33.1458 40.3307 33.6057 40.3305 34.0688L40.8305 34.069L41.3305 34.0692C41.3307 33.4995 41.2398 32.9334 41.0612 32.3932L40.5865 32.5502ZM40.8305 34.069H40.3305V34.4655H40.8305H41.3305V34.069H40.8305ZM40.8305 34.4655L40.3305 34.4654C40.3302 35.4005 39.9972 36.3028 39.3949 37.0055L39.7745 37.3309L40.1542 37.6563C40.913 36.7709 41.3302 35.6375 41.3305 34.4656L40.8305 34.4655ZM39.7745 37.3309L39.3949 37.0055C38.7928 37.7081 37.9625 38.1636 37.0585 38.2904L37.1279 38.7855L37.1973 39.2807C38.3452 39.1198 39.3952 38.5419 40.1542 37.6563L39.7745 37.3309ZM37.1279 38.7855L36.6497 38.6395L36.5179 39.071L36.9961 39.217L37.4743 39.363L37.6061 38.9316L37.1279 38.7855ZM36.9961 39.217L36.5182 39.0702C36.3012 39.7765 35.8686 40.3924 35.2851 40.8289L35.5846 41.2292L35.8841 41.6296C36.6391 41.0649 37.1956 40.2707 37.4741 39.3638L36.9961 39.217ZM35.5846 41.2292L35.2851 40.8289C34.7017 41.2652 33.9976 41.4999 33.2755 41.5L33.2756 42L33.2756 42.5C34.215 42.4999 35.1289 42.1945 35.8841 41.6296L35.5846 41.2292ZM33.2756 42V41.5H33.0339V42V42.5H33.2756V42ZM33.0339 42L33.033 41.5C32.3002 41.5013 31.5861 41.2593 30.9991 40.8093L30.6949 41.2061L30.3907 41.6029C31.1515 42.1862 32.0799 42.5017 33.0348 42.5L33.0339 42ZM30.6949 41.2061H31.1949V24.7738H30.6949H30.1949V41.2061H30.6949ZM39.6462 26.931L39.6503 27.431C39.6023 27.4314 39.5563 27.4164 39.5187 27.3895L39.8103 26.9832L40.1018 26.577C39.9682 26.4812 39.8075 26.4297 39.6421 26.431L39.6462 26.931ZM39.8103 26.9832L39.5187 27.3895C39.4812 27.3626 39.4544 27.3254 39.4404 27.2844L39.9136 27.123L40.3869 26.9616C40.3344 26.8076 40.2352 26.6728 40.1018 26.577L39.8103 26.9832ZM39.9136 27.123L39.4373 27.275L39.6696 28.003L40.146 27.851L40.6223 27.699L40.3899 26.971L39.9136 27.123ZM40.146 27.851L39.6712 28.0079C39.7682 28.3015 39.9311 28.5688 40.1478 28.7887L40.5039 28.4377L40.86 28.0867C40.752 27.9771 40.6698 27.8428 40.6207 27.6941L40.146 27.851ZM40.5039 28.4377L40.1478 28.7887C40.3645 29.0086 40.629 29.1749 40.921 29.2739L41.0815 28.8004L41.2421 28.3269C41.099 28.2783 40.9681 28.1963 40.86 28.0867L40.5039 28.4377ZM41.0815 28.8004L40.9237 29.2748L41.6386 29.5127L41.7965 29.0383L41.9544 28.5639L41.2394 28.326L41.0815 28.8004ZM41.7965 29.0383L41.7172 29.532L41.732 29.5344L41.8113 29.0407L41.8906 28.547L41.8758 28.5446L41.7965 29.0383ZM41.8113 29.0407L41.6412 29.5109C41.6089 29.4992 41.5805 29.4804 41.5579 29.4565L41.9202 29.112L42.2825 28.7674C42.199 28.6796 42.0961 28.612 41.9814 28.5705L41.8113 29.0407ZM41.9202 29.112L41.5579 29.4565C41.5352 29.4327 41.5189 29.4046 41.5095 29.3745L41.9866 29.225L42.4637 29.0754C42.4277 28.9606 42.3659 28.8551 42.2825 28.7674L41.9202 29.112ZM41.9866 29.225L41.5095 29.3745C41.5001 29.3445 41.4977 29.3129 41.5023 29.282L41.9967 29.3563L42.4912 29.4305C42.509 29.3117 42.4997 29.1902 42.4637 29.0754L41.9866 29.225ZM41.9967 29.3563L41.5023 29.282C41.5069 29.2511 41.5186 29.2212 41.5369 29.1946L41.9485 29.4785L42.3601 29.7623C42.4287 29.6629 42.4734 29.5493 42.4912 29.4305L41.9967 29.3563ZM41.9485 29.4785L41.5383 29.1926C41.5638 29.1561 41.6008 29.1272 41.6454 29.1115L41.8113 29.5832L41.9773 30.0548C42.1325 30.0002 42.2655 29.8981 42.3587 29.7644L41.9485 29.4785ZM41.8113 29.5832L41.6544 29.1084L40.9371 29.3456L41.094 29.8203L41.251 30.295L41.9683 30.0579L41.8113 29.5832ZM41.094 29.8203L40.9325 29.3471C40.6412 29.4465 40.3773 29.613 40.1612 29.8329L40.5177 30.1834L40.8743 30.5339C40.982 30.4243 41.1126 30.3423 41.2555 30.2935L41.094 29.8203ZM40.5177 30.1834L40.1612 29.8329C39.9451 30.0527 39.7826 30.3199 39.6859 30.613L40.1608 30.7697L40.6356 30.9263C40.6846 30.7777 40.7665 30.6436 40.8743 30.5339L40.5177 30.1834ZM40.1608 30.7697L39.6847 30.6167L39.4508 31.3448L39.9269 31.4977L40.4029 31.6507L40.6368 30.9226L40.1608 30.7697ZM39.9269 31.4977L39.4556 31.3307C39.4697 31.2909 39.4961 31.255 39.5326 31.2289L39.8233 31.6357L40.114 32.0425C40.2459 31.9483 40.3446 31.816 40.3982 31.6647L39.9269 31.4977ZM39.8233 31.6357L39.5326 31.2289C39.5692 31.2027 39.6139 31.188 39.6606 31.188V31.688V32.188C39.8238 32.188 39.9821 32.1368 40.114 32.0425L39.8233 31.6357ZM39.6606 31.688V31.188C39.7073 31.188 39.752 31.2027 39.7886 31.2289L39.4979 31.6357L39.2072 32.0425C39.3391 32.1368 39.4975 32.188 39.6606 32.188V31.688ZM39.4979 31.6357L39.7886 31.2289C39.8252 31.255 39.8515 31.2909 39.8657 31.3307L39.3944 31.4977L38.9231 31.6647C38.9767 31.816 39.0754 31.9483 39.2072 32.0425L39.4979 31.6357ZM39.3944 31.4977L39.8706 31.3453L39.6374 30.6172L39.1612 30.7697L38.6851 30.9221L38.9182 31.6502L39.3944 31.4977ZM39.1612 30.7697L39.6365 30.6143C39.5403 30.3199 39.3778 30.0516 39.1613 29.8308L38.8043 30.1809L38.4473 30.5309C38.5553 30.6411 38.6372 30.7759 38.686 30.925L39.1612 30.7697ZM38.8043 30.1809L39.1613 29.8308C38.9448 29.61 38.6801 29.4428 38.3878 29.3431L38.2264 29.8163L38.065 30.2896C38.2084 30.3385 38.3394 30.4209 38.4473 30.5309L38.8043 30.1809ZM38.2264 29.8163L38.3832 29.3416L37.6675 29.1052L37.5107 29.58L37.3539 30.0548L38.0697 30.2911L38.2264 29.8163ZM37.5107 29.58L37.6808 29.1098C37.7131 29.1215 37.7415 29.1403 37.7642 29.1642L37.4018 29.5087L37.0395 29.8533C37.123 29.9411 37.2259 30.0087 37.3406 30.0502L37.5107 29.58ZM37.4018 29.5087L37.7642 29.1642C37.7868 29.1879 37.8031 29.2161 37.8125 29.2462L37.3354 29.3957L36.8583 29.5452C36.8943 29.66 36.9561 29.7656 37.0395 29.8533L37.4018 29.5087ZM37.3354 29.3957L37.8125 29.2462C37.8219 29.2762 37.8244 29.3078 37.8197 29.3387L37.3253 29.2644L36.8308 29.1902C36.813 29.309 36.8223 29.4305 36.8583 29.5452L37.3354 29.3957ZM37.3253 29.2644L37.8197 29.3387C37.8151 29.3695 37.8034 29.3995 37.7851 29.4261L37.3735 29.1422L36.9619 28.8583C36.8933 28.9577 36.8486 29.0713 36.8308 29.1902L37.3253 29.2644ZM37.3735 29.1422L37.7837 29.4281C37.7582 29.4646 37.7212 29.4935 37.6766 29.5092L37.5107 29.0375L37.3448 28.5659C37.1895 28.6205 37.0565 28.7226 36.9633 28.8563L37.3735 29.1422ZM37.5107 29.0375L37.668 29.5121L38.3837 29.275L38.2264 28.8004L38.0692 28.3257L37.3534 28.5629L37.5107 29.0375ZM38.2264 28.8004L38.393 29.2718C38.681 29.17 38.9414 29.0025 39.1543 28.7828L38.7952 28.4348L38.4362 28.0869C38.33 28.1964 38.2011 28.279 38.0598 28.3289L38.2264 28.8004ZM38.7952 28.4348L39.1543 28.7828C39.3672 28.5631 39.5269 28.2972 39.6218 28.0059L39.1464 27.851L38.671 27.6961C38.623 27.8437 38.5424 27.9773 38.4362 28.0869L38.7952 28.4348ZM39.1464 27.851L39.6225 28.004L39.8564 27.2759L39.3803 27.123L38.9043 26.97L38.6704 27.6981L39.1464 27.851ZM39.3803 27.123L39.8536 27.2844C39.8396 27.3252 39.8131 27.3621 39.776 27.3889L39.4827 26.9839L39.1895 26.5789C39.0574 26.6746 38.9592 26.8087 38.9071 26.9616L39.3803 27.123ZM39.4827 26.9839L39.776 27.3889C39.7388 27.4159 39.6932 27.431 39.6456 27.431L39.6454 26.931L39.6453 26.431C39.481 26.4311 39.3217 26.4832 39.1895 26.5789L39.4827 26.9839ZM35.3471 19L35.3446 19.5C35.3472 19.5 35.3505 19.5008 35.3541 19.5034L35.6459 19.0974L35.9378 18.6914C35.7665 18.5683 35.5612 18.5011 35.3497 18.5L35.3471 19ZM35.6459 19.0974L35.3541 19.5034C35.3579 19.5061 35.3621 19.5109 35.3647 19.5182L35.836 19.3513L36.3073 19.1845C36.2374 18.9868 36.1089 18.8144 35.9378 18.6914L35.6459 19.0974ZM35.836 19.3513L35.3597 19.5035L35.7862 20.8383L36.2625 20.6861L36.7387 20.534L36.3123 19.1992L35.836 19.3513ZM36.2625 20.6861L35.7873 20.8418C35.9441 21.3204 36.2086 21.756 36.5606 22.1137L36.917 21.763L37.2734 21.4123C37.0304 21.1653 36.8467 20.8635 36.7376 20.5305L36.2625 20.6861ZM36.917 21.763L36.5606 22.1137C36.9126 22.4714 37.3423 22.7414 37.8161 22.9015L37.9762 22.4278L38.1362 21.9541C37.8119 21.8445 37.5163 21.6592 37.2734 21.4123L36.917 21.763ZM37.9762 22.4278L37.8193 22.9025L39.1322 23.3364L39.2891 22.8616L39.446 22.3869L38.133 21.953L37.9762 22.4278ZM39.2891 22.8616L39.1694 23.3471L39.1951 23.3534L39.3148 22.868L39.4346 22.3825L39.4088 22.3762L39.2891 22.8616ZM39.3148 22.868L39.1436 23.3377C39.1467 23.3389 39.1509 23.3415 39.1546 23.3468L39.565 23.0611L39.9753 22.7755C39.8551 22.6028 39.6847 22.4706 39.4861 22.3982L39.3148 22.868ZM39.565 23.0611L39.1546 23.3468C39.1583 23.3522 39.161 23.3596 39.161 23.368L39.661 23.3652L40.161 23.3625C40.1599 23.1529 40.0954 22.948 39.9753 22.7755L39.565 23.0611ZM39.661 23.3652L39.161 23.3651C39.161 23.3728 39.1586 23.3794 39.1553 23.3842L39.5657 23.6699L39.976 23.9555C40.0967 23.7822 40.1609 23.576 40.161 23.3654L39.661 23.3652ZM39.5657 23.6699L39.1553 23.3842C39.1521 23.3889 39.1485 23.391 39.1461 23.3918L39.3148 23.8625L39.4835 24.3332C39.6836 24.2615 39.8553 24.129 39.976 23.9555L39.5657 23.6699ZM39.3148 23.8625L39.158 23.3878L37.845 23.8216L38.0019 24.2963L38.1588 24.7711L39.4717 24.3373L39.3148 23.8625ZM38.0019 24.2963L37.8416 23.8227C37.3681 23.9829 36.9385 24.253 36.5867 24.6107L36.9431 24.9613L37.2996 25.3119C37.5425 25.065 37.8379 24.8797 38.1621 24.77L38.0019 24.2963ZM36.9431 24.9613L36.5867 24.6107C36.2349 24.9684 35.9705 25.4039 35.8138 25.8824L36.289 26.038L36.7641 26.1936C36.8732 25.8606 37.0568 25.5589 37.2996 25.3119L36.9431 24.9613ZM36.289 26.038L35.8128 25.8856L35.3855 27.2204L35.8617 27.3728L36.3379 27.5252L36.7652 26.1904L36.289 26.038ZM35.8617 27.3728L35.3887 27.2109C35.3866 27.2168 35.3834 27.2204 35.3809 27.2222L35.6727 27.6282L35.9645 28.0342C36.1373 27.91 36.2662 27.735 36.3348 27.5347L35.8617 27.3728ZM35.6727 27.6282L35.3809 27.2222C35.3785 27.2239 35.3767 27.2241 35.3757 27.2241L35.3729 27.7241L35.37 28.2241C35.5837 28.2253 35.7916 28.1585 35.9645 28.0342L35.6727 27.6282ZM35.3729 27.7241L35.3728 27.2241C35.371 27.2241 35.3684 27.2236 35.3654 27.2215L35.0736 27.6275L34.7818 28.0335C34.9538 28.1572 35.1604 28.2242 35.373 28.2241L35.3729 27.7241ZM35.0736 27.6275L35.3654 27.2215C35.3622 27.2192 35.3585 27.215 35.3562 27.2084L34.884 27.3728L34.4118 27.5372C34.4811 27.7362 34.6098 27.9099 34.7818 28.0335L35.0736 27.6275ZM34.884 27.3728L35.3602 27.2204L34.933 25.8856L34.4568 26.038L33.9806 26.1904L34.4078 27.5252L34.884 27.3728ZM34.4568 26.038L34.9324 25.8837C34.7767 25.4038 34.5127 24.9668 34.1609 24.6078L33.8037 24.9577L33.4466 25.3077C33.6896 25.5556 33.8728 25.8584 33.9812 26.1923L34.4568 26.038ZM33.8037 24.9577L34.1609 24.6078C33.809 24.2487 33.3789 23.9775 32.9045 23.8165L32.7439 24.29L32.5832 24.7635C32.908 24.8737 33.2037 25.0598 33.4466 25.3077L33.8037 24.9577ZM32.7439 24.29L32.9007 23.8152L31.5878 23.3814L31.4309 23.8562L31.274 24.3309L32.587 24.7648L32.7439 24.29ZM31.4309 23.8562L31.6021 23.3864C31.599 23.3853 31.5948 23.3826 31.5912 23.3774L31.1808 23.663L30.7704 23.9487C30.8906 24.1213 31.0611 24.2535 31.2597 24.3259L31.4309 23.8562ZM31.1808 23.663L31.5912 23.3774C31.5874 23.372 31.5848 23.3646 31.5847 23.3562L31.0847 23.3589L30.5847 23.3616C30.5859 23.5712 30.6503 23.7762 30.7704 23.9487L31.1808 23.663ZM31.0847 23.3589L31.5847 23.359C31.5847 23.3514 31.5871 23.3447 31.5904 23.3399L31.1801 23.0543L30.7697 22.7686C30.649 22.942 30.5848 23.1481 30.5847 23.3587L31.0847 23.3589ZM31.1801 23.0543L31.5904 23.3399C31.5937 23.3353 31.5972 23.3331 31.5996 23.3323L31.4309 22.8616L31.2622 22.3909C31.0622 22.4626 30.8905 22.5951 30.7697 22.7686L31.1801 23.0543ZM31.4309 22.8616L31.5878 23.3364L32.9007 22.9025L32.7439 22.4278L32.587 21.953L31.274 22.3869L31.4309 22.8616ZM32.7439 22.4278L32.9095 22.8996C33.3709 22.7376 33.7891 22.471 34.1328 22.1207L33.7759 21.7705L33.419 21.4203C33.1818 21.6621 32.8941 21.8451 32.5782 21.956L32.7439 22.4278ZM33.7759 21.7705L34.1328 22.1207C34.4765 21.7705 34.7365 21.3458 34.8939 20.8792L34.4201 20.7194L33.9464 20.5597C33.8369 20.8843 33.6563 21.1785 33.419 21.4203L33.7759 21.7705ZM34.4201 20.7194L34.8953 20.8751L34.9062 20.8418L34.431 20.6861L33.9559 20.5304L33.945 20.5638L34.4201 20.7194ZM34.431 20.6861L34.9073 20.8383L35.3338 19.5035L34.8575 19.3513L34.3812 19.1992L33.9548 20.534L34.431 20.6861ZM34.8575 19.3513L35.3297 19.5157C35.332 19.5091 35.3358 19.5049 35.3389 19.5027L35.0474 19.0964L34.7559 18.6902C34.5836 18.8138 34.4547 18.9877 34.3853 19.1869L34.8575 19.3513ZM35.0474 19.0964L35.3389 19.5027C35.3419 19.5005 35.3445 19.5 35.3463 19.5L35.3471 19L35.348 18.5C35.1352 18.4996 34.9283 18.5665 34.7559 18.6902L35.0474 19.0964Z" fill="url(#paint2_linear_0_14)" mask="url(#path-2-inside-1_0_14)"/>
</g>
</g>
<defs>
<linearGradient id="paint0_linear_0_14" x1="-0.333627" y1="6.42562" x2="74.3172" y2="35.4934" gradientUnits="userSpaceOnUse">
<stop stop-color="#DB0C25"/>
<stop offset="0.33" stop-color="#E04C29"/>
<stop offset="1" stop-color="#EFB991"/>
</linearGradient>
<linearGradient id="paint1_linear_0_14" x1="30" y1="0" x2="30" y2="60" gradientUnits="userSpaceOnUse">
<stop stop-color="white"/>
<stop offset="1" stop-color="white" stop-opacity="0"/>
</linearGradient>
<linearGradient id="paint2_linear_0_14" x1="30.5" y1="19" x2="30.5" y2="42" gradientUnits="userSpaceOnUse">
<stop stop-color="white"/>
<stop offset="1" stop-color="white" stop-opacity="0"/>
</linearGradient>
</defs>
</svg>
