<svg preserveAspectRatio="none" width="100%" height="100%" overflow="visible" style="display: block;" viewBox="0 0 24 24" fill="none" xmlns="http://www.w3.org/2000/svg">
<g id="material-symbols:footprint">
<path id="Vector" d="M6.5 1C7.91667 1 9.021 1.62933 9.813 2.888C10.605 4.14667 11.0007 5.51733 11 7C11 7.68333 10.929 8.33333 10.787 8.95C10.645 9.56667 10.4827 10.1167 10.3 10.6L3.175 12.025C2.925 11.5417 2.66667 10.871 2.4 10.013C2.13333 9.155 2 8.15067 2 7C2 5.28333 2.425 3.854 3.275 2.712C4.125 1.57 5.2 0.999334 6.5 1ZM7.875 18C6.69167 18 5.771 17.5877 5.113 16.763C4.455 15.9383 4.084 14.984 4 13.9L10.45 12.6C10.5833 12.8833 10.7083 13.2043 10.825 13.563C10.9417 13.9217 11 14.2923 11 14.675C11 15.625 10.704 16.4167 10.112 17.05C9.52 17.6833 8.77367 18 7.875 18ZM17.5 6C18.8 6 19.875 6.571 20.725 7.713C21.575 8.855 22 10.284 22 12C22 13.15 21.8667 14.1543 21.6 15.013C21.3333 15.8717 21.075 16.5423 20.825 17.025L13.7 15.6C13.5167 15.1167 13.3543 14.5667 13.213 13.95C13.0717 13.3333 13.0007 12.6833 13 12C13 10.5167 13.396 9.146 14.188 7.888C14.98 6.63 16.084 6.00067 17.5 6ZM16.125 23C15.225 23 14.479 22.6833 13.887 22.05C13.295 21.4167 12.9993 20.625 13 19.675C13 19.2917 13.0583 18.921 13.175 18.563C13.2917 18.205 13.4167 17.884 13.55 17.6L19.975 18.9C19.8917 19.9833 19.525 20.9377 18.875 21.763C18.225 22.5883 17.3083 23.0007 16.125 23Z" fill="url(#paint0_linear_0_10)"/>
</g>
<defs>
<linearGradient id="paint0_linear_0_10" x1="12" y1="1" x2="12" y2="23" gradientUnits="userSpaceOnUse">
<stop stop-color="#9D161F"/>
<stop offset="1" stop-color="#4D0D32"/>
</linearGradient>
</defs>
</svg>
