<svg preserveAspectRatio="none" width="100%" height="100%" overflow="visible" style="display: block;" viewBox="0 0 93 80" fill="none" xmlns="http://www.w3.org/2000/svg">
<path id="Vector" d="M21.1167 0H3.72648C1.67195 0 0 1.6825 0 3.75V18.75C0 19.0815 0.13087 19.3995 0.36382 19.6339C0.596771 19.8683 0.912719 20 1.24216 20C1.5716 20 1.88755 19.8683 2.1205 19.6339C2.35345 19.3995 2.48432 19.0815 2.48432 18.75V3.75C2.48432 3.41848 2.61519 3.10054 2.84814 2.86612C3.08109 2.6317 3.39704 2.5 3.72648 2.5H21.1167C21.4462 2.5 21.7621 2.3683 21.9951 2.13388C22.228 1.89946 22.3589 1.58152 22.3589 1.25C22.3589 0.918479 22.228 0.600537 21.9951 0.366117C21.7621 0.131696 21.4462 0 21.1167 0ZM89.2735 0H71.8833C71.5538 0 71.2379 0.131696 71.0049 0.366117C70.772 0.600537 70.6411 0.918479 70.6411 1.25C70.6411 1.58152 70.772 1.89946 71.0049 2.13388C71.2379 2.3683 71.5538 2.5 71.8833 2.5H89.2735C89.603 2.5 89.9189 2.6317 90.1519 2.86612C90.3848 3.10054 90.5157 3.41848 90.5157 3.75V18.75C90.5157 19.0815 90.6465 19.3995 90.8795 19.6339C91.1124 19.8683 91.4284 20 91.7578 20C92.0873 20 92.4032 19.8683 92.6362 19.6339C92.8691 19.3995 93 19.0815 93 18.75V3.75C93 1.6825 91.3281 0 89.2735 0ZM91.7578 60C91.4284 60 91.1124 60.1317 90.8795 60.3661C90.6465 60.6005 90.5157 60.9185 90.5157 61.25V76.25C90.5157 76.5815 90.3848 76.8995 90.1519 77.1339C89.9189 77.3683 89.603 77.5 89.2735 77.5H71.8833C71.5538 77.5 71.2379 77.6317 71.0049 77.8661C70.772 78.1005 70.6411 78.4185 70.6411 78.75C70.6411 79.0815 70.772 79.3995 71.0049 79.6339C71.2379 79.8683 71.5538 80 71.8833 80H89.2735C91.3281 80 93 78.3175 93 76.25V61.25C93 60.9185 92.8691 60.6005 92.6362 60.3661C92.4032 60.1317 92.0873 60 91.7578 60ZM1.24216 60C0.912719 60 0.596771 60.1317 0.36382 60.3661C0.13087 60.6005 0 60.9185 0 61.25V76.25C0 78.3175 1.67195 80 3.72648 80H21.1167C21.4462 80 21.7621 79.8683 21.9951 79.6339C22.228 79.3995 22.3589 79.0815 22.3589 78.75C22.3589 78.4185 22.228 78.1005 21.9951 77.8661C21.7621 77.6317 21.4462 77.5 21.1167 77.5H3.72648C3.39704 77.5 3.08109 77.3683 2.84814 77.1339C2.61519 76.8995 2.48432 76.5815 2.48432 76.25V61.25C2.48432 60.9185 2.35345 60.6005 2.1205 60.3661C1.88755 60.1317 1.5716 60 1.24216 60ZM55.7108 47.5C56.0402 47.5 56.3562 47.3683 56.5891 47.1339C56.8221 46.8995 56.953 46.5815 56.953 46.25V33.75C56.953 33.4185 56.8221 33.1005 56.5891 32.8661C56.3562 32.6317 56.0402 32.5 55.7108 32.5H42.9599C42.6305 32.5 42.3145 32.6317 42.0816 32.8661C41.8486 33.1005 41.7178 33.4185 41.7178 33.75V46.25C41.7178 46.5815 41.8486 46.8995 42.0816 47.1339C42.3145 47.3683 42.6305 47.5 42.9599 47.5H55.7108ZM44.2021 35H54.4686V45H44.2021V35Z" fill="var(--fill-0, #C2461E)"/>
</svg>
