<svg preserveAspectRatio="none" width="100%" height="100%" overflow="visible" style="display: block;" viewBox="0 0 60 60" fill="none" xmlns="http://www.w3.org/2000/svg">
<g id="Group 2315">
<g id="Ellipse 4">
<circle cx="30" cy="30" r="29.5" fill="var(--fill-0, white)"/>
<circle cx="30" cy="30" r="29.5" fill="url(#paint0_linear_0_20)"/>
<circle cx="30" cy="30" r="29.5" stroke="url(#paint1_linear_0_20)"/>
</g>
<path id="Vector" d="M39.0215 38.5547C38.8722 39.5562 38.485 40.4433 37.8594 41.2256C37.1881 42.065 36.2417 42.5007 34.9502 42.5L34.7744 42.4961C33.9055 42.4583 33.2 42.137 32.627 41.5332C32.0131 40.8864 31.6996 40.0779 31.7002 39.0713V39.0703C31.7002 38.6698 31.7618 38.2846 31.8848 37.9131C31.9714 37.6513 32.0614 37.4094 32.1543 37.1865L39.0215 38.5547ZM27.8447 31.2764C27.9377 31.4992 28.0285 31.7413 28.1152 32.0039C28.2383 32.3765 28.2998 32.7615 28.2998 33.1611C28.2998 34.168 27.9861 34.977 27.3721 35.624C26.7609 36.268 25.9982 36.5908 25.0498 36.5908C23.7583 36.5908 22.8053 36.1554 22.124 35.3145C21.4911 34.5332 21.0991 33.647 20.9482 32.6465L27.8447 31.2764ZM36.5996 23.4092C37.9882 23.4092 39.1366 23.9985 40.0713 25.2354C41.0133 26.4819 41.5 28.0587 41.5 30C41.5 31.3214 41.344 32.4554 41.043 33.4102C40.7875 34.2203 40.5419 34.8724 40.3096 35.374L32.4141 33.8174C32.2418 33.3343 32.0825 32.7934 31.9424 32.1914C31.7821 31.5026 31.701 30.7724 31.7002 30C31.7002 28.3432 32.1477 26.8169 33.0469 25.4102C33.9096 24.0606 35.079 23.4101 36.5996 23.4092ZM23.3994 17.5H23.4004C24.9217 17.5001 26.0914 18.15 26.9541 19.5C27.8535 20.9077 28.3006 22.4348 28.2998 24.0908L28.2959 24.3789C28.2781 25.0451 28.1984 25.6789 28.0576 26.2812C27.9168 26.8834 27.7568 27.4248 27.585 27.9082L19.6895 29.4639C19.4572 28.9619 19.2123 28.3099 18.957 27.501C18.656 26.5471 18.5 25.4131 18.5 24.0908C18.5 22.1488 18.9868 20.5717 19.9287 19.3252C20.8633 18.0885 22.0111 17.4994 23.3994 17.5Z" fill="var(--fill-0, white)" stroke="url(#paint2_linear_0_20)"/>
</g>
<defs>
<linearGradient id="paint0_linear_0_20" x1="-0.333627" y1="6.42562" x2="74.3172" y2="35.4934" gradientUnits="userSpaceOnUse">
<stop stop-color="#DB0C25"/>
<stop offset="0.33" stop-color="#E04C29"/>
<stop offset="1" stop-color="#EFB991"/>
</linearGradient>
<linearGradient id="paint1_linear_0_20" x1="30" y1="0" x2="30" y2="60" gradientUnits="userSpaceOnUse">
<stop stop-color="white"/>
<stop offset="1" stop-color="white" stop-opacity="0"/>
</linearGradient>
<linearGradient id="paint2_linear_0_20" x1="30" y1="17" x2="30" y2="43" gradientUnits="userSpaceOnUse">
<stop stop-color="white"/>
<stop offset="1" stop-color="white" stop-opacity="0"/>
</linearGradient>
</defs>
</svg>
