<svg preserveAspectRatio="none" width="100%" height="100%" overflow="visible" style="display: block;" viewBox="0 0 60 60" fill="none" xmlns="http://www.w3.org/2000/svg">
<g id="Group 2316">
<g id="Ellipse 5">
<circle cx="30" cy="30" r="29.5" fill="var(--fill-0, white)"/>
<circle cx="30" cy="30" r="29.5" fill="url(#paint0_linear_0_17)"/>
<circle cx="30" cy="30" r="29.5" stroke="url(#paint1_linear_0_17)"/>
</g>
<path id="Vector" d="M42.2275 36.5L37.0186 40.9199V37.833H33.3408L30.3643 34.8857L32.2705 32.999L34.3145 35.0225L34.4609 35.167H37.0186V32.0791L42.2275 36.5ZM42.2275 25.5L37.0186 29.9199V26.833H34.4609L34.3145 26.9775L23.3496 37.833H18.5V35.167H22.2305L22.376 35.0225L33.3418 24.167H37.0186V21.0791L42.2275 25.5ZM23.3506 24.167L26.3262 27.1133L24.4189 29L22.376 26.9775L22.2305 26.833H18.5V24.167H23.3506Z" fill="var(--fill-0, white)" stroke="url(#paint2_linear_0_17)"/>
</g>
<defs>
<linearGradient id="paint0_linear_0_17" x1="-0.333627" y1="6.42562" x2="74.3172" y2="35.4934" gradientUnits="userSpaceOnUse">
<stop stop-color="#DB0C25"/>
<stop offset="0.33" stop-color="#E04C29"/>
<stop offset="1" stop-color="#EFB991"/>
</linearGradient>
<linearGradient id="paint1_linear_0_17" x1="30" y1="0" x2="30" y2="60" gradientUnits="userSpaceOnUse">
<stop stop-color="white"/>
<stop offset="1" stop-color="white" stop-opacity="0"/>
</linearGradient>
<linearGradient id="paint2_linear_0_17" x1="30.5" y1="20" x2="30.5" y2="42" gradientUnits="userSpaceOnUse">
<stop stop-color="white"/>
<stop offset="1" stop-color="white" stop-opacity="0"/>
</linearGradient>
</defs>
</svg>
