<svg preserveAspectRatio="none" width="100%" height="100%" overflow="visible" style="display: block;" viewBox="0 0 34.572 34.572" fill="none" xmlns="http://www.w3.org/2000/svg">
<g id="&#226;&#128;&#157;">
<path d="M1.876 0H14.472V19.162C14.472 23.5393 13.0873 27.202 10.318 30.15C7.638 33.098 4.19867 34.572 0 34.572V27.604C2.144 27.4253 3.84133 26.666 5.092 25.326C6.432 23.986 7.102 22.2887 7.102 20.234V17.018H1.876V0ZM21.976 0H34.572V19.162C34.572 23.5393 33.1873 27.202 30.418 30.15C27.738 33.098 24.2987 34.572 20.1 34.572V27.604C22.244 27.4253 23.9413 26.666 25.192 25.326C26.532 23.986 27.202 22.2887 27.202 20.234V17.018H21.976V0Z" fill="var(--fill-0, #252525)"/>
<path d="M1.876 0H14.472V19.162C14.472 23.5393 13.0873 27.202 10.318 30.15C7.638 33.098 4.19867 34.572 0 34.572V27.604C2.144 27.4253 3.84133 26.666 5.092 25.326C6.432 23.986 7.102 22.2887 7.102 20.234V17.018H1.876V0ZM21.976 0H34.572V19.162C34.572 23.5393 33.1873 27.202 30.418 30.15C27.738 33.098 24.2987 34.572 20.1 34.572V27.604C22.244 27.4253 23.9413 26.666 25.192 25.326C26.532 23.986 27.202 22.2887 27.202 20.234V17.018H21.976V0Z" fill="url(#paint0_linear_0_6)"/>
</g>
<defs>
<linearGradient id="paint0_linear_0_6" x1="-0.192236" y1="3.70244" x2="42.8216" y2="20.4513" gradientUnits="userSpaceOnUse">
<stop stop-color="#DB0C25"/>
<stop offset="0.33" stop-color="#E04C29"/>
<stop offset="1" stop-color="#EFB991"/>
</linearGradient>
</defs>
</svg>
