<svg preserveAspectRatio="none" width="100%" height="100%" overflow="visible" style="display: block;" viewBox="0 0 30 30" fill="none" xmlns="http://www.w3.org/2000/svg">
<g id="ri:whatsapp-fill">
<path id="Vector" d="M15.5 4C21.8515 4 27 9.14855 27 15.5C27 21.8514 21.8515 27 15.5 27C13.4677 27.0035 11.4711 26.4656 9.71551 25.4417L4.00462 27L5.55942 21.2868C4.53472 19.5307 3.99646 17.5332 4.00002 15.5C4.00002 9.14855 9.14857 4 15.5 4ZM11.5808 10.095L11.3508 10.1042C11.2021 10.1144 11.0568 10.1535 10.923 10.2192C10.7983 10.2899 10.6845 10.3782 10.5849 10.4814C10.4469 10.6113 10.3687 10.724 10.2848 10.8333C9.8594 11.3863 9.63038 12.0653 9.63386 12.763C9.63616 13.3265 9.78336 13.875 10.0134 14.3879C10.4837 15.4252 11.2577 16.5235 12.2789 17.5412C12.525 17.7862 12.7665 18.0323 13.0264 18.2611C14.2953 19.3783 15.8074 20.1839 17.4424 20.614L18.0956 20.7141C18.3083 20.7256 18.5211 20.7095 18.735 20.6991C19.0698 20.6815 19.3968 20.5908 19.6929 20.4335C19.8434 20.3557 19.9903 20.2713 20.1334 20.1805C20.1334 20.1805 20.182 20.1475 20.2771 20.077C20.4324 19.962 20.5278 19.8803 20.6566 19.7458C20.7532 19.6461 20.8337 19.5304 20.8981 19.3985C20.9878 19.211 21.0775 18.8534 21.1143 18.5555C21.1419 18.3278 21.1339 18.2036 21.1304 18.1266C21.1258 18.0035 21.0235 17.8759 20.9119 17.8218L20.2426 17.5217C20.2426 17.5217 19.2421 17.0858 18.6303 16.8075C18.5663 16.7797 18.4977 16.7637 18.4279 16.7604C18.3492 16.7522 18.2697 16.7609 18.1947 16.7861C18.1197 16.8113 18.051 16.8524 17.9932 16.9064C17.9875 16.9041 17.9104 16.9697 17.079 17.9771C17.0312 18.0412 16.9655 18.0897 16.8901 18.1163C16.8148 18.1429 16.7332 18.1465 16.6558 18.1266C16.5808 18.1066 16.5074 18.0812 16.4361 18.0507C16.2935 17.9909 16.2441 17.9679 16.1463 17.9265C15.4861 17.6389 14.8749 17.2497 14.3351 16.773C14.1902 16.6465 14.0556 16.5085 13.9176 16.3751C13.4652 15.9418 13.0709 15.4517 12.7446 14.9169L12.6768 14.8077C12.6288 14.7339 12.5894 14.6548 12.5595 14.5719C12.5158 14.4029 12.6296 14.2672 12.6296 14.2672C12.6296 14.2672 12.9091 13.9613 13.039 13.7957C13.1655 13.6347 13.2725 13.4783 13.3415 13.3667C13.4772 13.1482 13.5197 12.924 13.4484 12.7503C13.1264 11.9637 12.7937 11.1814 12.4502 10.4032C12.3824 10.2491 12.1811 10.1387 11.9983 10.1168C11.9362 10.1092 11.8741 10.103 11.812 10.0984C11.6575 10.0896 11.5027 10.0911 11.3485 10.103L11.5808 10.095Z" fill="var(--fill-0, white)"/>
</g>
</svg>
