<svg preserveAspectRatio="none" width="100%" height="100%" overflow="visible" style="display: block;" viewBox="0 0 30 30" fill="none" xmlns="http://www.w3.org/2000/svg">
<g id="mynaui:facebook-solid">
<path id="Vector" d="M18.125 3.4375C14.5487 3.4375 11.5625 6.42375 11.5625 10V12.1875H8.125C8.04212 12.1875 7.96263 12.2204 7.90403 12.279C7.84542 12.3376 7.8125 12.4171 7.8125 12.5V17.5C7.8125 17.6725 7.9525 17.8125 8.125 17.8125H11.5625V26.25C11.5625 26.4225 11.7025 26.5625 11.875 26.5625H16.875C16.9579 26.5625 17.0374 26.5296 17.096 26.471C17.1546 26.4124 17.1875 26.3329 17.1875 26.25V17.8125H20.625C20.6947 17.8123 20.7623 17.7888 20.8171 17.7458C20.8719 17.7028 20.9108 17.6426 20.9275 17.575L22.1775 12.575C22.1889 12.529 22.1896 12.4811 22.1798 12.4348C22.1699 12.3885 22.1496 12.345 22.1205 12.3077C22.0913 12.2704 22.0541 12.2402 22.0116 12.2193C21.969 12.1985 21.9223 12.1876 21.875 12.1875H17.1875V10C17.1907 9.75237 17.2905 9.51579 17.4657 9.34067C17.6408 9.16555 17.8774 9.06574 18.125 9.0625H21.875C21.9579 9.0625 22.0374 9.02958 22.096 8.97097C22.1546 8.91237 22.1875 8.83288 22.1875 8.75V3.75C22.1875 3.66712 22.1546 3.58763 22.096 3.52903C22.0374 3.47042 21.9579 3.4375 21.875 3.4375H18.125Z" fill="var(--fill-0, white)"/>
</g>
</svg>
