<svg preserveAspectRatio="none" width="100%" height="100%" overflow="visible" style="display: block;" viewBox="0 0 30 30" fill="none" xmlns="http://www.w3.org/2000/svg">
<g id="material-symbols:mail-rounded">
<path id="Vector" d="M5 25C4.3125 25 3.72417 24.7554 3.235 24.2663C2.74583 23.7771 2.50083 23.1883 2.5 22.5V7.5C2.5 6.8125 2.745 6.22417 3.235 5.735C3.725 5.24583 4.31333 5.00083 5 5H25C25.6875 5 26.2763 5.245 26.7663 5.735C27.2563 6.225 27.5008 6.81333 27.5 7.5V22.5C27.5 23.1875 27.2554 23.7763 26.7663 24.2663C26.2771 24.7563 25.6883 25.0008 25 25H5ZM15.3287 15.985C15.4429 15.9533 15.5521 15.9063 15.6562 15.8438L24.5 10.3125C24.6667 10.2083 24.7917 10.0783 24.875 9.9225C24.9583 9.76667 25 9.59458 25 9.40625C25 8.98958 24.8229 8.67708 24.4688 8.46875C24.1146 8.26042 23.75 8.27083 23.375 8.5L15 13.75L6.625 8.5C6.25 8.27083 5.88542 8.26583 5.53125 8.485C5.17708 8.70417 5 9.01125 5 9.40625C5 9.61458 5.04167 9.79708 5.125 9.95375C5.20833 10.1104 5.33333 10.23 5.5 10.3125L14.3438 15.8438C14.4479 15.9063 14.5575 15.9533 14.6725 15.985C14.7875 16.0167 14.8967 16.0321 15 16.0312C15.1033 16.0304 15.2129 16.015 15.3287 15.985Z" fill="var(--fill-0, white)"/>
</g>
</svg>
