<svg preserveAspectRatio="none" width="100%" height="100%" overflow="visible" style="display: block;" viewBox="0 0 30 30" fill="none" xmlns="http://www.w3.org/2000/svg">
<g id="basil:vk-solid">
<path id="Vector" d="M26.88 22.9766H24.0275C22.9488 22.9766 22.6238 22.1028 20.69 20.1678C19 18.5391 18.2862 18.3365 17.8587 18.3365C17.2675 18.3365 17.1063 18.499 17.1063 19.3128V21.8778C17.1063 22.5716 16.8813 22.9778 15.0688 22.9778C13.3104 22.8597 11.6052 22.3255 10.0937 21.4192C8.58222 20.513 7.30766 19.2606 6.375 17.7653C4.16127 15.0086 2.62051 11.7739 1.875 8.3178C1.875 7.8903 2.0375 7.5028 2.8525 7.5028H5.7025C6.435 7.5028 6.69875 7.82905 6.98625 8.5828C8.37 12.6553 10.7313 16.1978 11.69 16.1978C12.0575 16.1978 12.2175 16.0353 12.2175 15.119V10.924C12.0963 9.0103 11.08 8.84905 11.08 8.15655C11.0929 7.97385 11.1764 7.80336 11.313 7.68129C11.4495 7.55922 11.6283 7.49519 11.8113 7.5028H16.2912C16.9038 7.5028 17.1063 7.8078 17.1063 8.5403V14.2028C17.1063 14.8141 17.3688 15.0165 17.5538 15.0165C17.9213 15.0165 18.2038 14.814 18.8775 14.1415C20.3211 12.3799 21.5009 10.4177 22.38 8.31655C22.4696 8.064 22.6395 7.84779 22.8636 7.70104C23.0878 7.55428 23.354 7.48509 23.6212 7.50405H26.4725C27.3275 7.50405 27.5087 7.93155 27.3275 8.54155C26.2902 10.8644 25.007 13.0695 23.5 15.119C23.1925 15.5878 23.07 15.8315 23.5 16.3815C23.7825 16.809 24.7825 17.644 25.4538 18.4378C26.4313 19.4128 27.2425 20.5403 27.8562 21.7753C28.1012 22.5703 27.6937 22.9766 26.88 22.9766Z" fill="var(--fill-0, white)"/>
</g>
</svg>
