<svg preserveAspectRatio="none" overflow="visible" style="display: block;" width="444.599" height="203.75" viewBox="0 0 444.599 203.75" fill="none" xmlns="http://www.w3.org/2000/svg">
<path id="Vector 513" d="M428.599 78.6158C428.599 83.034 432.181 86.6158 436.599 86.6158C441.018 86.6158 444.599 83.034 444.599 78.6158C444.599 74.1975 441.018 70.6158 436.599 70.6158C432.181 70.6158 428.599 74.1975 428.599 78.6158ZM261.612 141.656L262.789 140.727V140.727L261.612 141.656ZM316.911 67.9887L315.688 68.8579L316.911 67.9887ZM11.1634 203.427C11.8135 203.941 12.7567 203.83 13.2703 203.18L21.6389 192.587C22.1525 191.937 22.0418 190.994 21.3917 190.48C20.7417 189.967 19.7984 190.077 19.2849 190.727L11.8461 200.143L2.42991 192.705C1.77986 192.191 0.836579 192.302 0.323038 192.952C-0.190502 193.602 -0.0798388 194.545 0.570213 195.059L11.1634 203.427ZM12.0933 202.25L13.5831 202.076C13.4671 201.087 13.3595 200.101 13.2603 199.116L11.7678 199.267L10.2754 199.417C10.3763 200.418 10.4856 201.42 10.6035 202.425L12.0933 202.25ZM11.2674 193.338L12.764 193.237C12.6315 191.285 12.5316 189.343 12.4638 187.41L10.9647 187.462L9.46566 187.515C9.53459 189.481 9.63613 191.456 9.77089 193.44L11.2674 193.338ZM10.8559 181.503L12.3559 181.501C12.3531 179.533 12.3836 177.575 12.4466 175.628L10.9474 175.58L9.44818 175.531C9.38403 177.512 9.35305 179.504 9.35589 181.505L10.8559 181.503ZM11.2387 169.68L12.7354 169.779C12.8664 167.808 13.0309 165.848 13.2281 163.9L11.7357 163.749L10.2433 163.598C10.0427 165.58 9.87534 167.575 9.74205 169.58L11.2387 169.68ZM12.431 157.887L13.9173 158.089C14.1831 156.136 14.4819 154.195 14.8131 152.267L13.3347 152.013L11.8563 151.759C11.5193 153.722 11.2152 155.697 10.9447 157.685L12.431 157.887ZM14.439 146.19L15.9076 146.495C16.3064 144.575 16.7372 142.669 17.1995 140.776L15.7423 140.42L14.2851 140.064C13.8147 141.991 13.3762 143.931 12.9703 145.885L14.439 146.19ZM17.2521 134.673L18.696 135.08C19.2264 133.195 19.7881 131.325 20.3802 129.469L18.9512 129.013L17.5222 128.557C16.9196 130.445 16.348 132.349 15.8082 134.267L17.2521 134.673ZM20.855 123.385L22.2674 123.89C22.928 122.043 23.6191 120.211 24.3399 118.395L22.9457 117.842L21.5515 117.289C20.8181 119.136 20.1149 121 19.4426 122.88L20.855 123.385ZM25.2256 112.373L26.6 112.973C27.3864 111.174 28.2022 109.391 29.0466 107.625L27.6933 106.978L26.34 106.331C25.4811 108.127 24.6512 109.941 23.8511 111.772L25.2256 112.373ZM30.3354 101.683L31.6662 102.375C32.5729 100.631 33.5077 98.9058 34.4698 97.1982L33.163 96.4619L31.8561 95.7256C30.8776 97.4622 29.9269 99.2173 29.0047 100.99L30.3354 101.683ZM36.1556 91.3507L37.4373 92.1299C38.4568 90.4528 39.503 88.7944 40.5751 87.1549L39.3197 86.334L38.0643 85.5131C36.9743 87.1799 35.9105 88.8661 34.8738 90.5715L36.1556 91.3507ZM42.6446 81.4262L43.8726 82.2877C44.9987 80.6824 46.1499 79.0968 47.3254 77.5312L46.1259 76.6305L44.9264 75.7299C43.7316 77.3212 42.5613 78.933 41.4166 80.5648L42.6446 81.4262ZM49.7629 71.9453L50.9329 72.884C52.1593 71.3553 53.4093 69.8472 54.682 68.3602L53.5424 67.3848L52.4028 66.4095C51.1095 67.9205 49.8393 69.4531 48.5929 71.0067L49.7629 71.9453ZM57.4714 62.9386L58.5796 63.9495C59.9011 62.5008 61.2446 61.0737 62.6092 59.6688L61.5332 58.6237L60.4572 57.5786C59.0708 59.0059 57.7059 60.4558 56.3632 61.9278L57.4714 62.9386ZM65.7309 54.4348L66.7738 55.513C68.1839 54.149 69.6144 52.8077 71.0644 51.4896L70.0555 50.3797L69.0465 49.2697C67.5736 50.6086 66.1205 51.9711 64.688 53.3567L65.7309 54.4348ZM74.5025 46.461L75.4767 47.6016C76.9692 46.3267 78.4805 45.0757 80.0097 43.8489L79.071 42.6789L78.1324 41.5089C76.5792 42.7549 75.0442 44.0256 73.5283 45.3205L74.5025 46.461ZM83.7479 39.0433L84.6502 40.2415C86.2191 39.0601 87.8051 37.9035 89.4074 36.7722L88.5422 35.5469L87.6771 34.3215C86.0498 35.4704 84.439 36.6451 82.8456 37.845L83.7479 39.0433ZM93.4347 32.2038L94.2618 33.4551C95.8996 32.3724 97.5528 31.3157 99.2206 30.2854L98.4322 29.0093L97.6438 27.7332C95.95 28.7796 94.2709 29.8529 92.6075 30.9525L93.4347 32.2038ZM103.523 25.9716L104.272 27.2713C105.972 26.2919 107.686 25.3396 109.412 24.4148L108.704 23.0925L107.996 21.7702C106.242 22.7096 104.501 23.677 102.774 24.6718L103.523 25.9716ZM113.976 20.3736L114.642 21.7172C116.399 20.8457 118.167 20.0023 119.946 19.1875L119.322 17.8237L118.697 16.4599C116.889 17.2877 115.093 18.1445 113.309 19.0299L113.976 20.3736ZM124.756 15.438L125.337 16.8209C127.145 16.0612 128.962 15.3308 130.789 14.6304L130.252 13.2298L129.715 11.8292C127.859 12.5411 126.011 13.2833 124.175 14.0552L124.756 15.438ZM135.826 11.1948L136.317 12.6119C138.171 11.9689 140.032 11.3565 141.901 10.7752L141.456 9.34284L141.01 7.91052C139.11 8.5015 137.218 9.12405 135.334 9.77765L135.826 11.1948ZM147.145 7.67515L147.543 9.12134C149.435 8.60049 151.333 8.11153 153.237 7.65496L152.888 6.19631L152.538 4.73766C150.601 5.20205 148.671 5.69932 146.747 6.22896L147.145 7.67515ZM158.671 4.91201L158.972 6.38163C160.894 5.98869 162.822 5.62893 164.753 5.30283L164.503 3.82377L164.254 2.3447C162.288 2.67655 160.327 3.04262 158.371 3.44238L158.671 4.91201ZM170.359 2.93917L170.557 4.42603C172.502 4.16683 174.45 3.94204 176.399 3.75217L176.254 2.25923L176.108 0.766294C174.123 0.959626 172.14 1.18848 170.161 1.45232L170.359 2.93917ZM182.161 1.79058L182.252 3.28777C184.208 3.16801 186.165 3.08379 188.121 3.03562L188.085 1.53607L188.048 0.0365275C186.054 0.0856098 184.061 0.171405 182.069 0.29338L182.161 1.79058ZM194.012 1.49988L193.994 2.99977C195.951 3.02424 197.907 3.08532 199.861 3.18352L199.936 1.68541L200.012 0.187296C198.02 0.0871977 196.026 0.0249443 194.031 0L194.012 1.49988ZM205.85 2.09591L205.718 3.59004C207.666 3.76291 209.612 3.97338 211.554 4.22194L211.744 2.73408L211.934 1.24622C209.954 0.992697 207.97 0.778059 205.983 0.601777L205.85 2.09591ZM217.605 3.60156L217.356 5.08078C219.286 5.40537 221.211 5.76843 223.13 6.17046L223.437 4.70233L223.745 3.2342C221.787 2.82394 219.823 2.4535 217.854 2.12234L217.605 3.60156ZM229.203 6.03133L228.837 7.48593C230.733 7.96329 232.622 8.47968 234.504 9.03562L234.929 7.59709L235.354 6.15856C233.433 5.59105 231.504 5.06394 229.569 4.57673L229.203 6.03133ZM240.568 9.38889L240.085 10.8089C241.933 11.4377 243.772 12.1057 245.602 12.8134L246.143 11.4144L246.684 10.0154C244.816 9.2928 242.938 8.61078 241.052 7.96887L240.568 9.38889ZM251.626 13.6655L251.028 15.0411C252.812 15.8169 254.586 16.6317 256.35 17.4862L257.004 16.1362L257.658 14.7863C255.857 13.9139 254.046 13.0819 252.224 12.2899L251.626 13.6655ZM262.304 18.8395L261.596 20.1614C263.303 21.0766 264.998 22.0303 266.682 23.0229L267.444 21.7307L268.206 20.4384C266.487 19.4253 264.756 18.4518 263.013 17.5175L262.304 18.8395ZM272.511 24.8576L271.698 26.1179C273.325 27.1679 274.94 28.2557 276.542 29.3819L277.404 28.1548L278.267 26.9277C276.633 25.7787 274.985 24.6687 273.325 23.5973L272.511 24.8576ZM282.189 31.6609L281.278 32.8532C282.827 34.0358 284.363 35.256 285.885 36.514L286.841 35.3579L287.797 34.2017C286.245 32.9191 284.679 31.6749 283.099 30.4686L282.189 31.6609ZM291.312 39.198L290.313 40.3173C291.776 41.6217 293.224 42.9627 294.657 44.3408L295.697 43.2595L296.736 42.1783C295.276 40.7744 293.801 39.4079 292.31 38.0786L291.312 39.198ZM299.861 47.4102L298.783 48.4535C300.135 49.85 301.473 51.2814 302.795 52.7478L303.909 51.7431L305.023 50.7384C303.677 49.246 302.315 47.7889 300.939 46.3669L299.861 47.4102ZM307.83 56.244L306.682 57.2097C307.919 58.6808 309.143 60.1845 310.351 61.7211L311.53 60.7937L312.709 59.8663C311.481 58.3041 310.236 56.7749 308.977 55.2784L307.83 56.244ZM315.141 65.5408L313.932 66.4294C314.522 67.2306 315.107 68.0401 315.688 68.8579L316.911 67.9887L318.133 67.1195C317.543 66.2887 316.948 65.4663 316.349 64.6521L315.141 65.5408ZM316.911 67.9887L315.688 68.8579C316.255 69.6542 316.802 70.4495 317.333 71.2437L318.58 70.411L319.828 69.5783C319.281 68.7593 318.716 67.9396 318.133 67.1195L316.911 67.9887ZM321.642 75.316L320.346 76.0702C321.32 77.7454 322.217 79.4135 323.039 81.0724L324.383 80.4064L325.727 79.7404C324.875 78.0207 323.946 76.2938 322.939 74.5618L321.642 75.316ZM326.765 85.6778L325.376 86.2451C326.108 88.0363 326.755 89.8139 327.319 91.5753L328.748 91.1174L330.176 90.6595C329.587 88.8232 328.914 86.9725 328.153 85.1104L326.765 85.6778ZM330.288 96.7033L328.826 97.0408C329.26 98.9209 329.602 100.779 329.857 102.61L331.342 102.404L332.828 102.197C332.561 100.277 332.203 98.3317 331.749 96.3659L330.288 96.7033ZM331.873 108.177L330.374 108.243C330.459 110.161 330.448 112.045 330.347 113.89L331.844 113.972L333.342 114.054C333.449 112.11 333.46 110.127 333.371 108.111L331.873 108.177ZM331.232 119.731L329.751 119.495C329.451 121.38 329.055 123.215 328.571 124.995L330.019 125.388L331.466 125.782C331.978 123.897 332.397 121.957 332.713 119.967L331.232 119.731ZM328.195 130.879L326.8 130.327C326.099 132.099 325.306 133.802 324.431 135.43L325.753 136.14L327.074 136.85C328.004 135.119 328.846 133.311 329.589 131.431L328.195 130.879ZM322.711 141.066L321.485 140.202C320.393 141.75 319.221 143.206 317.978 144.563L319.085 145.576L320.191 146.589C321.521 145.137 322.773 143.581 323.937 141.931L322.711 141.066ZM314.894 149.581L313.934 148.428C312.488 149.632 310.977 150.718 309.414 151.678L310.198 152.956L310.983 154.235C312.672 153.198 314.3 152.027 315.854 150.733L314.894 149.581ZM305.043 155.601L304.465 154.217C302.748 154.934 300.988 155.506 299.198 155.925L299.539 157.386L299.881 158.846C301.837 158.389 303.755 157.764 305.621 156.985L305.043 155.601ZM293.813 158.211L293.73 156.713C291.904 156.814 290.06 156.755 288.209 156.525L288.024 158.013L287.84 159.502C289.869 159.754 291.893 159.819 293.896 159.709L293.813 158.211ZM282.379 156.8L282.82 155.367C281.098 154.837 279.379 154.151 277.673 153.3L277.004 154.642L276.334 155.985C278.185 156.908 280.056 157.655 281.937 158.234L282.379 156.8ZM272.029 151.672L272.89 150.443C271.422 149.415 269.971 148.253 268.543 146.949L267.531 148.057L266.52 149.164C268.039 150.552 269.591 151.796 271.169 152.901L272.029 151.672ZM263.492 143.919L264.621 142.931C264.004 142.226 263.393 141.492 262.789 140.727L261.612 141.656L260.434 142.586C261.069 143.39 261.712 144.163 262.363 144.907L263.492 143.919ZM261.612 141.656L262.789 140.727C262.187 139.964 261.622 139.181 261.093 138.378L259.84 139.202L258.587 140.027C259.163 140.902 259.778 141.755 260.434 142.586L261.612 141.656ZM256.973 133.917L258.347 133.314C257.578 131.56 256.95 129.735 256.458 127.851L255.007 128.229L253.555 128.608C254.085 130.639 254.764 132.614 255.599 134.519L256.973 133.917ZM253.914 122.307L255.405 122.138C255.189 120.237 255.096 118.29 255.122 116.309L253.622 116.29L252.122 116.27C252.095 118.371 252.194 120.443 252.424 122.476L253.914 122.307ZM254.039 110.279L255.528 110.464C255.765 108.553 256.103 106.62 256.541 104.674L255.077 104.345L253.614 104.016C253.156 106.053 252.8 108.082 252.55 110.095L254.039 110.279ZM256.659 98.5315L258.088 98.9873C258.678 97.1389 259.353 95.2866 260.11 93.4374L258.721 92.8691L257.333 92.3009C256.547 94.2217 255.845 96.149 255.23 98.0756L256.659 98.5315ZM261.212 87.3788L262.554 88.0478C263.426 86.2996 264.369 84.5608 265.382 82.8376L264.089 82.0773L262.796 81.317C261.748 83.0989 260.772 84.8985 259.869 86.7098L261.212 87.3788ZM267.32 76.9791L268.56 77.8231C269.664 76.2005 270.831 74.5981 272.058 73.0213L270.874 72.1002L269.69 71.179C268.424 72.8057 267.22 74.4596 266.08 76.1352L267.32 76.9791ZM274.715 67.4681L275.84 68.4608C277.139 66.9885 278.494 65.5454 279.9 64.1363L278.838 63.0766L277.777 62.017C276.327 63.4695 274.931 64.9573 273.591 66.4753L274.715 67.4681ZM283.225 58.9415L284.22 60.0638C285.694 58.757 287.216 57.4874 288.784 56.2596L287.859 55.0786L286.935 53.8976C285.318 55.1633 283.749 56.4721 282.23 57.8191L283.225 58.9415ZM292.722 51.507L293.572 52.7427C295.192 51.6282 296.853 50.5579 298.556 49.5361L297.784 48.25L297.012 46.9639C295.256 48.0181 293.541 49.122 291.871 50.2713L292.722 51.507ZM303.044 45.3134L303.733 46.6456C305.481 45.7409 307.267 44.8869 309.088 44.0876L308.485 42.7141L307.882 41.3405C306.002 42.1659 304.159 43.0475 302.354 43.9813L303.044 45.3134ZM314.089 40.468L314.602 41.8778C316.444 41.2081 318.319 40.594 320.225 40.0393L319.806 38.5991L319.386 37.1589C317.417 37.7321 315.48 38.3665 313.577 39.0583L314.089 40.468ZM325.639 37.1077L325.962 38.5725C327.88 38.1492 329.826 37.7857 331.798 37.4856L331.573 36.0027L331.347 34.5198C329.309 34.8299 327.298 35.2055 325.316 35.643L325.639 37.1077ZM337.559 35.2934L337.687 36.7879C339.631 36.6223 341.599 36.5182 343.589 36.4787L343.559 34.979L343.53 33.4793C341.474 33.5201 339.441 33.6276 337.432 33.7988L337.559 35.2934ZM349.592 35.0541L349.526 36.5526C351.482 36.6397 353.458 36.7893 355.453 37.0044L355.614 35.513L355.774 34.0216C353.717 33.7999 351.678 33.6454 349.659 33.5555L349.592 35.0541ZM361.553 36.3368L361.302 37.8157C363.234 38.1432 365.182 38.5324 367.146 38.9855L367.483 37.5239L367.82 36.0624C365.8 35.596 363.794 35.1953 361.804 34.8579L361.553 36.3368ZM373.303 39.0417L372.884 40.482C374.754 41.0256 376.637 41.6277 378.531 42.2903L379.026 40.8744L379.522 39.4584C377.577 38.7784 375.644 38.16 373.722 37.6013L373.303 39.0417ZM384.704 43.0265L384.137 44.4151C385.929 45.1467 387.73 45.9328 389.54 46.7751L390.173 45.415L390.806 44.055C388.953 43.1928 387.108 42.3876 385.271 41.6378L384.704 43.0265ZM395.64 48.1144L394.945 49.4439C396.657 50.3381 398.376 51.283 400.103 52.28L400.853 50.981L401.603 49.682C399.841 48.6642 398.084 47.699 396.335 46.7849L395.64 48.1144ZM406.068 54.1371L405.265 55.4045C406.899 56.4391 408.539 57.5209 410.185 58.6508L411.034 57.4143L411.883 56.1778C410.207 55.0271 408.536 53.9247 406.87 52.8698L406.068 54.1371ZM416.012 60.9682L415.118 62.1733C416.669 63.3227 418.224 64.5154 419.783 65.7523L420.715 64.5772L421.648 63.4022C420.063 62.1452 418.482 60.9325 416.905 59.7632L416.012 60.9682ZM425.44 68.4517L424.471 69.5965C425.95 70.8488 427.432 72.1413 428.918 73.4748L429.92 72.3587L430.922 71.2426C429.415 69.89 427.911 68.5783 426.41 67.3069L425.44 68.4517ZM434.37 76.469L433.337 77.5567C434.074 78.2573 434.813 78.9681 435.552 79.6893L436.599 78.6158L437.647 77.5422C436.898 76.8116 436.15 76.0913 435.402 75.3813L434.37 76.469Z" fill="#C2461E"/>
</svg>
