<svg preserveAspectRatio="none" overflow="visible" style="display: block;" width="49" height="61" viewBox="0 0 49 61" fill="none" xmlns="http://www.w3.org/2000/svg">
<path id="Vector" d="M6.125 61H42.875C46.2438 61 49 58.255 49 54.9V27.45C49 24.095 46.2438 21.35 42.875 21.35H39.8125V15.25C39.8125 6.832 32.9525 0 24.5 0C16.0475 0 9.1875 6.832 9.1875 15.25V21.35H6.125C2.75625 21.35 0 24.095 0 27.45V54.9C0 58.255 2.75625 61 6.125 61ZM15.3125 15.25C15.3125 10.2175 19.4469 6.1 24.5 6.1C29.5531 6.1 33.6875 10.2175 33.6875 15.25V21.35H15.3125V15.25Z" fill="white"/>
</svg>
